ply
format ascii 1.0
comment VCGLIB generated
element vertex 482
property float x
property float y
property float z
property float nx
property float ny
property float nz
element face 960
property list uchar int vertex_indices
end_header
-0.19509 0.980785 0 -1.254853 6.116668 -1.117587e-07 
-0.382683 0.92388 0 -2.417915 5.745541 1.229346e-07 
-0.55557 0.83147 0 -3.482994 5.15594 2.57045e-07 
-0.707107 0.707107 0 -4.410485 4.372699 4.038215e-06 
-0.83147 0.55557 0 -5.16702 3.427326 1.276284e-05 
-0.92388 0.382683 0 -5.726295 2.356342 4.447997e-06 
-0.980785 0.19509 0 -6.069418 1.199813 1.2815e-05 
-1 0 0 -6.185044 3.188848e-06 3.173947e-06 
-0.980785 -0.19509 0 -6.069418 -1.199816 1.614541e-05 
-0.92388 -0.382683 0 -5.726295 -2.356341 5.416572e-06 
-0.83147 -0.55557 0 -5.16702 -3.427328 1.392514e-05 
-0.707107 -0.707107 0 -4.410486 -4.372698 4.477799e-06 
-0.55557 -0.83147 0 -3.482994 -5.15594 8.568168e-07 
-0.382683 -0.92388 0 -2.417914 -5.745541 -2.235174e-07 
-0.19509 -0.980785 0 -1.254857 -6.116665 -1.601875e-06 
-0.191342 0.980785 -0.03806 -1.230749 6.116664 -0.2448024 
-0.37533 0.92388 -0.074658 -2.371457 5.74554 -0.4717094 
-0.544895 0.83147 -0.108386 -3.416074 5.155937 -0.6794951 
-0.69352 0.707107 -0.13795 -4.325735 4.372703 -0.8604503 
-0.815493 0.55557 -0.162212 -5.067749 3.42732 -1.008041 
-0.906127 0.382683 -0.18024 -5.616267 2.356353 -1.117162 
-0.96194 0.19509 -0.191342 -5.952787 1.199819 -1.18409 
-0.980785 0 -0.19509 -6.066205 3.173947e-06 -1.206643 
-0.96194 -0.19509 -0.191342 -5.952786 -1.199822 -1.184093 
-0.906127 -0.382683 -0.18024 -5.616269 -2.356351 -1.11716 
-0.815493 -0.55557 -0.162212 -5.067748 -3.427323 -1.00804 
-0.69352 -0.707107 -0.13795 -4.325738 -4.372701 -0.860449 
-0.544895 -0.83147 -0.108386 -3.41607 -5.15594 -0.679492 
-0.37533 -0.92388 -0.074658 -2.371456 -5.74554 -0.4717097 
-0.191341 -0.980785 -0.03806 -1.230739 -6.11667 -0.2447998 
-0.18024 0.980785 -0.074658 -1.159335 6.116668 -0.480206 
-0.353553 0.92388 -0.146447 -2.233867 5.745541 -0.9252898 
-0.51328 0.83147 -0.212608 -3.217874 5.155933 -1.33288 
-0.653281 0.707107 -0.270598 -4.074759 4.372707 -1.687818 
-0.768178 0.55557 -0.31819 -4.773712 3.427321 -1.977331 
-0.853553 0.382683 -0.353553 -5.290421 2.356339 -2.19135 
-0.906127 0.19509 -0.37533 -5.607408 1.199824 -2.322671 
-0.923879 0 -0.382684 -5.714231 3.188848e-06 -2.366925 
-0.906127 -0.19509 -0.37533 -5.60741 -1.199824 -2.322668 
-0.853553 -0.382683 -0.353554 -5.290417 -2.356335 -2.191355 
-0.768178 -0.55557 -0.31819 -4.773709 -3.427326 -1.977331 
-0.653281 -0.707107 -0.270598 -4.074757 -4.372707 -1.687822 
-0.51328 -0.83147 -0.212608 -3.21787 -5.155934 -1.332886 
-0.353553 -0.92388 -0.146447 -2.23386 -5.74554 -0.9252994 
-0.18024 -0.980785 -0.074658 -1.159338 -6.116663 -0.4802173 
-0.162212 0.980785 -0.108387 -1.043377 6.116665 -0.6971577 
-0.31819 0.92388 -0.212608 -2.010428 5.745536 -1.343322 
-0.46194 0.83147 -0.308658 -2.896005 5.155938 -1.935051 
-0.587938 0.707107 -0.392848 -3.667186 4.372699 -2.450329 
-0.691342 0.55557 -0.46194 -4.296226 3.427325 -2.870646 
-0.768178 0.382683 -0.51328 -4.761247 2.35634 -3.181356 
-0.815493 0.19509 -0.544895 -5.046542 1.199808 -3.371979 
-0.831469 0 -0.55557 -5.142684 3.114343e-06 -3.436225 
-0.815493 -0.19509 -0.544895 -5.046538 -1.199814 -3.371983 
-0.768178 -0.382683 -0.51328 -4.761245 -2.356338 -3.181362 
-0.691342 -0.55557 -0.46194 -4.296224 -3.427326 -2.870646 
-0.587938 -0.707107 -0.392848 -3.667187 -4.372698 -2.450328 
-0.46194 -0.83147 -0.308658 -2.896006 -5.155937 -1.935047 
-0.318189 -0.92388 -0.212608 -2.01042 -5.745543 -1.343321 
-0.162211 -0.980785 -0.108386 -1.043366 -6.116669 -0.6971612 
-0.13795 0.980785 -0.13795 -0.8873099 6.116666 -0.8873232 
-0.270598 0.92388 -0.270598 -1.709718 5.745542 -1.709733 
-0.392847 0.83147 -0.392848 -2.462849 5.155936 -2.462855 
-0.5 0.707107 -0.5 -3.118677 4.372705 -3.118689 
-0.587938 0.55557 -0.587938 -3.653639 3.427324 -3.653641 
-0.653281 0.382683 -0.653282 -4.049102 2.356345 -4.049109 
-0.69352 0.19509 -0.69352 -4.291724 1.199821 -4.291723 
-0.707107 0 -0.707107 -4.373492 -5.960464e-08 -4.373477 
-0.69352 -0.19509 -0.69352 -4.291727 -1.199821 -4.29172 
-0.653281 -0.382683 -0.653282 -4.049106 -2.356344 -4.049106 
-0.587938 -0.55557 -0.587938 -3.653639 -3.427326 -3.653639 
-0.5 -0.707107 -0.5 -3.118679 -4.372703 -3.11869 
-0.392847 -0.83147 -0.392848 -2.462847 -5.155937 -2.462853 
-0.270598 -0.92388 -0.270598 -1.709726 -5.74554 -1.709723 
-0.137949 -0.980785 -0.13795 -0.8873216 -6.116667 -0.8873085 
-0.108386 0.980785 -0.162212 -0.6971526 6.116668 -1.043375 
-0.212607 0.92388 -0.31819 -1.343325 5.745539 -2.010425 
-0.308658 0.83147 -0.46194 -1.935046 5.155937 -2.896008 
-0.392847 0.707107 -0.587938 -2.450339 4.372705 -3.667181 
-0.46194 0.55557 -0.691342 -2.870644 3.427327 -4.296224 
-0.51328 0.382683 -0.768178 -3.181365 2.356339 -4.761243 
-0.544895 0.19509 -0.815493 -3.37199 1.199822 -5.046535 
-0.55557 0 -0.83147 -3.436225 2.332032e-06 -5.142676 
-0.544895 -0.19509 -0.815493 -3.371991 -1.199823 -5.046535 
-0.51328 -0.382683 -0.768178 -3.181364 -2.356341 -4.761244 
-0.46194 -0.55557 -0.691342 -2.870641 -3.427329 -4.296224 
-0.392847 -0.707107 -0.587938 -2.450334 -4.372704 -3.667184 
-0.308658 -0.83147 -0.46194 -1.935045 -5.155934 -2.896011 
-0.212607 -0.92388 -0.31819 -1.343324 -5.745539 -2.010424 
-0.108386 -0.980785 -0.162212 -0.6971622 -6.116667 -1.043371 
-0.074658 0.980785 -0.18024 -0.4802133 6.116667 -1.159331 
-0.146446 0.92388 -0.353554 -0.9253043 5.745538 -2.233865 
-0.212607 0.83147 -0.51328 -1.33288 5.15594 -3.21787 
-0.270598 0.707107 -0.653282 -1.687815 4.372699 -4.074758 
-0.318189 0.55557 -0.768178 -1.977325 3.42733 -4.773715 
-0.353553 0.382683 -0.853554 -2.191361 2.356349 -5.290407 
-0.37533 0.19509 -0.906128 -2.322667 1.199815 -5.607406 
-0.382683 0 -0.92388 -2.366906 3.166497e-06 -5.714239 
-0.37533 -0.19509 -0.906128 -2.322665 -1.199818 -5.607406 
-0.353553 -0.382683 -0.853554 -2.191361 -2.356349 -5.290407 
-0.318189 -0.55557 -0.768178 -1.977326 -3.427332 -4.773712 
-0.270598 -0.707107 -0.653282 -1.68782 -4.372698 -4.074757 
-0.212607 -0.83147 -0.51328 -1.332881 -5.155939 -3.21787 
-0.146446 -0.92388 -0.353554 -0.9252911 -5.745536 -2.23387 
-0.074658 -0.980785 -0.18024 -0.4802129 -6.116667 -1.159333 
-0.03806 0.980785 -0.191342 -0.2448163 6.116668 -1.230739 
-0.074658 0.92388 -0.375331 -0.471716 5.745536 -2.371461 
-0.108386 0.83147 -0.544895 -0.6794975 5.155937 -3.416075 
-0.137949 0.707107 -0.69352 -0.8604385 4.372702 -4.325742 
-0.162211 0.55557 -0.815493 -1.008036 3.427333 -5.067744 
-0.18024 0.382683 -0.906128 -1.117141 2.35635 -5.616265 
-0.191341 0.19509 -0.96194 -1.184074 1.19981 -5.952798 
-0.19509 0 -0.980785 -1.206639 8.195639e-07 -6.066206 
-0.191341 -0.19509 -0.96194 -1.184073 -1.199811 -5.952798 
-0.18024 -0.382683 -0.906128 -1.117141 -2.35635 -5.616265 
-0.162211 -0.55557 -0.815493 -1.008035 -3.427334 -5.067744 
-0.137949 -0.707107 -0.69352 -0.8604373 -4.372701 -4.325743 
-0.108386 -0.83147 -0.544895 -0.6794957 -5.155939 -3.41607 
-0.074658 -0.92388 -0.37533 -0.4717158 -5.74554 -2.37146 
-0.03806 -0.980785 -0.191342 -0.2448051 -6.116665 -1.230744 
0 0.980785 -0.195091 -1.612119e-06 6.116665 -1.254857 
0 0.92388 -0.382684 1.229346e-07 5.745537 -2.41792 
0 0.83147 -0.55557 -2.607703e-07 5.155937 -3.483 
0 0.707107 -0.707107 -9.313226e-07 4.372704 -4.410481 
0 0.55557 -0.83147 -4.306436e-06 3.427327 -5.167024 
0 0.382683 -0.92388 -1.236796e-06 2.356341 -5.726299 
0 0.19509 -0.980785 2.861023e-06 1.199814 -6.06942 
0 0 -1 1.318753e-06 2.816319e-06 -6.185044 
0 -0.19509 -0.980785 -8.195639e-08 -1.199817 -6.06942 
0 -0.382683 -0.92388 -1.251698e-06 -2.356341 -5.726299 
0 -0.55557 -0.83147 -5.338341e-06 -3.427328 -5.167023 
0 -0.707107 -0.707107 -2.264977e-06 -4.372703 -4.410482 
0 -0.83147 -0.55557 -4.693866e-07 -5.155939 -3.482996 
0 -0.92388 -0.382684 1.169741e-06 -5.745533 -2.417922 
0 -0.980785 -0.19509 1.85892e-06 -6.11667 -1.254848 
0.038061 0.980785 -0.191342 0.2448192 6.116667 -1.230739 
0.074658 0.92388 -0.375331 0.4717101 5.745537 -2.371461 
0.108387 0.83147 -0.544895 0.6794958 5.155935 -3.416077 
0.13795 0.707107 -0.69352 0.8604407 4.372702 -4.325741 
0.162212 0.55557 -0.815493 1.00804 3.427333 -5.067743 
0.18024 0.382683 -0.906128 1.11714 2.356347 -5.616268 
0.191342 0.19509 -0.96194 1.184077 1.199812 -5.952794 
0.195091 0 -0.980785 1.206639 -1.788139e-06 -6.066205 
0.191342 -0.19509 -0.96194 1.184084 -1.19981 -5.952793 
0.18024 -0.382683 -0.906128 1.11714 -2.356347 -5.616268 
0.162212 -0.55557 -0.815493 1.00804 -3.427334 -5.067743 
0.13795 -0.707107 -0.69352 0.8604411 -4.372702 -4.32574 
0.108387 -0.83147 -0.544895 0.6794951 -5.155938 -3.416071 
0.074658 -0.92388 -0.37533 0.471721 -5.745542 -2.371455 
0.038061 -0.980785 -0.191342 0.2448067 -6.116663 -1.23075 
0.074658 0.980785 -0.18024 0.4802105 6.116669 -1.159329 
0.146447 0.92388 -0.353554 0.9252992 5.745538 -2.233863 
0.212608 0.83147 -0.51328 1.332883 5.155936 -3.217874 
0.270598 0.707107 -0.653282 1.687815 4.372701 -4.074759 
0.31819 0.55557 -0.768178 1.977332 3.427329 -4.77371 
0.353554 0.382683 -0.853554 2.191366 2.35634 -5.290403 
0.375331 0.19509 -0.906127 2.322678 1.199823 -5.607408 
0.382684 0 -0.92388 2.366906 -4.634261e-06 -5.714235 
0.375331 -0.19509 -0.906127 2.322674 -1.199818 -5.607409 
0.353554 -0.382683 -0.853554 2.191366 -2.35634 -5.290403 
0.31819 -0.55557 -0.768178 1.977332 -3.427329 -4.77371 
0.270598 -0.707107 -0.653282 1.687814 -4.372701 -4.074759 
0.212608 -0.83147 -0.51328 1.332879 -5.155938 -3.217871 
0.146447 -0.92388 -0.353553 0.9252856 -5.745543 -2.233865 
0.074658 -0.980785 -0.18024 0.480209 -6.116667 -1.159333 
0.108387 0.980785 -0.162212 0.6971562 6.116665 -1.043377 
0.212608 0.92388 -0.31819 1.343323 5.745541 -2.010422 
0.308659 0.83147 -0.46194 1.935048 5.155933 -2.896012 
0.392848 0.707107 -0.587938 2.450339 4.3727 -3.667182 
0.46194 0.55557 -0.691342 2.870646 3.427325 -4.296227 
0.51328 0.382683 -0.768178 3.181361 2.35634 -4.761248 
0.544895 0.19509 -0.815493 3.371987 1.199827 -5.046537 
0.555571 0 -0.83147 3.436229 3.218651e-06 -5.142669 
0.544895 -0.19509 -0.815493 3.371984 -1.19983 -5.046538 
0.51328 -0.382683 -0.768178 3.181362 -2.356342 -4.761246 
0.46194 -0.55557 -0.691342 2.870649 -3.427324 -4.296225 
0.392848 -0.707107 -0.587938 2.450341 -4.372698 -3.667181 
0.308659 -0.83147 -0.46194 1.935048 -5.155935 -2.896009 
0.212608 -0.92388 -0.31819 1.343323 -5.745537 -2.010424 
0.108387 -0.980785 -0.162212 0.6971579 -6.116665 -1.043377 
0.13795 0.980785 -0.13795 0.887321 6.116667 -0.8873078 
0.270599 0.92388 -0.270598 1.709728 5.745539 -1.709722 
0.392848 0.83147 -0.392848 2.462862 5.15593 -2.462848 
0.5 0.707107 -0.5 3.118686 4.372705 -3.118684 
0.587938 0.55557 -0.587938 3.65364 3.42733 -3.653637 
0.653282 0.382683 -0.653282 4.049105 2.356341 -4.049101 
0.69352 0.19509 -0.69352 4.291725 1.199817 -4.291725 
0.707107 0 -0.707107 4.373491 3.233552e-06 -4.373482 
0.69352 -0.19509 -0.69352 4.291728 -1.19982 -4.291723 
0.653282 -0.382683 -0.653282 4.049102 -2.356343 -4.049101 
0.587938 -0.55557 -0.587938 3.653637 -3.427329 -3.653639 
0.5 -0.707107 -0.5 3.118685 -4.372702 -3.11869 
0.392848 -0.83147 -0.392848 2.462854 -5.155933 -2.462849 
0.270598 -0.92388 -0.270598 1.709721 -5.745545 -1.709725 
0.13795 -0.980785 -0.13795 0.8873216 -6.116667 -0.8873098 
0.162212 0.980785 -0.108386 1.043373 6.116669 -0.6971509 
0.31819 0.92388 -0.212608 2.010425 5.745539 -1.343324 
0.46194 0.83147 -0.308658 2.896012 5.155936 -1.935047 
0.587938 0.707107 -0.392848 3.667178 4.372703 -2.450338 
0.691342 0.55557 -0.46194 4.296227 3.427324 -2.870649 
0.768178 0.382683 -0.51328 4.761247 2.356341 -3.18136 
0.815493 0.19509 -0.544895 5.046537 1.199821 -3.371988 
0.83147 0 -0.55557 5.142678 2.332032e-06 -3.436224 
0.815493 -0.19509 -0.544895 5.046535 -1.199824 -3.37199 
0.768178 -0.382683 -0.51328 4.761247 -2.356341 -3.18136 
0.691342 -0.55557 -0.46194 4.296227 -3.427323 -2.870649 
0.587938 -0.707107 -0.392848 3.667182 -4.372701 -2.450337 
0.46194 -0.83147 -0.308658 2.896013 -5.15594 -1.935041 
0.31819 -0.92388 -0.212608 2.010419 -5.74554 -1.343329 
0.162212 -0.980785 -0.108386 1.043373 -6.116668 -0.6971508 
0.18024 0.980785 -0.074658 1.15933 6.116667 -0.4802121 
0.353554 0.92388 -0.146447 2.233861 5.745538 -0.9253008 
0.51328 0.83147 -0.212608 3.21787 5.155935 -1.332896 
0.653282 0.707107 -0.270598 4.074759 4.372701 -1.687814 
0.768178 0.55557 -0.31819 4.773711 3.427327 -1.977332 
0.853554 0.382683 -0.353553 5.290408 2.356346 -2.191363 
0.906128 0.19509 -0.37533 5.607403 1.199819 -2.322673 
0.92388 0 -0.382683 5.714235 5.662441e-07 -2.366919 
0.906128 -0.19509 -0.37533 5.607404 -1.19982 -2.322668 
0.853554 -0.382683 -0.353553 5.290408 -2.356346 -2.191363 
0.768178 -0.55557 -0.31819 4.773711 -3.427327 -1.977333 
0.653282 -0.707107 -0.270598 4.074758 -4.372701 -1.687814 
0.51328 -0.83147 -0.212608 3.217873 -5.155934 -1.332885 
0.353554 -0.92388 -0.146447 2.233863 -5.745538 -0.9253002 
0.18024 -0.980785 -0.074658 1.15933 -6.116668 -0.4802125 
0.191342 0.980785 -0.03806 1.230739 6.116668 -0.2448163 
0.375331 0.92388 -0.074658 2.371455 5.74554 -0.4717096 
0.544896 0.83147 -0.108386 3.416077 5.15593 -0.6795068 
0.69352 0.707107 -0.13795 4.325744 4.372699 -0.8604447 
0.815493 0.55557 -0.162212 5.067745 3.427332 -1.008037 
0.906128 0.382683 -0.18024 5.616266 2.35635 -1.117141 
0.96194 0.19509 -0.191342 5.952795 1.199821 -1.184076 
0.980786 0 -0.19509 6.066198 -1.050532e-06 -1.206633 
0.96194 -0.19509 -0.191342 5.952794 -1.19982 -1.184078 
0.906128 -0.382683 -0.18024 5.616267 -2.35635 -1.117141 
0.815493 -0.55557 -0.162212 5.067744 -3.427333 -1.008036 
0.69352 -0.707107 -0.13795 4.32574 -4.372701 -0.8604403 
0.544895 -0.83147 -0.108386 3.416077 -5.155937 -0.6794931 
0.375331 -0.92388 -0.074658 2.371461 -5.745537 -0.4717098 
0.191342 -0.980785 -0.03806 1.230738 -6.116668 -0.2448163 
0.195091 0.980785 0 1.254855 6.116665 -1.663342e-06 
0.382684 0.92388 -0 2.417914 5.745542 -5.625188e-07 
0.555571 0.83147 -0 3.483001 5.155933 -6.705523e-07 
0.707107 0.707107 0 4.41049 4.372699 -4.544854e-07 
0.83147 0.55557 0 5.167024 3.427327 -2.741814e-06 
0.92388 0.382683 -0 5.726299 2.356341 -5.066395e-07 
0.980785 0.19509 0 6.06942 1.199818 6.92904e-07 
1 0 0 6.185047 0 0 
0.980785 -0.19509 0 6.06942 -1.199818 2.153218e-06 
0.92388 -0.382683 -0 5.726299 -2.356341 -5.215406e-07 
0.83147 -0.55557 0 5.167023 -3.427328 -3.810972e-06 
0.707107 -0.707107 0 4.410483 -4.372703 -1.434237e-06 
0.55557 -0.83147 0 3.483 -5.155937 -2.831221e-07 
0.382684 -0.92388 -0 2.41792 -5.745538 -5.527399e-07 
0.195091 -0.980785 -0 1.254857 -6.116665 0 
0.191342 0.980785 0.03806 1.230736 6.116669 0.2448172 
0.375331 0.92388 0.074658 2.371457 5.745539 0.4717121 
0.544896 0.83147 0.108386 3.416075 5.155931 0.6795079 
0.69352 0.707107 0.13795 4.325744 4.372699 0.8604451 
0.815493 0.55557 0.162212 5.067743 3.427333 1.008042 
0.906128 0.382683 0.18024 5.616267 2.356347 1.117144 
0.96194 0.19509 0.191342 5.952792 1.199823 1.184084 
0.980786 0 0.19509 6.0662 -7.003546e-07 1.206631 
0.96194 -0.19509 0.191342 5.952792 -1.199822 1.184083 
0.906128 -0.382683 0.18024 5.616267 -2.356347 1.117144 
0.815493 -0.55557 0.162212 5.067743 -3.427333 1.008042 
0.69352 -0.707107 0.13795 4.32574 -4.372702 0.8604416 
0.544895 -0.83147 0.108386 3.416077 -5.155936 0.6794929 
0.375331 -0.92388 0.074658 2.37146 -5.745537 0.47171 
0.191342 -0.980785 0.03806 1.230738 -6.116668 0.244816 
0.18024 0.980785 0.074658 1.15933 6.116667 0.4802126 
0.353554 0.92388 0.146447 2.233863 5.745538 0.9253003 
0.51328 0.83147 0.212608 3.21787 5.155935 1.332896 
0.653282 0.707107 0.270598 4.074756 4.3727 1.687821 
0.768178 0.55557 0.31819 4.77371 3.427326 1.977332 
0.853554 0.382683 0.353553 5.290409 2.356338 2.191363 
0.906127 0.19509 0.37533 5.607409 1.199826 2.322678 
0.92388 0 0.382684 5.714228 2.95788e-06 2.366923 
0.906127 -0.19509 0.37533 5.60741 -1.199829 2.322675 
0.853554 -0.382683 0.353553 5.290409 -2.356338 2.191363 
0.768178 -0.55557 0.31819 4.77371 -3.427326 1.977333 
0.653282 -0.707107 0.270598 4.074756 -4.3727 1.687821 
0.51328 -0.83147 0.212608 3.217871 -5.155935 1.332886 
0.353554 -0.92388 0.146447 2.233861 -5.745537 0.925308 
0.18024 -0.980785 0.074658 1.15933 -6.116667 0.4802137 
0.162212 0.980785 0.108386 1.043374 6.116667 0.6971543 
0.31819 0.92388 0.212608 2.010417 5.74554 1.343329 
0.46194 0.83147 0.308658 2.896016 5.155936 1.935044 
0.587938 0.707107 0.392847 3.667185 4.372703 2.450335 
0.691342 0.55557 0.46194 4.296223 3.427327 2.870646 
0.768178 0.382683 0.51328 4.761245 2.356338 3.181364 
0.815493 0.19509 0.544895 5.04654 1.199823 3.37198 
0.83147 0 0.55557 5.142677 2.95788e-06 3.436226 
0.815493 -0.19509 0.544895 5.046537 -1.199826 3.371982 
0.768178 -0.382683 0.51328 4.761245 -2.356338 3.181364 
0.691342 -0.55557 0.46194 4.296223 -3.427327 2.870646 
0.587938 -0.707107 0.392847 3.667183 -4.372705 2.450336 
0.46194 -0.83147 0.308658 2.896007 -5.155936 1.935051 
0.31819 -0.92388 0.212607 2.01042 -5.745541 1.34333 
0.162212 -0.980785 0.108386 1.043375 -6.116668 0.6971525 
0.13795 0.980785 0.13795 0.8873253 6.116666 0.8873094 
0.270598 0.92388 0.270598 1.709721 5.745545 1.709723 
0.392848 0.83147 0.392848 2.462856 5.155932 2.462849 
0.5 0.707107 0.5 3.118692 4.372703 3.11868 
0.587938 0.55557 0.587938 3.653641 3.427325 3.653639 
0.653282 0.382683 0.653281 4.04911 2.356344 4.049102 
0.69352 0.19509 0.69352 4.291724 1.199825 4.291722 
0.707107 0 0.707107 4.373486 -7.003546e-07 4.373487 
0.69352 -0.19509 0.69352 4.291724 -1.199824 4.291722 
0.653282 -0.382683 0.653281 4.04911 -2.356344 4.049102 
0.587938 -0.55557 0.587938 3.653641 -3.427325 3.653639 
0.5 -0.707107 0.5 3.118688 -4.372706 3.118677 
0.392848 -0.83147 0.392847 2.462853 -5.155936 2.462849 
0.270598 -0.92388 0.270598 1.709733 -5.74554 1.709721 
0.13795 -0.980785 0.13795 0.8873232 -6.116666 0.8873099 
0.108387 0.980785 0.162212 0.6971573 6.116665 1.043377 
0.212608 0.92388 0.31819 1.343324 5.745538 2.010424 
0.308659 0.83147 0.46194 1.935048 5.155934 2.896009 
0.392848 0.707107 0.587938 2.450329 4.372697 3.66719 
0.46194 0.55557 0.691342 2.870637 3.427324 4.296231 
0.51328 0.382683 0.768178 3.181359 2.35634 4.761246 
0.544895 0.19509 0.815493 3.371982 1.199825 5.046539 
0.55557 0 0.83147 3.436226 -3.658235e-06 5.142676 
0.544895 -0.19509 0.815493 3.37198 -1.199821 5.046541 
0.51328 -0.382683 0.768178 3.181358 -2.35634 4.761246 
0.46194 -0.55557 0.691342 2.870637 -3.427324 4.296231 
0.392848 -0.707107 0.587938 2.450329 -4.372699 3.667186 
0.308658 -0.83147 0.46194 1.935054 -5.155937 2.896003 
0.212608 -0.92388 0.31819 1.343326 -5.745535 2.010425 
0.108387 -0.980785 0.162212 0.6971579 -6.116665 1.043377 
0 -1 0 -1.214445e-06 -6.222435 1.265435e-07 
0.074658 0.980785 0.18024 0.4802096 6.116668 1.159332 
0.146447 0.92388 0.353553 0.925286 5.745542 2.233866 
0.212608 0.83147 0.51328 1.332879 5.155934 3.217876 
0.270598 0.707107 0.653281 1.687818 4.3727 4.074766 
0.31819 0.55557 0.768177 1.97733 3.42733 4.773715 
0.353554 0.382683 0.853553 2.19135 2.356345 5.290413 
0.37533 0.19509 0.906127 2.322654 1.199831 5.607414 
0.382684 0 0.92388 2.366904 7.450581e-08 5.714231 
0.37533 -0.19509 0.906127 2.322659 -1.199831 5.607412 
0.353554 -0.382683 0.853553 2.19135 -2.356345 5.290413 
0.31819 -0.55557 0.768177 1.977329 -3.42733 4.773716 
0.270598 -0.707107 0.653281 1.687817 -4.372701 4.074766 
0.212608 -0.83147 0.51328 1.332883 -5.155933 3.217874 
0.146447 -0.92388 0.353553 0.9252861 -5.745542 2.233866 
0.074658 -0.980785 0.18024 0.4802096 -6.116668 1.159332 
0.038061 0.980785 0.191342 0.2448051 6.116663 1.230749 
0.074658 0.92388 0.37533 0.4717093 5.745541 2.371458 
0.108387 0.83147 0.544895 0.6794982 5.155936 3.416072 
0.13795 0.707107 0.69352 0.8604519 4.372697 4.325739 
0.162212 0.55557 0.815493 1.008041 3.427319 5.067745 
0.18024 0.382683 0.906127 1.117144 2.356342 5.616271 
0.191342 0.19509 0.961939 1.184088 1.199825 5.952793 
0.19509 0 0.980785 1.206634 3.099442e-06 6.066203 
0.191342 -0.19509 0.961939 1.184085 -1.199828 5.952794 
0.18024 -0.382683 0.906127 1.117144 -2.356342 5.616272 
0.162212 -0.55557 0.815493 1.008043 -3.427318 5.067746 
0.13795 -0.707107 0.69352 0.8604544 -4.372699 4.325738 
0.108387 -0.83147 0.544895 0.679499 -5.155936 3.416071 
0.074658 -0.92388 0.37533 0.4717094 -5.745541 2.371458 
0.038061 -0.980785 0.191342 0.2448053 -6.116663 1.230749 
0 0.980785 0.19509 7.264316e-08 6.116669 1.254851 
0 0.92388 0.382683 2.104789e-07 5.745541 2.417916 
0 0.83147 0.55557 -5.140901e-07 5.15594 3.482994 
0 0.707107 0.707107 -9.983778e-07 4.372694 4.41049 
0 0.55557 0.831469 -3.062189e-06 3.427323 5.167032 
0 0.382683 0.923879 6.407499e-07 2.356349 5.726298 
0 0.19509 0.980785 2.719462e-06 1.199827 6.069412 
0 0 1 1.53482e-06 0 6.185042 
0 -0.19509 0.980785 2.712011e-06 -1.199827 6.069412 
0 -0.382683 0.923879 5.960464e-07 -2.356349 5.726298 
0 -0.55557 0.831469 -4.641712e-06 -3.427322 5.167034 
0 -0.707107 0.707107 -3.825873e-06 -4.372695 4.410489 
0 -0.83147 0.55557 -1.512468e-06 -5.155941 3.482993 
0 -0.92388 0.382683 2.514571e-07 -5.745541 2.417916 
0 -0.980785 0.19509 2.495944e-07 -6.116669 1.254851 
-0.03806 0.980785 0.191342 -0.2448042 6.116665 1.230747 
-0.074658 0.92388 0.37533 -0.4717141 5.745539 2.371457 
-0.108386 0.83147 0.544895 -0.6794971 5.155938 3.416071 
-0.137949 0.707107 0.69352 -0.8604503 4.372696 4.325743 
-0.162211 0.55557 0.815493 -1.008037 3.427322 5.067744 
-0.18024 0.382683 0.906127 -1.117147 2.356344 5.616269 
-0.191342 0.19509 0.961939 -1.184093 1.199823 5.952793 
-0.19509 0 0.980785 -1.206649 1.54227e-06 6.066199 
-0.191342 -0.19509 0.961939 -1.184092 -1.199825 5.952794 
-0.18024 -0.382683 0.906127 -1.117147 -2.356344 5.616269 
-0.162211 -0.55557 0.815493 -1.008037 -3.427322 5.067745 
-0.137949 -0.707107 0.69352 -0.8604497 -4.372696 4.325742 
-0.108386 -0.83147 0.544895 -0.679497 -5.155938 3.416071 
-0.074658 -0.92388 0.37533 -0.4717143 -5.745539 2.371457 
-0.03806 -0.980785 0.191342 -0.244809 -6.116664 1.230747 
-0.074658 0.980785 0.18024 -0.4802132 6.116666 1.159335 
-0.146446 0.92388 0.353553 -0.9252902 5.745543 2.233864 
-0.212607 0.83147 0.51328 -1.332881 5.155936 3.217873 
-0.270598 0.707107 0.653281 -1.687822 4.372696 4.074764 
-0.318189 0.55557 0.768177 -1.97734 3.427331 4.77371 
-0.353553 0.382683 0.853553 -2.19135 2.356351 5.290412 
-0.37533 0.19509 0.906127 -2.322658 1.199816 5.607412 
-0.382683 0 0.923879 -2.366916 1.519918e-06 5.714236 
-0.37533 -0.19509 0.906127 -2.322659 -1.199818 5.607411 
-0.353553 -0.382683 0.853553 -2.19135 -2.356351 5.290412 
-0.318189 -0.55557 0.768177 -1.977341 -3.427331 4.77371 
-0.270598 -0.707107 0.653281 -1.687823 -4.372696 4.074764 
-0.212607 -0.83147 0.51328 -1.332881 -5.155937 3.217872 
-0.146446 -0.92388 0.353553 -0.9253018 -5.745542 2.233859 
-0.074657 -0.980785 0.18024 -0.4802094 -6.116667 1.159333 
-0.108386 0.980785 0.162212 -0.6971622 6.116666 1.043371 
-0.212607 0.92388 0.31819 -1.343317 5.745538 2.01043 
-0.308658 0.83147 0.46194 -1.935051 5.155935 2.896004 
-0.392847 0.707107 0.587938 -2.450333 4.372692 3.667196 
-0.461939 0.55557 0.691341 -2.870651 3.42733 4.296225 
-0.51328 0.382683 0.768178 -3.181361 2.356353 4.761231 
-0.544895 0.19509 0.815493 -3.371993 1.199809 5.046528 
-0.55557 0 0.831469 -3.436232 2.980232e-08 5.142674 
-0.544895 -0.19509 0.815493 -3.371993 -1.199809 5.046528 
-0.51328 -0.382683 0.768178 -3.181361 -2.356353 4.761231 
-0.461939 -0.55557 0.691341 -2.870651 -3.42733 4.296225 
-0.392847 -0.707107 0.587938 -2.450333 -4.372693 3.667193 
-0.308658 -0.83147 0.46194 -1.935053 -5.155934 2.896004 
-0.212607 -0.92388 0.318189 -1.343313 -5.745544 2.010425 
-0.108386 -0.980785 0.162212 -0.69716 -6.116664 1.043378 
-0.137949 0.980785 0.13795 -0.8873232 6.116667 0.8873086 
-0.270598 0.92388 0.270598 -1.709734 5.745537 1.709719 
-0.392847 0.83147 0.392847 -2.462861 5.155939 2.462841 
-0.5 0.707107 0.5 -3.118699 4.37269 3.118677 
-0.587937 0.55557 0.587937 -3.653645 3.427325 3.653641 
-0.653281 0.382683 0.653281 -4.049111 2.356347 4.049096 
-0.693519 0.19509 0.693519 -4.291738 1.199817 4.291719 
-0.707106 0 0.707106 -4.373493 0 4.373484 
-0.693519 -0.19509 0.693519 -4.291738 -1.199817 4.291719 
-0.653281 -0.382683 0.653281 -4.049111 -2.356348 4.049096 
-0.587937 -0.55557 0.587937 -3.653645 -3.427325 3.653641 
-0.5 -0.707107 0.5 -3.118696 -4.372692 3.118677 
-0.392847 -0.83147 0.392847 -2.462861 -5.155938 2.462843 
-0.270598 -0.92388 0.270598 -1.709729 -5.745537 1.709723 
-0.137949 -0.980785 0.13795 -0.8873236 -6.116666 0.8873115 
-0.162211 0.980785 0.108386 -1.043364 6.11667 0.6971636 
-0.318189 0.92388 0.212607 -2.010424 5.745543 1.343321 
-0.461939 0.83147 0.308658 -2.896006 5.155936 1.935058 
-0.587937 0.707107 0.392847 -3.667189 4.372699 2.450336 
-0.691341 0.55557 0.461939 -4.296223 3.42733 2.870648 
-0.768177 0.382683 0.51328 -4.761239 2.356345 3.181364 
-0.815492 0.19509 0.544895 -5.04653 1.19982 3.371997 
-0.831469 0 0.55557 -5.142669 2.205372e-06 3.436233 
-0.815492 -0.19509 0.544895 -5.046528 -1.199823 3.371999 
-0.768177 -0.382683 0.51328 -4.761239 -2.356345 3.181365 
-0.691341 -0.55557 0.461939 -4.296223 -3.427329 2.870648 
-0.587937 -0.707107 0.392847 -3.667189 -4.372701 2.450333 
-0.461939 -0.83147 0.308658 -2.896011 -5.155934 1.935047 
-0.318189 -0.92388 0.212607 -2.010429 -5.74554 1.343319 
-0.162211 -0.980785 0.108386 -1.043365 -6.11667 0.6971636 
0 1 0 -4.023314e-07 6.222435 4.158355e-07 
-0.18024 0.980785 0.074658 -1.159331 6.116665 0.4802266 
-0.353553 0.92388 0.146447 -2.233861 5.745538 0.9253073 
-0.51328 0.83147 0.212607 -3.217867 5.155935 1.332894 
-0.653281 0.707107 0.270598 -4.074756 4.372696 1.687838 
-0.768177 0.55557 0.318189 -4.773713 3.427326 1.977335 
-0.853553 0.382683 0.353553 -5.290405 2.35635 2.191362 
-0.906127 0.19509 0.37533 -5.607404 1.19982 2.32267 
-0.923879 0 0.382683 -5.714235 -5.289912e-07 2.366917 
-0.906127 -0.19509 0.37533 -5.607406 -1.199819 2.322665 
-0.853553 -0.382683 0.353553 -5.290405 -2.35635 2.191362 
-0.768177 -0.55557 0.318189 -4.773713 -3.427326 1.977335 
-0.653281 -0.707107 0.270598 -4.07475 -4.372701 1.687836 
-0.513279 -0.83147 0.212607 -3.217866 -5.15594 1.332896 
-0.353553 -0.92388 0.146446 -2.233865 -5.745538 0.9253048 
-0.18024 -0.980785 0.074658 -1.159337 -6.116664 0.4802151 
-0.191342 0.980785 0.03806 -1.230749 6.116664 0.2448025 
-0.37533 0.92388 0.074658 -2.371458 5.74554 0.4717101 
-0.544895 0.83147 0.108386 -3.41607 5.155939 0.6794955 
-0.69352 0.707107 0.13795 -4.325745 4.372689 0.8604516 
-0.815492 0.55557 0.162211 -5.067748 3.427332 1.008053 
-0.906127 0.382683 0.18024 -5.616265 2.356349 1.117161 
-0.961939 0.19509 0.191341 -5.952797 1.199823 1.184088 
-0.980785 0 0.19509 -6.066197 -2.68966e-06 1.206651 
-0.961939 -0.19509 0.191341 -5.952796 -1.19982 1.18409 
-0.906127 -0.382683 0.18024 -5.616265 -2.356349 1.117161 
-0.815492 -0.55557 0.162211 -5.067747 -3.427332 1.008053 
-0.69352 -0.707107 0.13795 -4.325743 -4.37269 0.8604528 
-0.544895 -0.83147 0.108386 -3.416067 -5.155938 0.6795084 
-0.37533 -0.92388 0.074658 -2.371458 -5.745539 0.4717159 
-0.191341 -0.980785 0.03806 -1.230736 -6.11667 0.244801 
3 0 15 16 
3 9 8 23 
3 2 1 16 
3 9 24 25 
3 2 17 18 
3 11 10 25 
3 3 18 19 
3 11 26 27 
3 4 19 20 
3 12 27 28 
3 5 20 21 
3 13 28 29 
3 6 21 22 
3 7 22 23 
3 21 36 37 
3 23 22 37 
3 15 30 31 
3 24 23 38 
3 16 31 32 
3 24 39 40 
3 17 32 33 
3 26 25 40 
3 18 33 34 
3 26 41 42 
3 19 34 35 
3 27 42 43 
3 20 35 36 
3 28 43 44 
3 41 40 55 
3 33 48 49 
3 41 56 57 
3 34 49 50 
3 42 57 58 
3 36 35 50 
3 43 58 59 
3 36 51 52 
3 37 52 53 
3 30 45 46 
3 38 53 54 
3 31 46 47 
3 40 39 54 
3 32 47 48 
3 52 67 68 
3 45 60 61 
3 53 68 69 
3 46 61 62 
3 55 54 69 
3 47 62 63 
3 55 70 71 
3 48 63 64 
3 56 71 72 
3 49 64 65 
3 57 72 73 
3 50 65 66 
3 58 73 74 
3 52 51 66 
3 72 71 86 
3 64 79 80 
3 73 72 87 
3 65 80 81 
3 73 88 89 
3 67 66 81 
3 67 82 83 
3 60 75 76 
3 68 83 84 
3 61 76 77 
3 70 69 84 
3 62 77 78 
3 70 85 86 
3 64 63 78 
3 75 90 91 
3 83 98 99 
3 76 91 92 
3 85 84 99 
3 77 92 93 
3 86 85 100 
3 79 78 93 
3 86 101 102 
3 79 94 95 
3 88 87 102 
3 81 80 95 
3 88 103 104 
3 81 96 97 
3 82 97 98 
3 94 109 110 
3 102 117 118 
3 96 95 110 
3 104 103 118 
3 96 111 112 
3 97 112 113 
3 90 105 106 
3 98 113 114 
3 91 106 107 
3 100 99 114 
3 93 92 107 
3 101 100 115 
3 93 108 109 
3 101 116 117 
3 113 128 129 
3 106 121 122 
3 115 114 129 
3 107 122 123 
3 115 130 131 
3 108 123 124 
3 117 116 131 
3 109 124 125 
3 118 117 132 
3 111 110 125 
3 119 118 133 
3 111 126 127 
3 113 112 127 
3 105 120 121 
3 132 147 148 
3 126 125 140 
3 134 133 148 
3 126 141 142 
3 127 142 143 
3 121 120 135 
3 128 143 144 
3 121 136 137 
3 130 129 144 
3 122 137 138 
3 130 145 146 
3 124 123 138 
3 132 131 146 
3 124 139 140 
3 137 136 151 
3 145 144 159 
3 137 152 153 
3 145 160 161 
3 138 153 154 
3 146 161 162 
3 139 154 155 
3 148 147 162 
3 141 140 155 
3 148 163 164 
3 141 156 157 
3 142 157 158 
3 135 150 151 
3 143 158 159 
3 156 155 170 
3 163 178 179 
3 156 171 172 
3 158 157 172 
3 150 165 166 
3 158 173 174 
3 151 166 167 
3 160 159 174 
3 152 167 168 
3 160 175 176 
3 154 153 168 
3 162 161 176 
3 154 169 170 
3 162 177 178 
3 174 189 190 
3 167 182 183 
3 175 190 191 
3 168 183 184 
3 177 176 191 
3 169 184 185 
3 177 192 193 
3 171 170 185 
3 179 178 193 
3 171 186 187 
3 172 187 188 
3 165 180 181 
3 173 188 189 
3 166 181 182 
3 194 193 208 
3 186 201 202 
3 188 187 202 
3 180 195 196 
3 188 203 204 
3 181 196 197 
3 190 189 204 
3 183 182 197 
3 190 205 206 
3 184 183 198 
3 192 191 206 
3 184 199 200 
3 192 207 208 
3 186 185 200 
3 205 220 221 
3 198 213 214 
3 207 206 221 
3 199 214 215 
3 207 222 223 
3 201 200 215 
3 208 223 224 
3 201 216 217 
3 202 217 218 
3 195 210 211 
3 203 218 219 
3 197 196 211 
3 205 204 219 
3 197 212 213 
3 217 232 233 
3 210 225 226 
3 218 233 234 
3 211 226 227 
3 220 219 234 
3 212 227 228 
3 220 235 236 
3 213 228 229 
3 221 236 237 
3 214 229 230 
3 222 237 238 
3 216 215 230 
3 224 223 238 
3 216 231 232 
3 228 243 244 
3 237 236 251 
3 229 244 245 
3 237 252 253 
3 231 230 245 
3 239 238 253 
3 231 246 247 
3 232 247 248 
3 225 240 241 
3 233 248 249 
3 227 226 241 
3 235 234 249 
3 228 227 242 
3 235 250 251 
3 247 262 263 
3 240 255 256 
3 248 263 264 
3 241 256 257 
3 250 249 264 
3 243 242 257 
3 250 265 266 
3 244 243 258 
3 251 266 267 
3 244 259 260 
3 252 267 268 
3 246 245 260 
3 253 268 269 
3 246 261 262 
3 266 281 282 
3 259 274 275 
3 268 267 282 
3 261 260 275 
3 269 268 283 
3 261 276 277 
3 263 262 277 
3 255 270 271 
3 263 278 279 
3 256 271 272 
3 265 264 279 
3 258 257 272 
3 265 280 281 
3 259 258 273 
3 270 285 286 
3 278 293 294 
3 271 286 287 
3 280 279 294 
3 272 287 288 
3 280 295 296 
3 274 273 288 
3 282 281 296 
3 274 289 290 
3 282 297 298 
3 276 275 290 
3 284 283 298 
3 276 291 292 
3 277 292 293 
3 289 304 305 
3 297 312 313 
3 291 290 305 
3 298 313 314 
3 292 291 306 
3 292 307 308 
3 285 300 301 
3 293 308 309 
3 286 301 302 
3 295 294 309 
3 288 287 302 
3 295 310 311 
3 289 288 303 
3 296 311 312 
3 308 323 324 
3 301 316 317 
3 310 309 324 
3 303 302 317 
3 310 325 326 
3 304 303 318 
3 311 326 327 
3 304 319 320 
3 313 312 327 
3 306 305 320 
3 313 328 329 
3 306 321 322 
3 307 322 323 
3 300 315 316 
3 328 327 343 
3 321 320 336 
3 329 328 344 
3 321 337 338 
3 322 338 339 
3 315 331 332 
3 323 339 340 
3 316 332 333 
3 325 324 340 
3 318 317 333 
3 326 325 341 
3 319 318 334 
3 326 342 343 
3 319 335 336 
3 341 340 355 
3 334 333 348 
3 341 356 357 
3 335 334 349 
3 342 357 358 
3 335 350 351 
3 344 343 358 
3 337 336 351 
3 344 359 360 
3 337 352 353 
3 338 353 354 
3 332 331 346 
3 339 354 355 
3 332 347 348 
3 359 374 375 
3 352 367 368 
3 354 353 368 
3 347 346 361 
3 354 369 370 
3 347 362 363 
3 356 355 370 
3 349 348 363 
3 356 371 372 
3 349 364 365 
3 358 357 372 
3 350 365 366 
3 359 358 373 
3 352 351 366 
3 364 363 378 
3 371 386 387 
3 365 364 379 
3 372 387 388 
3 365 380 381 
3 374 373 388 
3 367 366 381 
3 374 389 390 
3 367 382 383 
3 369 368 383 
3 362 361 376 
3 369 384 385 
3 362 377 378 
3 371 370 385 
3 382 397 398 
3 383 398 399 
3 376 391 392 
3 384 399 400 
3 377 392 393 
3 386 385 400 
3 379 378 393 
3 386 401 402 
3 379 394 395 
3 387 402 403 
3 380 395 396 
3 389 388 403 
3 382 381 396 
3 389 404 405 
3 401 416 417 
3 395 394 409 
3 402 417 418 
3 395 410 411 
3 404 403 418 
3 397 396 411 
3 404 419 420 
3 397 412 413 
3 399 398 413 
3 391 406 407 
3 399 414 415 
3 393 392 407 
3 401 400 415 
3 394 393 408 
3 414 413 428 
3 406 421 422 
3 414 429 430 
3 407 422 423 
3 416 415 430 
3 408 423 424 
3 416 431 432 
3 410 409 424 
3 417 432 433 
3 410 425 426 
3 418 433 434 
3 412 411 426 
3 419 434 435 
3 412 427 428 
3 425 424 439 
3 433 432 447 
3 425 440 441 
3 433 448 449 
3 427 426 441 
3 434 449 450 
3 428 427 442 
3 428 443 444 
3 421 436 437 
3 429 444 445 
3 422 437 438 
3 431 430 445 
3 423 438 439 
3 431 446 447 
3 443 459 460 
3 437 436 452 
3 444 460 461 
3 438 437 453 
3 446 445 461 
3 439 438 454 
3 446 462 463 
3 440 439 455 
3 447 463 464 
3 440 456 457 
3 448 464 465 
3 442 441 457 
3 449 465 466 
3 442 458 459 
3 463 478 479 
3 456 471 472 
3 464 479 480 
3 458 457 472 
3 466 465 480 
3 458 473 474 
3 459 474 475 
3 452 467 468 
3 460 475 476 
3 453 468 469 
3 462 461 476 
3 454 469 470 
3 462 477 478 
3 456 455 470 
3 0 451 15 
3 330 14 29 
3 15 451 30 
3 330 29 44 
3 30 451 45 
3 330 44 59 
3 330 59 74 
3 45 451 60 
3 60 451 75 
3 330 74 89 
3 75 451 90 
3 330 89 104 
3 90 451 105 
3 330 104 119 
3 105 451 120 
3 330 119 134 
3 120 451 135 
3 330 134 149 
3 135 451 150 
3 330 149 164 
3 150 451 165 
3 330 164 179 
3 165 451 180 
3 330 179 194 
3 180 451 195 
3 330 194 209 
3 195 451 210 
3 330 209 224 
3 210 451 225 
3 330 224 239 
3 225 451 240 
3 330 239 254 
3 240 451 255 
3 330 254 269 
3 255 451 270 
3 330 269 284 
3 270 451 285 
3 330 284 299 
3 285 451 300 
3 330 299 314 
3 300 451 315 
3 330 314 329 
3 315 451 331 
3 330 329 345 
3 331 451 346 
3 330 345 360 
3 346 451 361 
3 330 360 375 
3 361 451 376 
3 330 375 390 
3 376 451 391 
3 330 390 405 
3 391 451 406 
3 330 405 420 
3 406 451 421 
3 330 420 435 
3 421 451 436 
3 330 435 450 
3 436 451 452 
3 330 450 466 
3 452 451 467 
3 330 466 481 
3 475 8 9 
3 469 468 1 
3 476 9 10 
3 470 469 2 
3 477 10 11 
3 471 470 3 
3 478 11 12 
3 472 471 4 
3 479 12 13 
3 473 472 5 
3 480 13 14 
3 474 473 6 
3 467 451 0 
3 330 481 14 
3 474 7 8 
3 468 467 0 
3 1 0 16 
3 24 9 23 
3 17 2 16 
3 10 9 25 
3 3 2 18 
3 26 11 25 
3 4 3 19 
3 12 11 27 
3 5 4 20 
3 13 12 28 
3 6 5 21 
3 14 13 29 
3 7 6 22 
3 8 7 23 
3 22 21 37 
3 38 23 37 
3 16 15 31 
3 39 24 38 
3 17 16 32 
3 25 24 40 
3 18 17 33 
3 41 26 40 
3 19 18 34 
3 27 26 42 
3 20 19 35 
3 28 27 43 
3 21 20 36 
3 29 28 44 
3 56 41 55 
3 34 33 49 
3 42 41 57 
3 35 34 50 
3 43 42 58 
3 51 36 50 
3 44 43 59 
3 37 36 52 
3 38 37 53 
3 31 30 46 
3 39 38 54 
3 32 31 47 
3 55 40 54 
3 33 32 48 
3 53 52 68 
3 46 45 61 
3 54 53 69 
3 47 46 62 
3 70 55 69 
3 48 47 63 
3 56 55 71 
3 49 48 64 
3 57 56 72 
3 50 49 65 
3 58 57 73 
3 51 50 66 
3 59 58 74 
3 67 52 66 
3 87 72 86 
3 65 64 80 
3 88 73 87 
3 66 65 81 
3 74 73 89 
3 82 67 81 
3 68 67 83 
3 61 60 76 
3 69 68 84 
3 62 61 77 
3 85 70 84 
3 63 62 78 
3 71 70 86 
3 79 64 78 
3 76 75 91 
3 84 83 99 
3 77 76 92 
3 100 85 99 
3 78 77 93 
3 101 86 100 
3 94 79 93 
3 87 86 102 
3 80 79 95 
3 103 88 102 
3 96 81 95 
3 89 88 104 
3 82 81 97 
3 83 82 98 
3 95 94 110 
3 103 102 118 
3 111 96 110 
3 119 104 118 
3 97 96 112 
3 98 97 113 
3 91 90 106 
3 99 98 114 
3 92 91 107 
3 115 100 114 
3 108 93 107 
3 116 101 115 
3 94 93 109 
3 102 101 117 
3 114 113 129 
3 107 106 122 
3 130 115 129 
3 108 107 123 
3 116 115 131 
3 109 108 124 
3 132 117 131 
3 110 109 125 
3 133 118 132 
3 126 111 125 
3 134 119 133 
3 112 111 127 
3 128 113 127 
3 106 105 121 
3 133 132 148 
3 141 126 140 
3 149 134 148 
3 127 126 142 
3 128 127 143 
3 136 121 135 
3 129 128 144 
3 122 121 137 
3 145 130 144 
3 123 122 138 
3 131 130 146 
3 139 124 138 
3 147 132 146 
3 125 124 140 
3 152 137 151 
3 160 145 159 
3 138 137 153 
3 146 145 161 
3 139 138 154 
3 147 146 162 
3 140 139 155 
3 163 148 162 
3 156 141 155 
3 149 148 164 
3 142 141 157 
3 143 142 158 
3 136 135 151 
3 144 143 159 
3 171 156 170 
3 164 163 179 
3 157 156 172 
3 173 158 172 
3 151 150 166 
3 159 158 174 
3 152 151 167 
3 175 160 174 
3 153 152 168 
3 161 160 176 
3 169 154 168 
3 177 162 176 
3 155 154 170 
3 163 162 178 
3 175 174 190 
3 168 167 183 
3 176 175 191 
3 169 168 184 
3 192 177 191 
3 170 169 185 
3 178 177 193 
3 186 171 185 
3 194 179 193 
3 172 171 187 
3 173 172 188 
3 166 165 181 
3 174 173 189 
3 167 166 182 
3 209 194 208 
3 187 186 202 
3 203 188 202 
3 181 180 196 
3 189 188 204 
3 182 181 197 
3 205 190 204 
3 198 183 197 
3 191 190 206 
3 199 184 198 
3 207 192 206 
3 185 184 200 
3 193 192 208 
3 201 186 200 
3 206 205 221 
3 199 198 214 
3 222 207 221 
3 200 199 215 
3 208 207 223 
3 216 201 215 
3 209 208 224 
3 202 201 217 
3 203 202 218 
3 196 195 211 
3 204 203 219 
3 212 197 211 
3 220 205 219 
3 198 197 213 
3 218 217 233 
3 211 210 226 
3 219 218 234 
3 212 211 227 
3 235 220 234 
3 213 212 228 
3 221 220 236 
3 214 213 229 
3 222 221 237 
3 215 214 230 
3 223 222 238 
3 231 216 230 
3 239 224 238 
3 217 216 232 
3 229 228 244 
3 252 237 251 
3 230 229 245 
3 238 237 253 
3 246 231 245 
3 254 239 253 
3 232 231 247 
3 233 232 248 
3 226 225 241 
3 234 233 249 
3 242 227 241 
3 250 235 249 
3 243 228 242 
3 236 235 251 
3 248 247 263 
3 241 240 256 
3 249 248 264 
3 242 241 257 
3 265 250 264 
3 258 243 257 
3 251 250 266 
3 259 244 258 
3 252 251 267 
3 245 244 260 
3 253 252 268 
3 261 246 260 
3 254 253 269 
3 247 246 262 
3 267 266 282 
3 260 259 275 
3 283 268 282 
3 276 261 275 
3 284 269 283 
3 262 261 277 
3 278 263 277 
3 256 255 271 
3 264 263 279 
3 257 256 272 
3 280 265 279 
3 273 258 272 
3 266 265 281 
3 274 259 273 
3 271 270 286 
3 279 278 294 
3 272 271 287 
3 295 280 294 
3 273 272 288 
3 281 280 296 
3 289 274 288 
3 297 282 296 
3 275 274 290 
3 283 282 298 
3 291 276 290 
3 299 284 298 
3 277 276 292 
3 278 277 293 
3 290 289 305 
3 298 297 313 
3 306 291 305 
3 299 298 314 
3 307 292 306 
3 293 292 308 
3 286 285 301 
3 294 293 309 
3 287 286 302 
3 310 295 309 
3 303 288 302 
3 296 295 311 
3 304 289 303 
3 297 296 312 
3 309 308 324 
3 302 301 317 
3 325 310 324 
3 318 303 317 
3 311 310 326 
3 319 304 318 
3 312 311 327 
3 305 304 320 
3 328 313 327 
3 321 306 320 
3 314 313 329 
3 307 306 322 
3 308 307 323 
3 301 300 316 
3 344 328 343 
3 337 321 336 
3 345 329 344 
3 322 321 338 
3 323 322 339 
3 316 315 332 
3 324 323 340 
3 317 316 333 
3 341 325 340 
3 334 318 333 
3 342 326 341 
3 335 319 334 
3 327 326 343 
3 320 319 336 
3 356 341 355 
3 349 334 348 
3 342 341 357 
3 350 335 349 
3 343 342 358 
3 336 335 351 
3 359 344 358 
3 352 337 351 
3 345 344 360 
3 338 337 353 
3 339 338 354 
3 347 332 346 
3 340 339 355 
3 333 332 348 
3 360 359 375 
3 353 352 368 
3 369 354 368 
3 362 347 361 
3 355 354 370 
3 348 347 363 
3 371 356 370 
3 364 349 363 
3 357 356 372 
3 350 349 365 
3 373 358 372 
3 351 350 366 
3 374 359 373 
3 367 352 366 
3 379 364 378 
3 372 371 387 
3 380 365 379 
3 373 372 388 
3 366 365 381 
3 389 374 388 
3 382 367 381 
3 375 374 390 
3 368 367 383 
3 384 369 383 
3 377 362 376 
3 370 369 385 
3 363 362 378 
3 386 371 385 
3 383 382 398 
3 384 383 399 
3 377 376 392 
3 385 384 400 
3 378 377 393 
3 401 386 400 
3 394 379 393 
3 387 386 402 
3 380 379 395 
3 388 387 403 
3 381 380 396 
3 404 389 403 
3 397 382 396 
3 390 389 405 
3 402 401 417 
3 410 395 409 
3 403 402 418 
3 396 395 411 
3 419 404 418 
3 412 397 411 
3 405 404 420 
3 398 397 413 
3 414 399 413 
3 392 391 407 
3 400 399 415 
3 408 393 407 
3 416 401 415 
3 409 394 408 
3 429 414 428 
3 407 406 422 
3 415 414 430 
3 408 407 423 
3 431 416 430 
3 409 408 424 
3 417 416 432 
3 425 410 424 
3 418 417 433 
3 411 410 426 
3 419 418 434 
3 427 412 426 
3 420 419 435 
3 413 412 428 
3 440 425 439 
3 448 433 447 
3 426 425 441 
3 434 433 449 
3 442 427 441 
3 435 434 450 
3 443 428 442 
3 429 428 444 
3 422 421 437 
3 430 429 445 
3 423 422 438 
3 446 431 445 
3 424 423 439 
3 432 431 447 
3 444 443 460 
3 453 437 452 
3 445 444 461 
3 454 438 453 
3 462 446 461 
3 455 439 454 
3 447 446 463 
3 456 440 455 
3 448 447 464 
3 441 440 457 
3 449 448 465 
3 458 442 457 
3 450 449 466 
3 443 442 459 
3 464 463 479 
3 457 456 472 
3 465 464 480 
3 473 458 472 
3 481 466 480 
3 459 458 474 
3 460 459 475 
3 453 452 468 
3 461 460 476 
3 454 453 469 
3 477 462 476 
3 455 454 470 
3 463 462 478 
3 471 456 470 
3 476 475 9 
3 2 469 1 
3 477 476 10 
3 3 470 2 
3 478 477 11 
3 4 471 3 
3 479 478 12 
3 5 472 4 
3 480 479 13 
3 6 473 5 
3 481 480 14 
3 7 474 6 
3 475 474 8 
3 1 468 0 
