ply
format ascii 1.0
comment VCGLIB generated
comment TextureFile MainTexture.png
element vertex 90
property float x
property float y
property float z
property float nx
property float ny
property float nz
property float texture_u
property float texture_v
element face 88
property list uchar int vertex_indices
end_header
-0.4073809 0.1976452 0.166658 -0.5773503 -0.5773503 0.5773503 0.5570003 0.9345313
-0.4073809 0.2327179 0.166658 -0.5773502 0.5773502 0.5773504 0.5572503 0.9345313
-0.4073809 0.2327179 -0.166658 -0.5773503 0.5773503 -0.5773503 0.5572503 0.9347813
-0.4073809 0.1976452 -0.166658 -0.5773502 -0.5773502 -0.5773504 0.5570003 0.9347813
0.4073809 0.2327179 -0.166658 0.5773502 0.5773502 -0.5773504 0.5572503 0.9350313
0.4073809 0.1976452 -0.166658 0.5773503 -0.5773503 -0.5773503 0.5570003 0.9350313
0.4073809 0.2327179 0.166658 0.5773503 0.5773503 0.5773503 0.5572503 0.9352813
0.4073809 0.1976452 0.166658 0.5773502 -0.5773502 0.5773504 0.5570003 0.9352813
-0.4073809 0.5657595 -0.202804 -0.57735 0.6884545 0.438973 0.5570003 0.9345313
-0.4073809 0.5581818 -0.2370483 -0.5773503 0.4389731 -0.6884543 0.5572503 0.9345313
-0.4073809 0.2644478 -0.1720499 -0.5773501 -0.6884543 -0.4389733 0.5572503 0.9347813
-0.4073809 0.2720255 -0.1378056 -0.5773503 -0.4389735 0.6884542 0.5570003 0.9347813
0.4073809 0.2644478 -0.1720499 0.5773502 -0.6884543 -0.4389731 0.5572503 0.9350313
0.4073809 0.2720255 -0.1378056 0.5773502 -0.4389733 0.6884543 0.5570003 0.9350313
0.4073809 0.5581818 -0.2370483 0.5773503 0.438973 -0.6884544 0.5572503 0.9352813
0.4073809 0.5657595 -0.202804 0.5773501 0.6884545 0.4389728 0.5570003 0.9352813
-0.4070249 -0.0002287505 -0.1637979 -0.5841601 -0.6084062 0.537214 0.5570003 0.9345313
-0.4070249 0.2509689 -0.1324566 -0.669936 0.03775974 0.741458 0.5572503 0.9345313
-0.4070249 0.2509689 -0.1688502 -0.7484781 -0.03372861 -0.6623013 0.5572503 0.9347813
-0.4070249 -0.0002287505 -0.2001916 -0.5711023 -0.5433299 -0.6153331 0.5570003 0.9347813
-0.3706312 0.2509689 -0.1688502 0.7484779 -0.03372859 -0.6623015 0.5572503 0.9350313
-0.3706312 -0.0002287505 -0.2001916 0.5711027 -0.5433299 -0.6153327 0.5570003 0.9350313
-0.3706312 0.2509689 -0.1324566 0.6699364 0.03775977 0.7414578 0.5572503 0.9352813
-0.3706312 -0.0002287505 -0.1637979 0.5841597 -0.6084063 0.5372143 0.5570003 0.9352813
-0.4070249 0.2819065 -0.1759601 -0.5663926 0.5133594 -0.6447182 0.5572503 0.9347813
-0.3706312 0.2819065 -0.1759601 0.5663927 0.5133594 -0.6447182 0.5572503 0.9350313
-0.4070249 0.2819065 -0.1395664 -0.5901682 0.6315324 0.5028602 0.5575003 0.9352813
-0.3706312 0.2819065 -0.1395664 0.5901682 0.6315324 0.5028602 0.5572503 0.9352813
0.370959 -0.0002287505 -0.1637979 -0.5841601 -0.6084062 0.537214 0.5570003 0.9345313
0.370959 0.2509689 -0.1324566 -0.669936 0.03775974 0.741458 0.5572503 0.9345313
0.370959 0.2509689 -0.1688502 -0.7484781 -0.03372861 -0.6623013 0.5572503 0.9347813
0.370959 -0.0002287505 -0.2001916 -0.5711023 -0.5433299 -0.6153331 0.5570003 0.9347813
0.4073527 0.2509689 -0.1688502 0.7484779 -0.03372859 -0.6623015 0.5572503 0.9350313
0.4073527 -0.0002287505 -0.2001916 0.5711027 -0.5433299 -0.6153327 0.5570003 0.9350313
0.4073527 0.2509689 -0.1324566 0.6699364 0.03775977 0.7414578 0.5572503 0.9352813
0.4073527 -0.0002287505 -0.1637979 0.5841597 -0.6084063 0.5372143 0.5570003 0.9352813
0.370959 0.2819065 -0.1759601 -0.5663926 0.5133594 -0.6447182 0.5572503 0.9347813
0.4073527 0.2819065 -0.1759601 0.5663927 0.5133594 -0.6447182 0.5572503 0.9350313
0.370959 0.2819065 -0.1395664 -0.5901682 0.6315324 0.5028602 0.5575003 0.9352813
0.4073527 0.2819065 -0.1395664 0.5901682 0.6315324 0.5028602 0.5572503 0.9352813
-0.4070249 -1.207693e-05 0.2102026 -0.5666801 -0.5153105 0.6429065 0.5570003 0.9345313
-0.4070249 0.2024795 0.1650391 -0.589776 0.6301323 0.5050718 0.5572503 0.9345313
-0.4070249 0.2024795 0.1286455 -0.5666801 0.5153105 -0.6429065 0.5572503 0.9347813
-0.4070249 -1.207693e-05 0.1738089 -0.589776 -0.6301323 -0.5050718 0.5570003 0.9347813
-0.3706312 0.2024795 0.1286455 0.5666798 0.5153104 -0.6429069 0.5572503 0.9350313
-0.3706312 -1.207693e-05 0.1738089 0.5897763 -0.6301323 -0.5050716 0.5570003 0.9350313
-0.3706312 0.2024795 0.1650391 0.5897763 0.6301323 0.5050716 0.5572503 0.9352813
-0.3706312 -1.207693e-05 0.2102026 0.5666798 -0.5153104 0.6429069 0.5570003 0.9352813
0.370959 -1.207693e-05 0.2102026 -0.5666801 -0.5153105 0.6429065 0.5570003 0.9345313
0.370959 0.2024795 0.1650391 -0.589776 0.6301323 0.5050718 0.5572503 0.9345313
0.370959 0.2024795 0.1286455 -0.5666801 0.5153105 -0.6429065 0.5572503 0.9347813
0.370959 -1.207693e-05 0.1738089 -0.589776 -0.6301323 -0.5050718 0.5570003 0.9347813
0.4073527 0.2024795 0.1286455 0.5666798 0.5153104 -0.6429069 0.5572503 0.9350313
0.4073527 -1.207693e-05 0.1738089 0.5897763 -0.6301323 -0.5050716 0.5570003 0.9350313
0.4073527 0.2024795 0.1650391 0.5897763 0.6301323 0.5050716 0.5572503 0.9352813
0.4073527 -1.207693e-05 0.2102026 0.5666798 -0.5153104 0.6429069 0.5570003 0.9352813
-0.4073809 0.2327179 0.166658 -0.5773502 0.5773502 0.5773504 0.5572503 0.9355313
-0.4073809 0.1976452 0.166658 -0.5773503 -0.5773503 0.5773503 0.5570003 0.9355313
-0.4073809 0.1976452 -0.166658 -0.5773502 -0.5773502 -0.5773504 0.5567503 0.9350313
-0.4073809 0.1976452 0.166658 -0.5773503 -0.5773503 0.5773503 0.5567503 0.9352813
-0.4073809 0.2327179 -0.166658 -0.5773503 0.5773503 -0.5773503 0.5575003 0.9350313
-0.4073809 0.2327179 0.166658 -0.5773502 0.5773502 0.5773504 0.5575003 0.9352813
-0.4073809 0.5581818 -0.2370483 -0.5773503 0.4389731 -0.6884543 0.5572503 0.9355313
-0.4073809 0.5657595 -0.202804 -0.57735 0.6884545 0.438973 0.5570003 0.9355313
-0.4073809 0.2720255 -0.1378056 -0.5773503 -0.4389735 0.6884542 0.5567503 0.9350313
-0.4073809 0.5657595 -0.202804 -0.57735 0.6884545 0.438973 0.5567503 0.9352813
-0.4073809 0.2644478 -0.1720499 -0.5773501 -0.6884543 -0.4389733 0.5575003 0.9350313
-0.4073809 0.5581818 -0.2370483 -0.5773503 0.4389731 -0.6884543 0.5575003 0.9352813
-0.4070249 0.2509689 -0.1324566 -0.669936 0.03775974 0.741458 0.5572503 0.9355313
-0.4070249 -0.0002287505 -0.1637979 -0.5841601 -0.6084062 0.537214 0.5570003 0.9355313
-0.4070249 -0.0002287505 -0.2001916 -0.5711023 -0.5433299 -0.6153331 0.5567503 0.9350313
-0.4070249 -0.0002287505 -0.1637979 -0.5841601 -0.6084062 0.537214 0.5567503 0.9352813
-0.4070249 0.2819065 -0.1759601 -0.5663926 0.5133594 -0.6447182 0.5575003 0.9350313
-0.4070249 0.2819065 -0.1395664 -0.5901682 0.6315324 0.5028602 0.5572503 0.9345313
-0.4070249 0.2819065 -0.1395664 -0.5901682 0.6315324 0.5028602 0.5572503 0.9355313
0.370959 0.2509689 -0.1324566 -0.669936 0.03775974 0.741458 0.5572503 0.9355313
0.370959 -0.0002287505 -0.1637979 -0.5841601 -0.6084062 0.537214 0.5570003 0.9355313
0.370959 -0.0002287505 -0.2001916 -0.5711023 -0.5433299 -0.6153331 0.5567503 0.9350313
0.370959 -0.0002287505 -0.1637979 -0.5841601 -0.6084062 0.537214 0.5567503 0.9352813
0.370959 0.2819065 -0.1759601 -0.5663926 0.5133594 -0.6447182 0.5575003 0.9350313
0.370959 0.2819065 -0.1395664 -0.5901682 0.6315324 0.5028602 0.5572503 0.9345313
0.370959 0.2819065 -0.1395664 -0.5901682 0.6315324 0.5028602 0.5572503 0.9355313
-0.4070249 0.2024795 0.1650391 -0.589776 0.6301323 0.5050718 0.5572503 0.9355313
-0.4070249 -1.207693e-05 0.2102026 -0.5666801 -0.5153105 0.6429065 0.5570003 0.9355313
-0.4070249 -1.207693e-05 0.1738089 -0.589776 -0.6301323 -0.5050718 0.5567503 0.9350313
-0.4070249 -1.207693e-05 0.2102026 -0.5666801 -0.5153105 0.6429065 0.5567503 0.9352813
0.370959 0.2024795 0.1650391 -0.589776 0.6301323 0.5050718 0.5572503 0.9355313
0.370959 -1.207693e-05 0.2102026 -0.5666801 -0.5153105 0.6429065 0.5570003 0.9355313
0.370959 -1.207693e-05 0.1738089 -0.589776 -0.6301323 -0.5050718 0.5567503 0.9350313
0.370959 -1.207693e-05 0.2102026 -0.5666801 -0.5153105 0.6429065 0.5567503 0.9352813
3 0 1 2 
3 0 2 3 
3 3 2 4 
3 3 4 5 
3 5 4 6 
3 5 6 7 
3 7 6 56 
3 7 56 57 
3 58 5 7 
3 58 7 59 
3 4 60 61 
3 4 61 6 
3 8 9 10 
3 8 10 11 
3 11 10 12 
3 11 12 13 
3 13 12 14 
3 13 14 15 
3 15 14 62 
3 15 62 63 
3 64 13 15 
3 64 15 65 
3 12 66 67 
3 12 67 14 
3 16 17 18 
3 16 18 19 
3 19 18 20 
3 19 20 21 
3 21 20 22 
3 21 22 23 
3 23 22 68 
3 23 68 69 
3 70 21 23 
3 70 23 71 
3 20 18 24 
3 20 24 25 
3 25 72 26 
3 25 26 27 
3 22 20 25 
3 22 25 27 
3 18 17 73 
3 18 73 24 
3 68 22 27 
3 68 27 74 
3 28 29 30 
3 28 30 31 
3 31 30 32 
3 31 32 33 
3 33 32 34 
3 33 34 35 
3 35 34 75 
3 35 75 76 
3 77 33 35 
3 77 35 78 
3 32 30 36 
3 32 36 37 
3 37 79 38 
3 37 38 39 
3 34 32 37 
3 34 37 39 
3 30 29 80 
3 30 80 36 
3 75 34 39 
3 75 39 81 
3 40 41 42 
3 40 42 43 
3 43 42 44 
3 43 44 45 
3 45 44 46 
3 45 46 47 
3 47 46 82 
3 47 82 83 
3 84 45 47 
3 84 47 85 
3 48 49 50 
3 48 50 51 
3 51 50 52 
3 51 52 53 
3 53 52 54 
3 53 54 55 
3 55 54 86 
3 55 86 87 
3 88 53 55 
3 88 55 89 
3 82 46 44 
3 82 44 42 
3 86 54 52 
3 86 52 50 
