ply
format ascii 1.0
comment VCGLIB generated
comment TextureFile MainTexture.png
element vertex 410
property float x
property float y
property float z
property float nx
property float ny
property float nz
property float texture_u
property float texture_v
element face 792
property list uchar int vertex_indices
end_header
5.960464e-08 1.790446 0.6476316 2.453687e-07 2.726319e-07 1 0.438026 0.9468986
1.192093e-07 1.976304 0.8334894 4.907359e-07 -1 3.271573e-07 0.437926 0.9467986
-0.009999886 1.990446 0.8334894 -0.816497 -0.5773498 5.403352e-08 0.437926 0.9467986
-0.009999946 1.790446 0.6334894 -0.9733286 -0.2294156 -2.776884e-06 0.438026 0.9468986
0.01000006 1.790446 0.6334894 0.9733285 -0.2294156 -2.87216e-06 0.438026 0.9468986
0.01000012 1.990446 0.8334894 0.8164967 -0.5773501 -2.420251e-07 0.437926 0.9467986
5.960464e-08 1.790446 1.019347 -8.178904e-08 -8.178904e-08 -1 0.438026 0.9466985
-0.009999946 1.790446 1.033489 -0.8164946 3.061901e-07 -0.577353 0.438026 0.9466985
0.01000006 1.790446 1.033489 0.8164946 -3.636007e-07 -0.577353 0.438026 0.9466985
5.960464e-08 1.604588 0.8334894 -2.453679e-07 1 3.544204e-07 0.438126 0.9467986
-0.009999946 1.590446 0.8334894 -0.9733289 4.723562e-07 -0.229414 0.438126 0.9467986
0.01000006 1.590446 0.8334894 0.9733289 -1.708713e-07 -0.2294141 0.438126 0.9467986
1.490116e-08 0.7904458 0.4476316 -2.726319e-08 2.181056e-07 1 0.438526 0.9469986
1.490116e-08 0.9763036 0.6334894 -6.270536e-07 -1 0 0.438426 0.9468986
-0.009999976 0.9904459 0.6334894 -1 2.244512e-06 -2.117672e-06 0.438426 0.9468986
-0.00999999 0.7904458 0.4334893 -1 2.18385e-06 -2.525767e-06 0.438526 0.9469986
0.01000002 0.7904458 0.4334893 1 1.990489e-06 -2.173166e-06 0.438526 0.9469986
0.01000002 0.9904459 0.6334894 1 2.402373e-06 -2.341711e-06 0.438426 0.9468986
1.490116e-08 0.7904458 0.8193471 -2.453687e-07 4.089478e-07 -1 0.438526 0.9467986
-0.00999999 0.7904458 0.8334894 -0.973329 2.769725e-06 -0.2294138 0.438526 0.9467986
0.01000002 0.7904458 0.8334894 0.9733291 2.36044e-06 -0.2294136 0.438526 0.9467986
0 0.604588 0.6334894 -5.452621e-08 1 2.726311e-08 0.438626 0.9468986
-0.01000001 0.5904459 0.6334894 -1 1.102955e-08 -2.161791e-06 0.438626 0.9468986
0.01000001 0.5904459 0.6334894 1 2.829769e-07 -2.397893e-06 0.438626 0.9468986
1.490116e-08 0.9904459 0.6476316 -8.17896e-07 -5.45264e-07 1 0.438426 0.9468986
2.980232e-08 1.176304 0.8334894 -8.17893e-08 -1 7.633668e-07 0.438326 0.9467986
-0.009999976 1.190446 0.8334894 -0.973329 1.502952e-07 -0.2294139 0.438326 0.9467986
0.01000004 1.190446 0.8334894 0.973329 8.856681e-08 -0.2294139 0.438326 0.9467986
1.490116e-08 0.9904459 1.019347 -1.635801e-07 -2.181067e-07 -1 0.438426 0.9466985
-0.009999678 0.9904459 1.033489 -0.816503 9.005603e-08 -0.5773413 0.438426 0.9466985
0.009999707 0.9904459 1.033489 0.8165027 -5.065652e-08 -0.5773416 0.438426 0.9466985
1.490116e-08 0.8045878 0.8334894 7.088384e-07 1 2.726302e-07 0.438526 0.9467986
0 0.3904457 0.4476316 -1.635791e-07 2.453687e-07 1 0.438726 0.9469986
0 0.5763037 0.6334894 0 -1 -2.726311e-08 0.438626 0.9468986
-0.01000001 0.3904457 0.4334893 -1 -2.051495e-06 -2.575398e-06 0.438726 0.9469986
0.01000001 0.3904457 0.4334893 1 -2.381347e-06 -2.108022e-06 0.438726 0.9469986
0 0.3904457 0.8193471 1.635791e-07 2.453687e-07 -1 0.438726 0.9467986
-0.01000001 0.3904457 0.8334894 -0.9733288 -2.555016e-06 -0.2294145 0.438726 0.9467986
0.01000001 0.3904457 0.8334894 0.9733289 -3.089102e-06 -0.2294141 0.438726 0.9467986
0 0.2045879 0.6334894 0 1 2.726319e-08 0.438826 0.9468986
-0.01000001 0.1904457 0.6334894 -0.9733289 0.229414 -2.884236e-06 0.438826 0.9468986
0.01000001 0.1904457 0.6334894 0.9733289 0.2294141 -2.754964e-06 0.438826 0.9468986
0 0.5904459 0.6476316 -4.634743e-07 -8.724222e-07 1 0.438626 0.9468986
1.490116e-08 0.7763035 0.8334894 0 -1 5.452637e-08 0.438526 0.9467986
0 0.5904459 1.019347 -2.18104e-07 -4.907341e-07 -1 0.438626 0.9466985
-0.01000001 0.5904459 1.033489 -0.8164946 -3.24201e-07 -0.5773531 0.438626 0.9466985
0.01000001 0.5904459 1.033489 0.8164946 5.9662e-08 -0.5773531 0.438626 0.9466985
0 0.404588 0.8334894 8.178957e-08 1 8.178957e-08 0.438726 0.9467986
0 0.1904457 0.6476316 1.908423e-07 6.815798e-07 1 0.438826 0.9468986
0 0.3763037 0.8334894 -1.09052e-07 -1 8.178903e-08 0.438726 0.9467986
0 0.1904457 1.019347 1.63578e-07 4.634711e-07 -1 0.438826 0.9466985
-0.01000001 0.1904457 1.033489 -0.8164945 -1.801117e-07 -0.5773534 0.438826 0.9466985
0.01000001 0.1904457 1.033489 0.8164946 2.87053e-07 -0.5773531 0.438826 0.9466985
0 0.004587889 0.8334894 -2.453671e-07 1 3.544192e-07 0.438926 0.9467986
-0.01000001 -0.009554148 0.8334894 -0.8164945 0.5773534 -3.422119e-07 0.438926 0.9467986
0.01000001 -0.009554148 0.8334894 0.8164947 0.5773529 1.11444e-07 0.438926 0.9467986
5.960464e-08 1.590446 0.4476316 -5.72527e-07 -7.361061e-07 1 0.438126 0.9469986
5.960464e-08 1.776304 0.6334894 0 -1 2.726311e-08 0.438026 0.9468986
-0.009999946 1.590446 0.4334893 -1 2.757388e-07 -2.426501e-06 0.438126 0.9469986
0.01000006 1.590446 0.4334893 1 3.929276e-08 -2.59539e-06 0.438126 0.9469986
5.960464e-08 1.590446 0.8193471 6.815797e-07 -6.815797e-07 -1 0.438126 0.9467986
2.980232e-08 1.404588 0.6334894 -8.178932e-08 1 -5.452621e-08 0.438226 0.9468986
-0.009999976 1.390446 0.6334894 -1 -2.757386e-08 -2.189365e-06 0.438226 0.9468986
0.01000004 1.390446 0.6334894 1 1.654432e-08 -2.18385e-06 0.438226 0.9468986
5.960464e-08 1.790446 0.2476315 2.7263e-07 2.45367e-07 1 0.438026 0.9470986
1.192093e-07 1.976304 0.4334893 3.544204e-07 -1 6.543145e-07 0.437926 0.9469986
-0.009999886 1.990446 0.4334893 -0.8164968 -0.57735 -1.440895e-07 0.437926 0.9469986
-0.009999946 1.790446 0.2334895 -0.9733286 -0.2294156 3.034533e-06 0.438026 0.9470986
0.01000006 1.790446 0.2334895 0.9733285 -0.2294158 2.889158e-06 0.438026 0.9470986
0.01000012 1.990446 0.4334893 0.8164967 -0.5773501 -1.15947e-07 0.437926 0.9469986
5.960464e-08 1.790446 0.6193473 -8.178904e-08 -8.178904e-08 -1 0.438026 0.9468986
5.960464e-08 1.604588 0.4334893 -1.635786e-07 1 7.088407e-07 0.438126 0.9469986
0 0.5904459 0.2476315 -4.362082e-07 -8.178905e-07 1 0.438626 0.9470986
1.490116e-08 0.7763035 0.4334893 -4.362111e-07 -1 1.635791e-07 0.438526 0.9469986
-0.01000001 0.5904459 0.2334895 -1 -1.599284e-07 2.487162e-06 0.438626 0.9470986
0.01000001 0.5904459 0.2334895 1 2.664325e-07 2.05253e-06 0.438626 0.9470986
0 0.5904459 0.6193473 -2.18104e-07 -4.907341e-07 -1 0.438626 0.9468986
0 0.404588 0.4334893 5.452639e-07 1 1.090528e-07 0.438726 0.9469986
0 0.1904457 0.2476315 8.178904e-08 6.270493e-07 1 0.438826 0.9470986
0 0.3763037 0.4334893 -1.63578e-07 -1 4.089451e-07 0.438726 0.9469986
-0.01000001 0.1904457 0.2334895 -0.9733289 0.2294141 2.848451e-06 0.438826 0.9470986
0.01000001 0.1904457 0.2334895 0.9733289 0.2294141 3.063606e-06 0.438826 0.9470986
0 0.1904457 0.6193473 1.63578e-07 4.634711e-07 -1 0.438826 0.9468986
0 0.004587889 0.4334893 -8.178904e-08 1 6.270493e-07 0.438926 0.9469986
-0.01000001 -0.009554148 0.4334893 -0.8164944 0.5773534 -2.34145e-07 0.438926 0.9469986
0.01000001 -0.009554148 0.4334893 0.8164946 0.5773531 2.45402e-07 0.438926 0.9469986
5.960464e-08 1.590446 0.0476315 6.815752e-07 -6.270491e-07 1 0.438126 0.9471986
5.960464e-08 1.776304 0.2334895 -1.635786e-07 -1 -7.088407e-07 0.438026 0.9470986
-0.009999946 1.590446 0.03348947 -1 1.378695e-07 2.48165e-07 0.438126 0.9471986
0.01000006 1.590446 0.03348947 1 9.375126e-08 3.929281e-08 0.438126 0.9471986
5.960464e-08 1.590446 0.4193473 1.90841e-07 -1.117783e-06 -1 0.438126 0.9469986
2.980232e-08 1.404588 0.2334895 -7.361129e-07 1 -1.090538e-07 0.438226 0.9470986
-0.009999663 1.390446 0.2334895 -1 2.236911e-07 2.485419e-06 0.438226 0.9470986
0.009999722 1.390446 0.2334895 1 -2.150744e-07 2.514716e-06 0.438226 0.9470986
5.960464e-08 1.790446 -0.1523683 2.453687e-07 2.726319e-07 1 0.438026 0.9472986
1.192093e-07 1.976304 0.03348947 2.72631e-07 -1 -2.72631e-08 0.437926 0.9471986
-0.009999886 1.990446 0.03348947 -0.816497 -0.5773498 5.403352e-08 0.437926 0.9471986
-0.009999946 1.790446 -0.1665106 -0.9733286 -0.2294154 -2.64806e-06 0.438026 0.9472986
0.01000006 1.790446 -0.1665106 0.9733286 -0.2294156 -2.98533e-06 0.438026 0.9472986
0.01000012 1.990446 0.03348947 0.816497 -0.5773498 -7.54218e-08 0.437926 0.9471986
5.960464e-08 1.790446 0.2193472 -8.178954e-08 0 -1 0.438026 0.9470986
5.960464e-08 1.604588 0.03348947 0 1 -2.726311e-08 0.438126 0.9471986
1.490116e-08 0.7904458 0.0476315 3.271563e-07 4.089453e-07 1 0.438526 0.9471986
1.490116e-08 0.9763036 0.2334895 -7.633696e-07 -1 -7.088432e-07 0.438426 0.9470986
-0.009999976 0.9904459 0.2334895 -1 2.506119e-06 2.345846e-06 0.438426 0.9470986
-0.00999999 0.7904458 0.03348947 -1 2.073557e-06 -1.323547e-07 0.438526 0.9471986
0.01000002 0.7904458 0.03348947 1 2.017375e-06 1.137423e-07 0.438526 0.9471986
0.01000002 0.9904459 0.2334895 1 2.371352e-06 2.134217e-06 0.438426 0.9470986
1.490116e-08 0.7904458 0.4193473 -2.45367e-07 3.81682e-07 -1 0.438526 0.9469986
0 0.604588 0.2334895 8.17893e-08 1 -6.815775e-07 0.438626 0.9470986
2.980232e-08 1.190446 0.0476315 -5.179971e-07 4.907341e-07 1 0.438326 0.9471986
2.980232e-08 1.376304 0.2334895 5.725323e-07 -1 -1.090538e-07 0.438226 0.9470986
-0.009999976 1.190446 0.03348947 -1 2.205911e-08 2.48165e-07 0.438326 0.9471986
0.01000004 1.190446 0.03348947 1 -6.893472e-09 1.030574e-07 0.438326 0.9471986
2.980232e-08 1.190446 0.4193473 1.363151e-07 7.633643e-07 -1 0.438326 0.9469986
-0.009999976 1.190446 0.4334893 -1 1.654432e-07 -2.487163e-06 0.438326 0.9469986
0.01000004 1.190446 0.4334893 1 -1.223591e-07 -2.595046e-06 0.438326 0.9469986
1.490116e-08 1.004588 0.2334895 -1.335888e-06 1 -1.635781e-07 0.438426 0.9470986
0 0.3904457 0.0476315 -1.908411e-07 2.181041e-07 1 0.438726 0.9471986
0 0.5763037 0.2334895 1.908417e-07 -1 -3.816834e-07 0.438626 0.9470986
-0.01000001 0.3904457 0.03348947 -1 -2.360325e-06 -1.378694e-07 0.438726 0.9471986
0.01000001 0.3904457 0.03348947 1 -2.358257e-06 1.46831e-07 0.438726 0.9471986
0 0.3904457 0.4193473 1.63578e-07 2.45367e-07 -1 0.438726 0.9469986
0 0.2045879 0.2334895 1.908424e-07 1 -6.543166e-07 0.438826 0.9470986
5.960464e-08 1.590446 -0.3523684 -5.997862e-07 -7.633642e-07 1 0.438126 0.9473985
5.960464e-08 1.776304 -0.1665106 1.635786e-07 -1 7.088407e-07 0.438026 0.9472986
-0.009999946 1.590446 -0.3665104 -1 2.977978e-07 2.294146e-06 0.438126 0.9473985
0.01000006 1.590446 -0.3665104 1 1.488989e-07 2.134906e-06 0.438126 0.9473985
5.960464e-08 1.590446 0.01934743 -1.09052e-07 -2.181041e-07 -1 0.438126 0.9471986
2.980232e-08 1.404588 -0.1665106 4.362096e-07 1 1.090524e-07 0.438226 0.9472986
-0.009999976 1.390446 -0.1665106 -1 6.617727e-08 -2.288631e-06 0.438226 0.9472986
0.01000004 1.390446 -0.1665106 1 -5.687109e-08 -2.303796e-06 0.438226 0.9472986
1.490116e-08 0.9904459 -0.1523683 -8.17896e-07 -5.45264e-07 1 0.438426 0.9472986
2.980232e-08 1.176304 0.03348947 5.45262e-08 -1 5.45262e-08 0.438326 0.9471986
-0.009999976 0.9904459 -0.1665106 -1 2.28863e-06 -2.216938e-06 0.438426 0.9472986
0.01000002 0.9904459 -0.1665106 1 2.241411e-06 -2.567127e-06 0.438426 0.9472986
1.490116e-08 0.9904459 0.2193472 -8.178958e-08 -6.815799e-07 -1 0.438426 0.9470986
1.490116e-08 0.8045878 0.03348947 2.998932e-07 1 -2.726302e-07 0.438526 0.9471986
2.980232e-08 1.390446 -0.1523683 -2.72632e-08 5.45264e-08 1 0.438226 0.9472986
5.960464e-08 1.576304 0.03348947 1.908418e-07 -1 7.633671e-07 0.438126 0.9471986
2.980232e-08 1.390446 0.2193472 -1.090542e-07 -5.452708e-08 -1 0.438226 0.9470986
2.980232e-08 1.204588 0.03348947 -8.178933e-08 1 8.178934e-07 0.438326 0.9471986
0 0.5904459 -0.1523683 -4.634743e-07 -8.724222e-07 1 0.438626 0.9472986
1.490116e-08 0.7763035 0.03348947 -5.452638e-08 -1 -1.635791e-07 0.438526 0.9471986
-0.01000001 0.5904459 -0.1665106 -1 7.169205e-08 -2.277601e-06 0.438626 0.9472986
0.01000001 0.5904459 -0.1665106 1 -8.823638e-08 -2.837351e-06 0.438626 0.9472986
0 0.5904459 0.2193472 6.543165e-07 -1.090528e-06 -1 0.438626 0.9470986
0 0.404588 0.03348947 0 1 -2.726319e-08 0.438726 0.9471986
0 0.1904457 -0.1523683 1.908423e-07 6.815798e-07 1 0.438826 0.9472986
0 0.3763037 0.03348947 0 -1 0 0.438726 0.9471986
-0.01000001 0.1904457 -0.1665106 -0.9733289 0.2294141 -3.077473e-06 0.438826 0.9472986
0.01000001 0.1904457 -0.1665106 0.9733289 0.2294141 -2.867238e-06 0.438826 0.9472986
0 0.1904457 0.2193472 -1.908423e-07 6.815798e-07 -1 0.438826 0.9470986
0 0.004587889 0.03348947 0 1 2.726301e-08 0.438926 0.9471986
-0.01000001 -0.009554148 0.03348947 -0.8164948 0.5773529 -1.080669e-07 0.438926 0.9471986
0.01000001 -0.009554148 0.03348947 0.8164947 0.5773529 1.11444e-07 0.438926 0.9471986
5.960464e-08 1.790446 -0.5523684 -2.726302e-07 6.543124e-07 1 0.438026 0.9474986
1.192093e-07 1.976304 -0.3665104 1.090538e-07 -1 -5.997956e-07 0.437926 0.9473985
-0.009999573 1.990446 -0.3665104 -0.816505 -0.5773384 -8.285168e-07 0.437926 0.9473985
-0.009999946 1.790446 -0.5665104 -0.9733286 -0.2294154 2.905709e-06 0.438026 0.9474986
0.01000006 1.790446 -0.5665104 0.9733286 -0.2294156 2.531313e-06 0.438026 0.9474986
0.009999812 1.990446 -0.3665104 0.8165052 -0.5773382 6.754204e-08 0.437926 0.9473985
5.960464e-08 1.790446 -0.1806526 5.4526e-08 6.27049e-07 -1 0.438026 0.9472986
5.960464e-08 1.604588 -0.3665104 1.635786e-07 1 -7.088407e-07 0.438126 0.9473985
1.490116e-08 0.7904458 -0.3523684 -5.452602e-08 1.908411e-07 1 0.438526 0.9473985
1.490116e-08 0.9763036 -0.1665106 -4.362112e-07 -1 6.8158e-07 0.438426 0.9472986
-0.00999999 0.7904458 -0.3665104 -1 2.051496e-06 2.128703e-06 0.438526 0.9473985
0.01000002 0.7904458 -0.3665104 1 2.033918e-06 2.380314e-06 0.438526 0.9473985
1.490116e-08 0.7904458 0.01934743 5.452603e-08 1.090521e-07 -1 0.438526 0.9471986
0 0.604588 -0.1665106 -2.453679e-07 1 6.815775e-07 0.438626 0.9472986
2.980232e-08 1.190446 -0.3523684 -8.178905e-08 1.635781e-07 1 0.438326 0.9473985
2.980232e-08 1.376304 -0.1665106 -6.270514e-07 -1 1.090524e-07 0.438226 0.9472986
-0.009999976 1.190446 -0.3665104 -1 -2.205909e-08 2.321719e-06 0.438326 0.9473985
0.01000004 1.190446 -0.3665104 1 -3.99821e-08 2.253819e-06 0.438326 0.9473985
2.980232e-08 1.190446 0.01934743 5.452601e-08 1.36315e-07 -1 0.438326 0.9471986
1.490116e-08 1.004588 -0.1665106 -1.090521e-07 1 2.181042e-07 0.438426 0.9472986
0 0.3904457 -0.3523684 -1.63578e-07 2.45367e-07 1 0.438726 0.9473985
0 0.5763037 -0.1665106 -1.908417e-07 -1 3.816834e-07 0.438626 0.9472986
-0.01000001 0.3904457 -0.3665104 -1 -2.398926e-06 2.128702e-06 0.438726 0.9473985
0.01000001 0.3904457 -0.3665104 1 -2.049427e-06 2.589874e-06 0.438726 0.9473985
0 0.3904457 0.01934743 1.908411e-07 2.181041e-07 -1 0.438726 0.9471986
0 0.2045879 -0.1665106 -1.908423e-07 1 6.815798e-07 0.438826 0.9472986
5.960464e-08 1.590446 -0.7523685 2.998931e-07 -1.908411e-07 1 0.438126 0.9475986
5.960464e-08 1.776304 -0.5665104 -2.453679e-07 -1 -3.544204e-07 0.438026 0.9474986
-0.009999946 1.590446 -0.7665105 -0.9733283 1.860798e-07 0.2294169 0.438126 0.9475986
0.01000006 1.590446 -0.7665105 0.9733283 1.243515e-07 0.2294169 0.438126 0.9475986
5.960464e-08 1.590446 -0.3806527 6.815797e-07 -6.815797e-07 -1 0.438126 0.9473985
2.980232e-08 1.404588 -0.5665104 -1.908417e-07 1 -1.090524e-07 0.438226 0.9474986
-0.009999976 1.390446 -0.5665104 -1 -8.823637e-08 2.272086e-06 0.438226 0.9474986
0.01000004 1.390446 -0.5665104 1 -2.757387e-08 2.117673e-06 0.438226 0.9474986
1.490116e-08 0.9904459 -0.5523684 -5.997863e-07 -2.998932e-07 1 0.438426 0.9474986
2.980232e-08 1.176304 -0.3665104 -1.090524e-07 -1 -6.270513e-07 0.438326 0.9473985
-0.009999976 0.9904459 -0.5665104 -1 2.283116e-06 2.200394e-06 0.438426 0.9474986
0.01000002 0.9904459 -0.5665104 1 2.463035e-06 2.042534e-06 0.438426 0.9474986
1.490116e-08 0.9904459 -0.1806526 -1.090521e-07 -6.543124e-07 -1 0.438426 0.9472986
1.490116e-08 0.8045878 -0.3665104 -5.452602e-08 1 -5.725232e-07 0.438526 0.9473985
2.980232e-08 1.390446 -0.5523684 -1.635781e-07 -5.452602e-08 1 0.438226 0.9474986
5.960464e-08 1.576304 -0.3665104 7.088407e-07 -1 -1.090524e-07 0.438126 0.9473985
2.980232e-08 1.390446 -0.1806526 -5.452604e-08 8.178905e-08 -1 0.438226 0.9472986
2.980232e-08 1.204588 -0.3665104 -6.270514e-07 1 -1.090524e-07 0.438326 0.9473985
0 0.5904459 -0.5523684 1.363151e-07 -4.089451e-07 1 0.438626 0.9474986
1.490116e-08 0.7763035 -0.3665104 -2.453687e-07 -1 -7.906324e-07 0.438526 0.9473985
-0.01000001 0.5904459 -0.5665104 -1 -2.702238e-07 2.420985e-06 0.438626 0.9474986
0.01000001 0.5904459 -0.5665104 1 3.712133e-07 1.986353e-06 0.438626 0.9474986
0 0.5904459 -0.1806526 7.088382e-07 -1.035994e-06 -1 0.438626 0.9472986
0 0.404588 -0.3665104 -5.452639e-07 1 -1.090528e-07 0.438726 0.9473985
0 0.1904457 -0.5523684 -1.63578e-07 4.634711e-07 1 0.438826 0.9474986
0 0.3763037 -0.3665104 1.63578e-07 -1 -4.634711e-07 0.438726 0.9473985
-0.01000001 0.1904457 -0.5665104 -0.9733289 0.2294141 2.762569e-06 0.438826 0.9474986
0.01000001 0.1904457 -0.5665104 0.9733289 0.2294142 2.977723e-06 0.438826 0.9474986
0 0.1904457 -0.1806526 -8.178904e-08 6.270493e-07 -1 0.438826 0.9472986
0 0.004587889 -0.3665104 8.178903e-08 1 -6.270492e-07 0.438926 0.9473985
-0.01000001 -0.009554148 -0.3665104 -0.8164946 0.5773531 -2.521562e-07 0.438926 0.9473985
0.01000001 -0.009554148 -0.3665104 0.8164944 0.5773534 2.42025e-07 0.438926 0.9473985
5.960464e-08 1.790446 -0.9523683 2.453687e-07 2.726319e-07 1 0.438026 0.9476986
1.192093e-07 1.976304 -0.7665105 2.72631e-07 -1 -2.72631e-08 0.437926 0.9475986
-0.009999886 1.990446 -0.7665105 -0.816497 -0.5773498 5.403352e-08 0.437926 0.9475986
-0.009999946 1.790446 -0.9665105 -0.8164992 -2.375228e-07 0.5773467 0.438026 0.9476986
0.01000006 1.790446 -0.9665105 0.8164991 2.701681e-07 0.5773467 0.438026 0.9476986
0.01000012 1.990446 -0.7665105 0.816497 -0.5773498 -7.54218e-08 0.437926 0.9475986
5.960464e-08 1.790446 -0.5806527 -8.178954e-08 0 -1 0.438026 0.9474986
5.960464e-08 1.604588 -0.7665105 0 1 -2.726311e-08 0.438126 0.9475986
1.490116e-08 0.7904458 -0.7523685 3.271563e-07 4.089453e-07 1 0.438526 0.9475986
1.490116e-08 0.9763036 -0.5665104 -8.724225e-07 -1 -3.816848e-07 0.438426 0.9474986
-0.00999999 0.7904458 -0.7665105 -0.9733283 2.698158e-06 0.2294168 0.438526 0.9475986
0.01000002 0.7904458 -0.7665105 0.9733283 2.692343e-06 0.229417 0.438526 0.9475986
1.490116e-08 0.7904458 -0.3806527 -2.453687e-07 4.089478e-07 -1 0.438526 0.9473985
0 0.604588 -0.5665104 1.908417e-07 1 -3.544204e-07 0.438626 0.9474986
2.980232e-08 1.190446 -0.7523685 -2.726301e-08 1.09052e-07 1 0.438326 0.9475986
2.980232e-08 1.376304 -0.5665104 1.363155e-07 -1 -5.45262e-08 0.438226 0.9474986
-0.009999976 1.190446 -0.7665105 -0.9733282 3.578458e-08 0.2294171 0.438326 0.9475986
0.01000004 1.190446 -0.7665105 0.9733283 -1.83396e-07 0.229417 0.438326 0.9475986
2.980232e-08 1.190446 -0.3806527 -2.726319e-07 3.816847e-07 -1 0.438326 0.9473985
1.490116e-08 1.004588 -0.5665104 -8.451535e-07 1 -5.452603e-08 0.438426 0.9474986
0 0.3904457 -0.7523685 -1.908411e-07 2.181041e-07 1 0.438726 0.9475986
0 0.5763037 -0.5665104 1.090524e-07 -1 -8.17893e-08 0.438626 0.9474986
-0.01000001 0.3904457 -0.7665105 -0.9733283 -2.590804e-06 0.2294169 0.438726 0.9475986
0.01000001 0.3904457 -0.7665105 0.9733283 -3.108786e-06 0.2294169 0.438726 0.9475986
0 0.3904457 -0.3806527 1.635791e-07 2.453687e-07 -1 0.438726 0.9473985
0 0.2045879 -0.5665104 2.72632e-07 1 -3.271583e-07 0.438826 0.9474986
1.490116e-08 0.9904459 -0.9523683 -8.17896e-07 -5.45264e-07 1 0.438426 0.9476986
2.980232e-08 1.176304 -0.7665105 5.45262e-08 -1 5.45262e-08 0.438326 0.9475986
-0.009999976 0.9904459 -0.9665105 -0.8164993 -2.285171e-07 0.5773464 0.438426 0.9476986
0.01000002 0.9904459 -0.9665105 0.8164991 2.881793e-07 0.5773467 0.438426 0.9476986
1.490116e-08 0.9904459 -0.5806527 -8.178958e-08 -6.815799e-07 -1 0.438426 0.9474986
1.490116e-08 0.8045878 -0.7665105 2.998932e-07 1 -2.726302e-07 0.438526 0.9475986
2.980232e-08 1.390446 -0.9523683 -2.72632e-08 5.45264e-08 1 0.438226 0.9476986
5.960464e-08 1.576304 -0.7665105 8.178932e-08 -1 -5.452621e-08 0.438126 0.9475986
-0.009999976 1.390446 -0.9665105 -0.8164991 1.260783e-07 0.5773468 0.438226 0.9476986
0.01000004 1.390446 -0.9665105 0.8164991 -1.440895e-07 0.5773468 0.438226 0.9476986
2.980232e-08 1.390446 -0.5806527 -8.17896e-08 -2.72632e-08 -1 0.438226 0.9474986
2.980232e-08 1.204588 -0.7665105 0 1 0 0.438326 0.9475986
0 0.5904459 -0.9523683 -4.634743e-07 -8.724222e-07 1 0.438626 0.9476986
1.490116e-08 0.7763035 -0.7665105 -5.452638e-08 -1 -1.635791e-07 0.438526 0.9475986
-0.01000001 0.5904459 -0.9665105 -0.8164991 -1.238269e-08 0.5773467 0.438626 0.9476986
0.01000001 0.5904459 -0.9665105 0.8164991 4.682916e-07 0.5773467 0.438626 0.9476986
0 0.5904459 -0.5806527 6.543165e-07 -1.090528e-06 -1 0.438626 0.9474986
0 0.404588 -0.7665105 0 1 -2.726319e-08 0.438726 0.9475986
0 0.1904457 -0.9523683 1.908447e-07 6.270612e-07 1 0.438826 0.9476986
0 0.3763037 -0.7665105 1.090521e-07 -1 -6.543124e-07 0.438726 0.9475986
-0.009999692 0.1904457 -0.9665105 -0.8165074 -1.711067e-07 0.5773349 0.438826 0.9476986
0.009999692 0.1904457 -0.9665105 0.8165072 1.981235e-07 0.5773353 0.438826 0.9476986
0 0.1904457 -0.5806527 -1.908423e-07 6.815798e-07 -1 0.438826 0.9474986
0 0.004587889 -0.7665105 -4.634711e-07 1 -3.816821e-07 0.438926 0.9475986
-0.01000001 -0.009554148 -0.7665105 -0.8164947 0.5773529 -7.924909e-07 0.438926 0.9475986
0.01000001 -0.009554148 -0.7665105 0.8164949 0.5773526 -4.908042e-07 0.438926 0.9475986
2.980232e-08 1.190446 0.4476316 0 1.635792e-07 1 0.438326 0.9469986
2.980232e-08 1.376304 0.6334894 0 -1 0 0.438226 0.9468986
2.980232e-08 1.190446 0.8193471 -2.726319e-07 3.816847e-07 -1 0.438326 0.9467986
1.490116e-08 1.004588 0.6334894 -6.815756e-07 1 2.726302e-08 0.438426 0.9468986
2.980232e-08 1.390446 0.6476316 -2.72632e-08 5.45264e-08 1 0.438226 0.9468986
5.960464e-08 1.576304 0.8334894 -5.452619e-08 -1 2.72631e-08 0.438126 0.9467986
2.980232e-08 1.390446 1.019347 -2.726301e-08 -8.178903e-08 -1 0.438226 0.9466985
-0.009999976 1.390446 1.033489 -0.8164946 -1.981228e-07 -0.5773532 0.438226 0.9466985
0.01000004 1.390446 1.033489 0.8164945 1.621005e-07 -0.5773532 0.438226 0.9466985
2.980232e-08 1.204588 0.8334894 1.363155e-07 1 5.45262e-08 0.438326 0.9467986
2.980232e-08 1.390446 0.2476315 0 -2.726335e-08 1 0.438226 0.9470986
5.960464e-08 1.576304 0.4334893 0 -1 -3.544203e-07 0.438126 0.9469986
2.980232e-08 1.390446 0.6193473 -2.726301e-08 -8.178903e-08 -1 0.438226 0.9468986
2.980232e-08 1.204588 0.4334893 1.635786e-07 1 -3.271572e-07 0.438326 0.9469986
1.490116e-08 0.9904459 0.2476315 -7.633645e-07 -4.907344e-07 1 0.438426 0.9470986
2.980232e-08 1.176304 0.4334893 2.453679e-07 -1 7.088407e-07 0.438326 0.9469986
1.490116e-08 0.9904459 0.6193473 -7.633644e-07 -2.181041e-07 -1 0.438426 0.9468986
1.490116e-08 0.8045878 0.4334893 1.63578e-07 1 4.362081e-07 0.438526 0.9469986
-0.004999846 -0.009554386 0.9854653 1.338493e-07 -0.6532283 -0.757161 0.438926 0.9471986
-0.004999846 2.056815 0.9854653 -0.0477965 0.008193376 -0.9988235 0.438926 0.9476986
0.0154767 2.056815 0.9909518 0.4557948 -0.1597555 -0.8756308 0.4388427 0.9476986
0.0154767 -0.009554386 0.9909518 0.3785786 -0.6532259 -0.6557241 0.4388427 0.9471986
0.03046657 2.056815 1.005942 0.8199133 -0.2772229 -0.5008888 0.4387593 0.9476986
0.03046657 -0.009554386 1.005942 0.6557227 -0.6532263 -0.3785806 0.4387593 0.9471986
0.03595325 2.056815 1.026418 0.9487834 -0.3159273 -5.770839e-06 0.438676 0.9476986
0.03595325 -0.009554386 1.026418 0.7571624 -0.6532268 2.238267e-06 0.438676 0.9471986
0.03046657 2.056815 1.046895 0.8199159 -0.2772242 0.5008839 0.4385926 0.9476986
0.03046657 -0.009554386 1.046895 0.655723 -0.6532283 0.3785765 0.4385926 0.9471986
0.0154767 2.056815 1.061885 0.4557949 -0.1597553 0.8756308 0.4385093 0.9476986
0.0154767 -0.009554386 1.061885 0.3785845 -0.6532244 0.6557223 0.4385093 0.9471986
-0.004999831 2.056815 1.067372 -0.04779614 0.008192995 0.9988235 0.438426 0.9476986
-0.004999831 -0.009554386 1.067372 7.436073e-09 -0.6532282 0.7571611 0.438426 0.9471986
-0.02547638 2.056815 1.061885 -0.5251941 0.1521484 0.8372706 0.4383427 0.9476986
-0.02547638 -0.009554386 1.061885 -0.3785785 -0.653226 0.6557242 0.4383427 0.9471986
-0.04046626 2.056815 1.046895 -0.8510736 0.2336601 0.4701879 0.4382593 0.9476986
-0.04046626 -0.009554386 1.046895 -0.6557226 -0.6532263 0.3785807 0.4382593 0.9471986
-0.04595295 2.056815 1.026418 -0.9659506 0.2587266 -5.442315e-06 0.438176 0.9476986
-0.04595295 -0.009554386 1.026418 -0.757162 -0.6532272 -5.948873e-08 0.438176 0.9471986
-0.04046626 2.056815 1.005942 -0.8510712 0.2336596 -0.4701925 0.4380926 0.9476986
-0.04046626 -0.009554386 1.005942 -0.6557227 -0.6532264 -0.3785805 0.4380926 0.9471986
-0.02547641 2.056815 0.9909518 -0.5251943 0.1521482 -0.8372705 0.4380093 0.9476986
-0.02547641 -0.009554386 0.9909518 -0.3785787 -0.6532258 -0.6557242 0.4380093 0.9471986
-0.004999846 -0.009554386 -1.048417 1.338493e-07 -0.6532283 -0.757161 0.438926 0.9471986
-0.004999846 2.056815 -1.048417 -0.04779632 0.008192553 -0.9988235 0.438926 0.9476986
0.0154767 2.056815 -1.04293 0.4557946 -0.1597557 -0.8756309 0.4388427 0.9476986
0.0154767 -0.009554386 -1.04293 0.3785786 -0.6532259 -0.6557241 0.4388427 0.9471986
0.03046657 2.056815 -1.027941 0.8199146 -0.2772238 -0.5008863 0.4387593 0.9476986
0.03046657 -0.009554386 -1.027941 0.6557227 -0.6532263 -0.3785805 0.4387593 0.9471986
0.03595325 2.056815 -1.007464 0.9487834 -0.3159274 2.882977e-06 0.438676 0.9476986
0.03595325 -0.009554386 -1.007464 0.7571625 -0.6532267 2.268011e-06 0.438676 0.9471986
0.03046657 2.056815 -0.9869874 0.8199178 -0.2772239 0.500881 0.4385926 0.9476986
0.03046657 -0.009554386 -0.9869874 0.655723 -0.6532283 0.3785764 0.4385926 0.9471986
0.0154767 2.056815 -0.971997 0.4558008 -0.1597572 0.8756274 0.4385093 0.9476986
0.0154767 -0.009554386 -0.971997 0.3785845 -0.6532244 0.6557223 0.4385093 0.9471986
-0.004999831 2.056815 -0.9665105 -0.04779631 0.008193275 0.9988235 0.438426 0.9476986
-0.004999831 -0.009554386 -0.9665105 7.436073e-09 -0.6532282 0.7571611 0.438426 0.9471986
-0.02547638 2.056815 -0.971997 -0.525194 0.1521482 0.8372707 0.4383427 0.9476986
-0.02547638 -0.009554386 -0.971997 -0.3785785 -0.653226 0.6557242 0.4383427 0.9471986
-0.04046626 2.056815 -0.9869869 -0.8510723 0.2336598 0.4701904 0.4382593 0.9476986
-0.04046626 -0.009554386 -0.9869869 -0.6557226 -0.6532263 0.3785807 0.4382593 0.9471986
-0.04595295 2.056815 -1.007464 -0.9659506 0.2587266 3.18264e-08 0.438176 0.9476986
-0.04595295 -0.009554386 -1.007464 -0.757162 -0.6532273 -5.948874e-08 0.438176 0.9471986
-0.04046626 2.056815 -1.027941 -0.8510725 0.23366 -0.47019 0.4380926 0.9476986
-0.04046626 -0.009554386 -1.027941 -0.6557227 -0.6532264 -0.3785805 0.4380926 0.9471986
0.2309209 2.335286 1.026418 0.9117503 0.410745 -3.618567e-06 0.438676 0.9476986
0.2237074 2.335286 1.05334 0.7983083 0.4321398 0.4194747 0.4385926 0.9476986
-0.02547641 2.056815 -1.04293 -0.5251946 0.1521481 -0.8372703 0.4380093 0.9476986
-0.02547641 -0.009554386 -1.04293 -0.3785787 -0.6532258 -0.6557242 0.4380093 0.9471986
0.2039997 2.335286 0.9797895 0.4874292 0.4995156 -0.7161682 0.438296 0.9471564
0.1770785 2.335286 0.9725759 0.07397016 0.6118858 -0.7874796 0.438176 0.9471886
0.1501573 2.335286 0.9797895 -0.2870012 0.7339848 -0.6155459 0.438056 0.9471564
0.1304497 2.335286 0.9994967 -0.4888231 0.812611 -0.3173569 0.4379681 0.9470686
0.1232361 2.335286 1.026418 -0.5473948 0.8368746 -2.698141e-06 0.437936 0.9469485
0.1304497 2.335286 1.05334 -0.4888249 0.8126103 0.317356 0.4379681 0.9468286
0.1501573 2.335286 1.073047 -0.2870011 0.7339851 0.6155455 0.438056 0.9467407
0.1770785 2.335286 1.080261 0.07397038 0.611886 0.7874796 0.438176 0.9467086
0.2039997 2.335286 1.073047 0.4874283 0.4995164 0.7161683 0.438296 0.9467407
0.2237074 2.335286 0.9994967 0.7983062 0.4321407 -0.4194779 0.4383838 0.9470686
0.2039997 2.335286 -1.054093 0.487434 0.4995117 -0.7161677 0.438296 0.9471564
0.1770785 2.335286 -1.061306 0.0739645 0.6118912 -0.787476 0.438176 0.9471886
0.1501573 2.335286 -1.054093 -0.2869995 0.7339795 -0.6155529 0.438056 0.9471564
0.1304497 2.335286 -1.034385 -0.4888247 0.8126135 -0.3173479 0.4379681 0.9470686
0.1232361 2.335286 -1.007464 -0.5473951 0.8368743 2.870365e-08 0.437936 0.9469485
0.1304497 2.335286 -0.9805422 -0.4888241 0.8126123 0.3173521 0.4379681 0.9468286
0.1501573 2.335286 -0.9608345 -0.2869983 0.733981 0.6155517 0.438056 0.9467407
0.1770785 2.335286 -0.9536214 0.07396541 0.6118907 0.7874763 0.438176 0.9467086
0.2039997 2.335286 -0.9608345 0.4874395 0.4995096 0.7161655 0.438296 0.9467407
0.2237074 2.335286 -0.9805429 0.798309 0.4321429 0.4194703 0.4383838 0.9468286
0.2309209 2.335286 -1.007464 0.9117507 0.410744 2.913971e-06 0.438416 0.9469485
0.2237074 2.335286 -1.034385 0.7983096 0.4321419 -0.4194701 0.4383838 0.9470686
-0.004999846 2.056815 0.9854653 -0.0477965 0.008193376 -0.9988235 0.437926 0.9476986
-0.004999846 -0.009554386 0.9854653 1.338493e-07 -0.6532283 -0.757161 0.437926 0.9471986
-0.004999846 -0.009554386 0.9854653 1.338493e-07 -0.6532283 -0.757161 0.438676 0.9471886
0.0154767 -0.009554386 0.9909518 0.3785786 -0.6532259 -0.6557241 0.438796 0.9471564
0.03046657 -0.009554386 1.005942 0.6557227 -0.6532263 -0.3785806 0.4388838 0.9470686
0.03595325 -0.009554386 1.026418 0.7571624 -0.6532268 2.238267e-06 0.438916 0.9469485
0.03046657 -0.009554386 1.046895 0.655723 -0.6532283 0.3785765 0.4388838 0.9468286
0.0154767 -0.009554386 1.061885 0.3785845 -0.6532244 0.6557223 0.438796 0.9467407
-0.004999831 -0.009554386 1.067372 7.436073e-09 -0.6532282 0.7571611 0.438676 0.9467086
-0.02547638 -0.009554386 1.061885 -0.3785785 -0.653226 0.6557242 0.438556 0.9467407
-0.04046626 -0.009554386 1.046895 -0.6557226 -0.6532263 0.3785807 0.4384681 0.9468286
-0.04595295 -0.009554386 1.026418 -0.757162 -0.6532272 -5.948873e-08 0.438436 0.9469485
-0.04046626 -0.009554386 1.005942 -0.6557227 -0.6532264 -0.3785805 0.4384681 0.9470686
-0.02547641 -0.009554386 0.9909518 -0.3785787 -0.6532258 -0.6557242 0.438556 0.9471564
-0.004999846 2.056815 -1.048417 -0.04779632 0.008192553 -0.9988235 0.437926 0.9476986
-0.004999846 -0.009554386 -1.048417 1.338493e-07 -0.6532283 -0.757161 0.437926 0.9471986
-0.004999846 -0.009554386 -1.048417 1.338493e-07 -0.6532283 -0.757161 0.438676 0.9471886
0.0154767 -0.009554386 -1.04293 0.3785786 -0.6532259 -0.6557241 0.438796 0.9471564
0.03046657 -0.009554386 -1.027941 0.6557227 -0.6532263 -0.3785805 0.4388838 0.9470686
0.03595325 -0.009554386 -1.007464 0.7571625 -0.6532267 2.268011e-06 0.438916 0.9469485
0.03046657 -0.009554386 -0.9869874 0.655723 -0.6532283 0.3785764 0.4388838 0.9468286
0.0154767 -0.009554386 -0.971997 0.3785845 -0.6532244 0.6557223 0.438796 0.9467407
-0.004999831 -0.009554386 -0.9665105 7.436073e-09 -0.6532282 0.7571611 0.438676 0.9467086
-0.02547638 -0.009554386 -0.971997 -0.3785785 -0.653226 0.6557242 0.438556 0.9467407
-0.04046626 -0.009554386 -0.9869869 -0.6557226 -0.6532263 0.3785807 0.4384681 0.9468286
-0.04595295 -0.009554386 -1.007464 -0.757162 -0.6532273 -5.948874e-08 0.438436 0.9469485
-0.04046626 -0.009554386 -1.027941 -0.6557227 -0.6532264 -0.3785805 0.4384681 0.9470686
-0.02547641 -0.009554386 -1.04293 -0.3785787 -0.6532258 -0.6557242 0.438556 0.9471564
0.2237074 2.335286 1.05334 0.7983083 0.4321398 0.4194747 0.4383838 0.9468286
0.2309209 2.335286 1.026418 0.9117503 0.410745 -3.618567e-06 0.438416 0.9469485
0.2039997 2.335286 -0.9608345 0.4874395 0.4995096 0.7161655 0.4385093 0.9476986
0.1770785 2.335286 -0.9536214 0.07396541 0.6118907 0.7874763 0.438426 0.9476986
0.2039997 2.335286 1.073047 0.4874283 0.4995164 0.7161683 0.4385093 0.9476986
0.1501573 2.335286 -0.9608345 -0.2869983 0.733981 0.6155517 0.4383427 0.9476986
0.1770785 2.335286 1.080261 0.07397038 0.611886 0.7874796 0.438426 0.9476986
0.1304497 2.335286 -0.9805422 -0.4888241 0.8126123 0.3173521 0.4382593 0.9476986
0.1501573 2.335286 1.073047 -0.2870011 0.7339851 0.6155455 0.4383427 0.9476986
0.1232361 2.335286 -1.007464 -0.5473951 0.8368743 2.870365e-08 0.438176 0.9476986
0.1770785 2.335286 -1.061306 0.0739645 0.6118912 -0.787476 0.438926 0.9476986
0.2039997 2.335286 -1.054093 0.487434 0.4995117 -0.7161677 0.4388427 0.9476986
0.1304497 2.335286 1.05334 -0.4888249 0.8126103 0.317356 0.4382593 0.9476986
0.1304497 2.335286 -1.034385 -0.4888247 0.8126135 -0.3173479 0.4380926 0.9476986
0.2237074 2.335286 -1.034385 0.7983096 0.4321419 -0.4194701 0.4387593 0.9476986
0.1232361 2.335286 1.026418 -0.5473948 0.8368746 -2.698141e-06 0.438176 0.9476986
0.1501573 2.335286 -1.054093 -0.2869995 0.7339795 -0.6155529 0.4380093 0.9476986
0.1770785 2.335286 0.9725759 0.07397016 0.6118858 -0.7874796 0.438926 0.9476986
0.2039997 2.335286 0.9797895 0.4874292 0.4995156 -0.7161682 0.4388427 0.9476986
0.2309209 2.335286 -1.007464 0.9117507 0.410744 2.913971e-06 0.438676 0.9476986
0.1304497 2.335286 0.9994967 -0.4888231 0.812611 -0.3173569 0.4380926 0.9476986
0.1770785 2.335286 -1.061306 0.0739645 0.6118912 -0.787476 0.437926 0.9476986
0.2237074 2.335286 0.9994967 0.7983062 0.4321407 -0.4194779 0.4387593 0.9476986
0.2237074 2.335286 -0.9805429 0.798309 0.4321429 0.4194703 0.4385926 0.9476986
0.1501573 2.335286 0.9797895 -0.2870012 0.7339848 -0.6155459 0.4380093 0.9476986
0.1770785 2.335286 0.9725759 0.07397016 0.6118858 -0.7874796 0.437926 0.9476986
3 0 1 2 
3 0 2 3 
3 1 0 4 
3 1 4 5 
3 1 6 7 
3 1 7 2 
3 6 1 5 
3 6 5 8 
3 6 9 10 
3 6 10 7 
3 9 6 8 
3 9 8 11 
3 9 0 3 
3 9 3 10 
3 0 9 11 
3 0 11 4 
3 12 13 14 
3 12 14 15 
3 13 12 16 
3 13 16 17 
3 13 18 19 
3 13 19 14 
3 18 13 17 
3 18 17 20 
3 18 21 22 
3 18 22 19 
3 21 18 20 
3 21 20 23 
3 21 12 15 
3 21 15 22 
3 12 21 23 
3 12 23 16 
3 24 25 26 
3 24 26 14 
3 25 24 17 
3 25 17 27 
3 25 28 29 
3 25 29 26 
3 28 25 27 
3 28 27 30 
3 28 31 19 
3 28 19 29 
3 31 28 30 
3 31 30 20 
3 31 24 14 
3 31 14 19 
3 24 31 20 
3 24 20 17 
3 32 33 22 
3 32 22 34 
3 33 32 35 
3 33 35 23 
3 33 36 37 
3 33 37 22 
3 36 33 23 
3 36 23 38 
3 36 39 40 
3 36 40 37 
3 39 36 38 
3 39 38 41 
3 39 32 34 
3 39 34 40 
3 32 39 41 
3 32 41 35 
3 42 43 19 
3 42 19 22 
3 43 42 23 
3 43 23 20 
3 43 44 45 
3 43 45 19 
3 44 43 20 
3 44 20 46 
3 44 47 37 
3 44 37 45 
3 47 44 46 
3 47 46 38 
3 47 42 22 
3 47 22 37 
3 42 47 38 
3 42 38 23 
3 48 49 37 
3 48 37 40 
3 49 48 41 
3 49 41 38 
3 49 50 51 
3 49 51 37 
3 50 49 38 
3 50 38 52 
3 50 53 54 
3 50 54 51 
3 53 50 52 
3 53 52 55 
3 53 48 40 
3 53 40 54 
3 48 53 55 
3 48 55 41 
3 56 57 3 
3 56 3 58 
3 57 56 59 
3 57 59 4 
3 57 60 10 
3 57 10 3 
3 60 57 4 
3 60 4 11 
3 60 61 62 
3 60 62 10 
3 61 60 11 
3 61 11 63 
3 61 56 58 
3 61 58 62 
3 56 61 63 
3 56 63 59 
3 64 65 66 
3 64 66 67 
3 65 64 68 
3 65 68 69 
3 65 70 3 
3 65 3 66 
3 70 65 69 
3 70 69 4 
3 70 71 58 
3 70 58 3 
3 71 70 4 
3 71 4 59 
3 71 64 67 
3 71 67 58 
3 64 71 59 
3 64 59 68 
3 72 73 15 
3 72 15 74 
3 73 72 75 
3 73 75 16 
3 73 76 22 
3 73 22 15 
3 76 73 16 
3 76 16 23 
3 76 77 34 
3 76 34 22 
3 77 76 23 
3 77 23 35 
3 77 72 74 
3 77 74 34 
3 72 77 35 
3 72 35 75 
3 78 79 34 
3 78 34 80 
3 79 78 81 
3 79 81 35 
3 79 82 40 
3 79 40 34 
3 82 79 35 
3 82 35 41 
3 82 83 84 
3 82 84 40 
3 83 82 41 
3 83 41 85 
3 83 78 80 
3 83 80 84 
3 78 83 85 
3 78 85 81 
3 86 87 67 
3 86 67 88 
3 87 86 89 
3 87 89 68 
3 87 90 58 
3 87 58 67 
3 90 87 68 
3 90 68 59 
3 90 91 92 
3 90 92 58 
3 91 90 59 
3 91 59 93 
3 91 86 88 
3 91 88 92 
3 86 91 93 
3 86 93 89 
3 94 95 96 
3 94 96 97 
3 95 94 98 
3 95 98 99 
3 95 100 67 
3 95 67 96 
3 100 95 99 
3 100 99 68 
3 100 101 88 
3 100 88 67 
3 101 100 68 
3 101 68 89 
3 101 94 97 
3 101 97 88 
3 94 101 89 
3 94 89 98 
3 102 103 104 
3 102 104 105 
3 103 102 106 
3 103 106 107 
3 103 108 15 
3 103 15 104 
3 108 103 107 
3 108 107 16 
3 108 109 74 
3 108 74 15 
3 109 108 16 
3 109 16 75 
3 109 102 105 
3 109 105 74 
3 102 109 75 
3 102 75 106 
3 110 111 92 
3 110 92 112 
3 111 110 113 
3 111 113 93 
3 111 114 115 
3 111 115 92 
3 114 111 93 
3 114 93 116 
3 114 117 104 
3 114 104 115 
3 117 114 116 
3 117 116 107 
3 117 110 112 
3 117 112 104 
3 110 117 107 
3 110 107 113 
3 118 119 74 
3 118 74 120 
3 119 118 121 
3 119 121 75 
3 119 122 34 
3 119 34 74 
3 122 119 75 
3 122 75 35 
3 122 123 80 
3 122 80 34 
3 123 122 35 
3 123 35 81 
3 123 118 120 
3 123 120 80 
3 118 123 81 
3 118 81 121 
3 124 125 97 
3 124 97 126 
3 125 124 127 
3 125 127 98 
3 125 128 88 
3 125 88 97 
3 128 125 98 
3 128 98 89 
3 128 129 130 
3 128 130 88 
3 129 128 89 
3 129 89 131 
3 129 124 126 
3 129 126 130 
3 124 129 131 
3 124 131 127 
3 132 133 112 
3 132 112 134 
3 133 132 135 
3 133 135 113 
3 133 136 104 
3 133 104 112 
3 136 133 113 
3 136 113 107 
3 136 137 105 
3 136 105 104 
3 137 136 107 
3 137 107 106 
3 137 132 134 
3 137 134 105 
3 132 137 106 
3 132 106 135 
3 138 139 88 
3 138 88 130 
3 139 138 131 
3 139 131 89 
3 139 140 92 
3 139 92 88 
3 140 139 89 
3 140 89 93 
3 140 141 112 
3 140 112 92 
3 141 140 93 
3 141 93 113 
3 141 138 130 
3 141 130 112 
3 138 141 113 
3 138 113 131 
3 142 143 105 
3 142 105 144 
3 143 142 145 
3 143 145 106 
3 143 146 74 
3 143 74 105 
3 146 143 106 
3 146 106 75 
3 146 147 120 
3 146 120 74 
3 147 146 75 
3 147 75 121 
3 147 142 144 
3 147 144 120 
3 142 147 121 
3 142 121 145 
3 148 149 120 
3 148 120 150 
3 149 148 151 
3 149 151 121 
3 149 152 80 
3 149 80 120 
3 152 149 121 
3 152 121 81 
3 152 153 154 
3 152 154 80 
3 153 152 81 
3 153 81 155 
3 153 148 150 
3 153 150 154 
3 148 153 155 
3 148 155 151 
3 156 157 158 
3 156 158 159 
3 157 156 160 
3 157 160 161 
3 157 162 97 
3 157 97 158 
3 162 157 161 
3 162 161 98 
3 162 163 126 
3 162 126 97 
3 163 162 98 
3 163 98 127 
3 163 156 159 
3 163 159 126 
3 156 163 127 
3 156 127 160 
3 164 165 134 
3 164 134 166 
3 165 164 167 
3 165 167 135 
3 165 168 105 
3 165 105 134 
3 168 165 135 
3 168 135 106 
3 168 169 144 
3 168 144 105 
3 169 168 106 
3 169 106 145 
3 169 164 166 
3 169 166 144 
3 164 169 145 
3 164 145 167 
3 170 171 130 
3 170 130 172 
3 171 170 173 
3 171 173 131 
3 171 174 112 
3 171 112 130 
3 174 171 131 
3 174 131 113 
3 174 175 134 
3 174 134 112 
3 175 174 113 
3 175 113 135 
3 175 170 172 
3 175 172 134 
3 170 175 135 
3 170 135 173 
3 176 177 144 
3 176 144 178 
3 177 176 179 
3 177 179 145 
3 177 180 120 
3 177 120 144 
3 180 177 145 
3 180 145 121 
3 180 181 150 
3 180 150 120 
3 181 180 121 
3 181 121 151 
3 181 176 178 
3 181 178 150 
3 176 181 151 
3 176 151 179 
3 182 183 159 
3 182 159 184 
3 183 182 185 
3 183 185 160 
3 183 186 126 
3 183 126 159 
3 186 183 160 
3 186 160 127 
3 186 187 188 
3 186 188 126 
3 187 186 127 
3 187 127 189 
3 187 182 184 
3 187 184 188 
3 182 187 189 
3 182 189 185 
3 190 191 172 
3 190 172 192 
3 191 190 193 
3 191 193 173 
3 191 194 134 
3 191 134 172 
3 194 191 173 
3 194 173 135 
3 194 195 166 
3 194 166 134 
3 195 194 135 
3 195 135 167 
3 195 190 192 
3 195 192 166 
3 190 195 167 
3 190 167 193 
3 196 197 126 
3 196 126 188 
3 197 196 189 
3 197 189 127 
3 197 198 130 
3 197 130 126 
3 198 197 127 
3 198 127 131 
3 198 199 172 
3 198 172 130 
3 199 198 131 
3 199 131 173 
3 199 196 188 
3 199 188 172 
3 196 199 173 
3 196 173 189 
3 200 201 166 
3 200 166 202 
3 201 200 203 
3 201 203 167 
3 201 204 144 
3 201 144 166 
3 204 201 167 
3 204 167 145 
3 204 205 178 
3 204 178 144 
3 205 204 145 
3 205 145 179 
3 205 200 202 
3 205 202 178 
3 200 205 179 
3 200 179 203 
3 206 207 178 
3 206 178 208 
3 207 206 209 
3 207 209 179 
3 207 210 150 
3 207 150 178 
3 210 207 179 
3 210 179 151 
3 210 211 212 
3 210 212 150 
3 211 210 151 
3 211 151 213 
3 211 206 208 
3 211 208 212 
3 206 211 213 
3 206 213 209 
3 214 215 216 
3 214 216 217 
3 215 214 218 
3 215 218 219 
3 215 220 159 
3 215 159 216 
3 220 215 219 
3 220 219 160 
3 220 221 184 
3 220 184 159 
3 221 220 160 
3 221 160 185 
3 221 214 217 
3 221 217 184 
3 214 221 185 
3 214 185 218 
3 222 223 192 
3 222 192 224 
3 223 222 225 
3 223 225 193 
3 223 226 166 
3 223 166 192 
3 226 223 193 
3 226 193 167 
3 226 227 202 
3 226 202 166 
3 227 226 167 
3 227 167 203 
3 227 222 224 
3 227 224 202 
3 222 227 203 
3 222 203 225 
3 228 229 188 
3 228 188 230 
3 229 228 231 
3 229 231 189 
3 229 232 172 
3 229 172 188 
3 232 229 189 
3 232 189 173 
3 232 233 192 
3 232 192 172 
3 233 232 173 
3 233 173 193 
3 233 228 230 
3 233 230 192 
3 228 233 193 
3 228 193 231 
3 234 235 202 
3 234 202 236 
3 235 234 237 
3 235 237 203 
3 235 238 178 
3 235 178 202 
3 238 235 203 
3 238 203 179 
3 238 239 208 
3 238 208 178 
3 239 238 179 
3 239 179 209 
3 239 234 236 
3 239 236 208 
3 234 239 209 
3 234 209 237 
3 240 241 230 
3 240 230 242 
3 241 240 243 
3 241 243 231 
3 241 244 192 
3 241 192 230 
3 244 241 231 
3 244 231 193 
3 244 245 224 
3 244 224 192 
3 245 244 193 
3 245 193 225 
3 245 240 242 
3 245 242 224 
3 240 245 225 
3 240 225 243 
3 246 247 184 
3 246 184 248 
3 247 246 249 
3 247 249 185 
3 247 250 188 
3 247 188 184 
3 250 247 185 
3 250 185 189 
3 250 251 230 
3 250 230 188 
3 251 250 189 
3 251 189 231 
3 251 246 248 
3 251 248 230 
3 246 251 231 
3 246 231 249 
3 252 253 224 
3 252 224 254 
3 253 252 255 
3 253 255 225 
3 253 256 202 
3 253 202 224 
3 256 253 225 
3 256 225 203 
3 256 257 236 
3 256 236 202 
3 257 256 203 
3 257 203 237 
3 257 252 254 
3 257 254 236 
3 252 257 237 
3 252 237 255 
3 258 259 236 
3 258 236 260 
3 259 258 261 
3 259 261 237 
3 259 262 208 
3 259 208 236 
3 262 259 237 
3 262 237 209 
3 262 263 264 
3 262 264 208 
3 263 262 209 
3 263 209 265 
3 263 258 260 
3 263 260 264 
3 258 263 265 
3 258 265 261 
3 266 267 62 
3 266 62 115 
3 267 266 116 
3 267 116 63 
3 267 268 26 
3 267 26 62 
3 268 267 63 
3 268 63 27 
3 268 269 14 
3 268 14 26 
3 269 268 27 
3 269 27 17 
3 269 266 115 
3 269 115 14 
3 266 269 17 
3 266 17 116 
3 270 271 10 
3 270 10 62 
3 271 270 63 
3 271 63 11 
3 271 272 273 
3 271 273 10 
3 272 271 11 
3 272 11 274 
3 272 275 26 
3 272 26 273 
3 275 272 274 
3 275 274 27 
3 275 270 62 
3 275 62 26 
3 270 275 27 
3 270 27 63 
3 276 277 58 
3 276 58 92 
3 277 276 93 
3 277 93 59 
3 277 278 62 
3 277 62 58 
3 278 277 59 
3 278 59 63 
3 278 279 115 
3 278 115 62 
3 279 278 63 
3 279 63 116 
3 279 276 92 
3 279 92 115 
3 276 279 116 
3 276 116 93 
3 280 281 115 
3 280 115 104 
3 281 280 107 
3 281 107 116 
3 281 282 14 
3 281 14 115 
3 282 281 116 
3 282 116 17 
3 282 283 15 
3 282 15 14 
3 283 282 17 
3 283 17 16 
3 283 280 104 
3 283 104 15 
3 280 283 16 
3 280 16 107 
3 284 285 286 
3 284 286 287 
3 287 286 288 
3 287 288 289 
3 289 288 290 
3 289 290 291 
3 291 290 292 
3 291 292 293 
3 293 292 294 
3 293 294 295 
3 295 294 296 
3 295 296 297 
3 297 296 298 
3 297 298 299 
3 299 298 300 
3 299 300 301 
3 301 300 302 
3 301 302 303 
3 303 302 304 
3 303 304 305 
3 305 304 306 
3 305 306 307 
3 307 306 356 
3 307 356 357 
3 358 359 360 
3 358 360 361 
3 358 361 362 
3 358 362 363 
3 358 363 364 
3 358 364 365 
3 358 365 366 
3 358 366 367 
3 358 367 368 
3 358 368 369 
3 308 309 310 
3 308 310 311 
3 311 310 312 
3 311 312 313 
3 313 312 314 
3 313 314 315 
3 315 314 316 
3 315 316 317 
3 317 316 318 
3 317 318 319 
3 319 318 320 
3 319 320 321 
3 321 320 322 
3 321 322 323 
3 323 322 324 
3 323 324 325 
3 325 324 326 
3 325 326 327 
3 327 326 328 
3 327 328 329 
3 292 290 330 
3 292 330 331 
3 329 328 332 
3 329 332 333 
3 333 332 370 
3 333 370 371 
3 372 373 374 
3 372 374 375 
3 372 375 376 
3 372 376 377 
3 372 377 378 
3 372 378 379 
3 372 379 380 
3 372 380 381 
3 372 381 382 
3 372 382 383 
3 334 335 336 
3 334 336 337 
3 334 337 338 
3 334 338 339 
3 334 339 340 
3 334 340 341 
3 334 341 342 
3 334 342 384 
3 334 384 385 
3 334 385 343 
3 344 345 346 
3 344 346 347 
3 344 347 348 
3 344 348 349 
3 344 349 350 
3 344 350 351 
3 344 351 352 
3 344 352 353 
3 344 353 354 
3 344 354 355 
3 320 318 386 
3 320 386 387 
3 294 292 331 
3 294 331 388 
3 322 320 387 
3 322 387 389 
3 296 294 388 
3 296 388 390 
3 324 322 389 
3 324 389 391 
3 298 296 390 
3 298 390 392 
3 326 324 391 
3 326 391 393 
3 310 309 394 
3 310 394 395 
3 300 298 392 
3 300 392 396 
3 328 326 393 
3 328 393 397 
3 312 310 395 
3 312 395 398 
3 302 300 396 
3 302 396 399 
3 332 328 397 
3 332 397 400 
3 286 285 401 
3 286 401 402 
3 314 312 398 
3 314 398 403 
3 304 302 399 
3 304 399 404 
3 370 332 400 
3 370 400 405 
3 288 286 402 
3 288 402 406 
3 316 314 403 
3 316 403 407 
3 306 304 404 
3 306 404 408 
3 290 288 406 
3 290 406 330 
3 318 316 407 
3 318 407 386 
3 356 306 408 
3 356 408 409 
