ply
format ascii 1.0
comment VCGLIB generated
comment TextureFile dummy.png
element vertex 80
property float x
property float y
property float z
property float nx
property float ny
property float nz
property float texture_u
property float texture_v
element face 60
property list uchar int vertex_indices
end_header
2.40138 0.00414088 2.40138 0 -1 0 0.9424518 0.9208542
-2.40138 0.00414088 2.40138 0 -1 0 0.9423019 0.9208542
-2.40138 0.00414088 -2.40138 0 -1 0 0.9423019 0.9207042
2.40138 0.00414088 -2.40138 0 -1 0 0.9424518 0.9207042
-4.0023 0.00414088 2.40138 0 -1 0 0.9422519 0.9208542
-4.0023 0.00414088 -2.40138 0 -1 0 0.9422519 0.9207042
-4.0023 0.00414088 -4.0023 0 -1 0 0.9422519 0.9206542
-2.40138 0.00414088 -4.0023 0 -1 0 0.9423019 0.9206542
-2.40138 0.1045451 -4.0023 0 1 0 0.9429519 0.9206542
-2.40138 0.1045451 -2.40138 0 1 0 0.9429519 0.9207042
2.40138 0.1045451 -2.40138 0 1 0 0.9428018 0.9207042
2.40138 0.1045451 -4.0023 0 1 0 0.9428018 0.9206542
-4.0023 0.1045451 2.40138 -1 0 0 0.9427519 0.9202043
-4.0023 0.1045451 -2.40138 -1 0 0 0.9427519 0.9203542
-4.0023 0.00414088 4.0023 -1 0 0 0.1599391 0.9247404
-4.0023 0.1045451 4.0023 -1 0 0 0.160189 0.9247404
-2.40138 0.1045451 2.40138 0 1 0 0.9429519 0.9208542
2.40138 0.1045451 2.40138 0 1 0 0.9428018 0.9208542
4.0023 0.1045451 2.40138 0.4472136 0.8944272 0 0.9427519 0.9208542
4.0023 0.1045451 -2.40138 0.8944272 0.4472136 0 0.9427519 0.9207042
4.0023 0.1045451 -4.0023 0.3333333 0.6666667 -0.6666667 0.1602814 0.9257812
4.0023 0.00414088 2.40138 0.5547002 -0.8320503 0 0.9425019 0.9208542
4.0023 0.00414088 -2.40138 0.3162278 -0.9486833 0 0.9425019 0.9207042
4.0023 0.00414088 -4.0023 0.8944272 0 -0.4472136 0.1600314 0.9257812
2.40138 0.00414088 -4.0023 0 -1 0 0.9424518 0.9206542
-4.0023 0.1045451 -4.0023 0 1 0 0.1605313 0.9257812
2.40138 0.1045451 4.0023 0 0 1 0.1601617 0.9256427
-2.40138 0.1045451 4.0023 0 0 1 0.1601617 0.9257927
-2.40138 0.00414088 4.0023 0 0 1 0.1599118 0.9257927
2.40138 0.00414088 4.0023 0 0 1 0.1599118 0.9256427
4.0023 0.00414088 4.0023 0.4472136 0 0.8944272 0.1599391 0.9254904
4.0023 0.1045451 4.0023 0.8164966 0.4082483 0.4082483 0.160189 0.9254904
-4.0023 0.00414088 -2.40138 -1 0 0 0.9425019 0.9203542
-4.0023 0.00414088 2.40138 -1 0 0 0.9425019 0.9202043
-4.0023 0.1045451 2.40138 -1 0 0 0.160189 0.9247905
-4.0023 0.00414088 2.40138 -1 0 0 0.1599391 0.9247905
2.40138 0.1045451 -4.0023 0 1 0 0.1603313 0.9257812
2.40138 0.1045451 -2.40138 0 1 0 0.1603313 0.9258312
4.0023 0.1045451 -2.40138 0.8944272 0.4472136 0 0.1602814 0.9258312
4.0023 0.00414088 -2.40138 1 0 0 0.1600314 0.9258312
4.0023 0.00414088 -4.0023 0 -1 0 0.9425019 0.9206542
-4.0023 0.1045451 2.40138 0 1 0 0.9430019 0.9208542
-4.0023 0.1045451 -2.40138 0 1 0 0.9430019 0.9207042
-2.40138 0.1045451 -4.0023 0 1 0 0.1604814 0.9257812
-4.0023 0.1045451 -2.40138 0 1 0 0.1605313 0.9258312
-2.40138 0.1045451 -2.40138 0 1 0 0.1604814 0.9258312
-2.40138 0.1045451 -4.0023 0 0 -1 0.9427519 0.9204543
2.40138 0.1045451 -4.0023 0 0 -1 0.9427519 0.9206042
2.40138 0.00414088 -4.0023 0 0 -1 0.9425019 0.9206042
-2.40138 0.00414088 -4.0023 0 0 -1 0.9425019 0.9204543
-4.0023 0.00414088 -4.0023 -0.4472136 0 -0.8944272 0.1600314 0.9255311
-4.0023 0.1045451 -4.0023 -0.8944272 0 -0.4472136 0.1602814 0.9255311
-2.40138 0.1045451 -4.0023 0 0 -1 0.1602814 0.9255812
-2.40138 0.00414088 -4.0023 0 0 -1 0.1600314 0.9255812
2.40138 0.1045451 4.0023 0 0 1 0.160189 0.9255404
2.40138 0.00414088 4.0023 0 0 1 0.1599391 0.9255404
2.40138 0.00414088 4.0023 0 -1 0 0.9424518 0.9209042
-2.40138 0.00414088 4.0023 0 -1 0 0.9423019 0.9209042
-4.0023 0.00414088 4.0023 0 -1 0 0.9422519 0.9209042
-2.40138 0.1045451 2.40138 0 1 0 0.1603618 0.9255427
-2.40138 0.1045451 4.0023 0 1 0 0.1603618 0.9255927
2.40138 0.1045451 4.0023 0 1 0 0.1602117 0.9255927
2.40138 0.1045451 2.40138 0 1 0 0.1602117 0.9255427
-4.0023 0.00414088 -2.40138 -1 0 0 0.1600314 0.9254812
-4.0023 0.1045451 -2.40138 -1 0 0 0.1602814 0.9254812
4.0023 0.1045451 2.40138 0.4472136 0.8944272 0 0.160189 0.9254404
2.40138 0.1045451 2.40138 0 1 0 0.160239 0.9254404
2.40138 0.1045451 4.0023 0 1 0 0.160239 0.9254904
2.40138 0.00414088 -4.0023 0 0 -1 0.1600314 0.9257312
2.40138 0.1045451 -4.0023 0 0 -1 0.1602814 0.9257312
4.0023 0.00414088 2.40138 1 0 0 0.1599391 0.9254404
-2.40138 0.00414088 4.0023 0 0 1 0.1599391 0.9256905
-2.40138 0.1045451 4.0023 0 0 1 0.160189 0.9256905
-4.0023 0.1045451 4.0023 0 0 1 0.160189 0.9257405
-4.0023 0.00414088 4.0023 0 0 1 0.1599391 0.9257405
4.0023 0.00414088 4.0023 0 -1 0 0.9425019 0.9209042
-2.40138 0.1045451 2.40138 0 1 0 0.1603891 0.9254404
-4.0023 0.1045451 2.40138 0 1 0 0.160439 0.9254404
-4.0023 0.1045451 4.0023 0 1 0 0.160439 0.9254904
-2.40138 0.1045451 4.0023 0 1 0 0.1603891 0.9254904
3 0 1 2 
3 0 2 3 
3 2 1 4 
3 2 4 5 
3 6 7 2 
3 6 2 5 
3 8 9 10 
3 8 10 11 
3 12 13 32 
3 12 32 33 
3 14 15 34 
3 14 34 35 
3 16 17 10 
3 16 10 9 
3 10 17 18 
3 10 18 19 
3 20 36 37 
3 20 37 38 
3 19 18 21 
3 19 21 22 
3 23 20 38 
3 23 38 39 
3 21 0 3 
3 21 3 22 
3 24 40 22 
3 24 22 3 
3 41 16 9 
3 41 9 42 
3 43 25 44 
3 43 44 45 
3 46 47 48 
3 46 48 49 
3 50 51 52 
3 50 52 53 
3 26 27 28 
3 26 28 29 
3 30 31 54 
3 30 54 55 
3 0 56 57 
3 0 57 1 
3 4 1 57 
3 4 57 58 
3 59 60 61 
3 59 61 62 
3 63 64 51 
3 63 51 50 
3 65 66 67 
3 65 67 31 
3 68 69 20 
3 68 20 23 
3 70 65 31 
3 70 31 30 
3 71 72 73 
3 71 73 74 
3 0 21 75 
3 0 75 56 
3 76 77 78 
3 76 78 79 
3 24 3 2 
3 24 2 7 
