ply
format ascii 1.0
comment VCGLIB generated
comment TextureFile dummy.png
element vertex 135
property float x
property float y
property float z
property float nx
property float ny
property float nz
property float texture_u
property float texture_v
element face 132
property list uchar int vertex_indices
end_header
3.46036 0.08581602 -2.395634 0 -1 0 0.906505 0.9212998
3.992723 0.08581602 -2.395634 0 0 0 0.9064014 0.9212204
3.992723 0.08581602 0 0 -1 0 0.9064014 0.9212204
3.46036 0.08581602 0 0 -1 0 0.906505 0.9212998
2.927997 0.08581602 -2.395634 0 -1 0 0.9065844 0.9214033
2.927997 0.08581602 0 0 -1 0 0.9065844 0.9214033
3.992723 0.1374945 -2.395634 0.3162278 0.9486833 0 0.04126698 0.9125522
2.397306 0.1374945 -2.395634 0 1 0 0.04131692 0.9125522
2.397306 0.1374945 0 0 0.9701425 -0.2425356 0.04131692 0.9125522
2.927997 0.1374945 0 0 1 0 0.04130031 0.9125522
3.46036 0.1374945 0 0 0.6246951 -0.7808688 0.04128364 0.9125522
3.992723 0.1374945 0 0.8728716 0.4364358 -0.2182179 0.04126698 0.9125522
3.992723 -0.008655496 -2.395634 1 0 0 0.041017 0.9125522
3.992723 -0.008655496 -3.992723 0.4472136 0 -0.8944272 0.041017 0.9126022
3.992723 0.1374945 -3.992723 0.8164966 0.4082483 -0.4082483 0.04126698 0.9126022
-3.992723 -0.008655496 -3.992723 -1 0 0 0.041017 0.9118522
-3.992723 -0.008655496 -2.395634 -1 0 0 0.041017 0.9119022
-3.992723 0.1374945 -2.395634 -1 0 0 0.04126698 0.9119022
-3.992723 0.1374945 -3.992723 -1 0 0 0.04126698 0.9118522
2.397305 0.1374945 -3.992723 0 1 0 0.04131692 0.9126022
3.992723 -0.008655496 0 1 0 0 0.04322776 0.9126767
3.992723 -0.008655496 -0.08872724 0 0 0 0.04327467 0.9126909
-3.992723 0.08581602 -2.395634 0 0 0 0.04151696 0.9125522
-3.46036 0.08581602 -2.395634 0 0 1 0.03925815 0.9121286
-3.46036 0.1374945 -2.395634 0 0 1 0.03925815 0.9121286
-2.927997 0.08581602 -2.395634 0 0 1 0.03925812 0.9121286
-2.927997 0.1374945 -2.395634 0 0 1 0.03925812 0.9121286
2.397208 0.08581602 -3.992725 0.007427558 0.5546041 -0.8320813 0.9065571 0.9214691
2.397232 -0.008655496 -3.992723 0.009462949 -0.7071444 -0.7070059 0.9063001 0.9219751
-2.392538 -0.008655496 -3.992723 -0.005238665 -0.5547869 -0.8319761 0.9064537 0.921469
-2.388038 0.08581602 -3.992782 -0.008448241 0.4471037 -0.8944423 0.9063088 0.9220688
-2.390415 0.1374945 -3.992723 -0.009450819 0.0001372918 -0.9999554 0.04126698 0.912802
-3.992723 -0.008655496 0 -0.4472136 -0.8944272 0 0.9062958 0.9211772
-3.992723 -0.008655496 -0.08872719 -0.7071068 -0.7071068 0 0.9063427 0.9211915
-2.390417 0.1374945 -2.395634 0 1 0 0.0414668 0.9125521
-2.388038 0.08581602 -2.395634 0 0 1 0.03925812 0.9121286
2.402654 0.08581602 -2.395634 -0.9946866 -0.1029355 0.001695897 0.03925797 0.9121286
-3.992723 0.08581602 0 -0.8320503 0.5547002 0 0.9059099 0.9217181
2.402654 0.08581602 0 0 -1 0 0.9065571 0.9214691
3.46036 0.08581602 2.395634 0 -1 0 0.906505 0.9212998
3.992723 0.08581602 2.395634 0 0 0 0.9064014 0.9212204
2.927997 0.08581602 2.395634 0 -1 0 0.9065844 0.9214033
3.992723 0.1374945 2.395634 0.3162278 0.9486833 0 0.04126698 0.9125522
2.397306 0.1374945 2.395634 0 1 0 0.04131692 0.9125522
3.992723 -0.008655496 2.395634 1 0 0 0.041017 0.9125522
3.992723 0.1374945 3.992723 0.8164966 0.4082483 0.4082483 0.04126698 0.9126022
3.992723 -0.008655496 3.992723 0.4472136 0 0.8944272 0.041017 0.9126022
-3.992723 -0.008655496 3.992723 -1 0 0 0.041017 0.9118522
-3.992723 0.1374945 3.992723 -1 0 0 0.04126698 0.9118522
-3.992723 0.1374945 2.395634 -1 0 0 0.04126698 0.9119022
-3.992723 -0.008655496 2.395634 -1 0 0 0.041017 0.9119022
2.397305 0.1374945 3.992723 0 1 0 0.04131692 0.9126022
3.992723 -0.008655496 0.08872724 0 0 0 0.04327467 0.9126909
-3.992723 0.08581602 2.395634 0 0 0 0.04151696 0.9125522
-3.46036 0.1374945 2.395634 0 0 -1 0.03925815 0.9121286
-3.46036 0.08581602 2.395634 0 0 -1 0.03925815 0.9121286
-2.927997 0.1374945 2.395634 0 0 -1 0.03925812 0.9121286
-2.927997 0.08581602 2.395634 0 0 -1 0.03925812 0.9121286
2.397232 -0.008655496 3.992723 0 -1 0 0.9063001 0.9219751
-3.992723 -0.008655496 0.08872719 -0.7071068 -0.7071068 0 0.9063427 0.9211915
2.399608 0.08581602 2.395634 0 0 -1 0.03925812 0.9121286
3.992723 0.08581602 -2.395634 1 0 0 0.04068317 0.9126645
3.992723 0.08581602 0 1 0 0 0.04068317 0.9126645
3.992723 -0.008655496 -2.395634 1 0 0 0.04337224 0.9127005
3.992723 0.08581602 -2.395634 1 0 0 0.04362223 0.9117675
3.992723 0.08581602 0 1 0 0 0.04371372 0.912109
-3.992723 0.1374945 -2.395634 0 1 0 0.04151696 0.9125522
-3.992723 -0.008655496 -2.395634 -0.7071068 -0.7071068 0 0.9064292 0.9212376
3.992723 -0.008655496 -2.395634 0 -1 0 0.9061514 0.9221534
-3.992723 0.1374945 -2.395634 0 0 1 0.03925815 0.9121286
-3.992723 0.08581602 -2.395634 0 0 1 0.03925815 0.9121286
-3.992723 0.1374945 -3.992723 0 0 -1 0.04126698 0.9128522
-2.392538 -0.008655496 -3.992723 0 0 -1 0.041017 0.9128022
-3.992723 -0.008655496 -3.992723 0 0 -1 0.041017 0.9128522
3.992723 -0.008655496 -0.08872724 0 0 0 0.9060538 0.9221437
3.992723 -0.008655496 0 0 -1 0 0.9060069 0.9221295
-3.992723 -0.008655496 -3.992723 0 -1 0 0.906505 0.9212998
3.992723 -0.008655496 -3.992723 0 -1 0 0.9062489 0.9221437
-2.390415 0.1374945 -3.992723 0 1 0 0.0414668 0.9126022
-3.992723 0.1374945 -3.992723 0 1 0 0.04151696 0.9126022
-3.46036 0.1374945 -2.395634 0 1 0 0.04150029 0.9125522
-2.927997 0.1374945 -2.395634 0 1 0 0.04148363 0.9125521
2.397305 0.1374945 -3.992723 0.008922138 -4.45381e-06 -0.9999602 0.04126698 0.9126521
2.397232 -0.008655496 -3.992723 0 0 -1 0.041017 0.9126521
-2.390417 0.1374945 -2.395634 0.7063582 0.03251939 0.7071072 0.03925812 0.9121286
-2.390415 0.1374945 -3.992723 0.9989429 0.04596869 6.710636e-07 0.03925791 0.9121289
-2.388038 0.08581602 -2.395634 0.9989429 0.04596869 6.710636e-07 0.04012296 0.9121382
-2.388038 0.08581602 -3.992782 0.9989439 0.045948 0 0.04012296 0.9121382
2.397306 0.1374945 -2.395634 -0.9970453 -0.0768116 0.0008489747 0.03925797 0.9121286
2.397305 0.1374945 -3.992723 -0.9999983 0.00187769 5.971318e-07 0.03925791 0.9121287
2.397208 0.08581602 -3.992725 -0.9987177 -0.05059847 0.001698536 0.04012319 0.9121376
-2.388038 0.08581602 -2.395634 0 1 0 0.9063088 0.9220688
-2.927997 0.08581602 -2.395634 0 0 0 0.9062808 0.9221363
-3.46036 0.08581602 -2.395634 0 0 0 0.9061514 0.9221534
-3.992723 0.08581602 -2.395634 -0.7071068 0.7071068 0 0.906022 0.9221363
3.992723 0.08581602 0 0 1 0 0.9064929 0.9215618
2.402654 0.08581602 -2.395634 0 -1 0 0.9065571 0.9214691
2.402654 0.08581602 0 -0.996089 -0.08835498 -0.0003176608 0.03925797 0.9121286
2.397306 0.1374945 0 -0.994688 -0.1029357 0 0.03925797 0.9121286
3.992723 0.08581602 2.395634 1 0 0 0.04068317 0.9126645
3.992723 -0.008655496 2.395634 1 0 0 0.04337224 0.9127005
3.992723 0.08581602 2.395634 1 0 0 0.04362223 0.9117675
-3.992723 0.1374945 2.395634 0 1 0 0.04151696 0.9125522
-3.992723 -0.008655496 2.395634 -0.7071068 -0.7071068 0 0.9064292 0.9212376
3.992723 -0.008655496 2.395634 0 -1 0 0.9061514 0.9221534
-3.992723 0.1374945 2.395634 0 0 -1 0.03925815 0.9121286
-3.992723 0.08581602 2.395634 0 0 -1 0.03925815 0.9121286
3.992723 0.08581602 0 0 0 -1 0.04126698 0.9125522
3.46036 0.08581602 0 0 0 -1 0.04128364 0.9125522
2.927997 0.08581602 0 0 0 -1 0.04130031 0.9125522
2.402654 0.08581602 0 0 0 -1 0.04131675 0.9125522
3.992723 -0.008655496 3.992723 0 -1 0 0.9062489 0.9221437
-3.992723 -0.008655496 3.992723 0 -1 0 0.906505 0.9212998
3.992723 -0.008655496 0.08872724 0 0 0 0.9060538 0.9221437
2.397305 0.1374945 3.992723 0 1 0 0.0414668 0.9126022
2.397306 0.1374945 2.395634 0.691195 0.7226684 4.127352e-07 0.0414668 0.9125521
-2.927997 0.1374945 2.395634 0 1 0 0.04148363 0.9125521
-3.46036 0.1374945 2.395634 0 1 0 0.04150029 0.9125522
-3.992723 0.1374945 3.992723 0 1 0 0.04151696 0.9126022
2.397305 0.1374945 3.992723 0 0 1 0.04126698 0.9126521
2.397232 -0.008655496 3.992723 0 0 1 0.041017 0.9126521
2.397306 0.1374945 2.395634 0 0 -1 0.03925812 0.9121286
2.397305 0.1374945 3.992723 0.9997576 0.02200559 0.0007295219 0.04126698 0.912802
2.397232 -0.008655496 3.992723 0.9999988 -0.0004991858 0.001458077 0.9063088 0.9220688
2.399608 0.08581602 2.395634 0.9997576 0.02200559 0.0007295219 0.9063088 0.9220688
2.397232 -0.008655496 3.992723 0 0 1 0.04117453 0.9123961
2.397305 0.1374945 3.992723 0 0 1 0.04117317 0.9124035
-3.992723 0.1374945 3.992723 0 0 1 0.04117317 0.9124035
-3.992723 -0.008655496 3.992723 0 0 1 0.04117292 0.9124035
-2.927997 0.08581602 2.395634 0 1 0 0.9062808 0.9221363
2.399608 0.08581602 2.395634 0 -1 0 0.9065571 0.9214691
-3.992723 0.08581602 2.395634 -0.7071068 0.7071068 0 0.906022 0.9221363
-3.46036 0.08581602 2.395634 0 0 0 0.9061514 0.9221534
2.397306 0.1374945 2.395634 -0.9972767 -0.07374909 -0.0006353899 0.03925797 0.9121286
2.399608 0.08581602 2.395634 -0.9990087 -0.04449916 -0.001270234 0.03925797 0.9121286
3 0 1 2 
3 0 2 3 
3 4 0 3 
3 4 3 5 
3 6 7 8 
3 6 8 9 
3 6 9 10 
3 6 10 11 
3 61 6 11 
3 61 11 62 
3 12 13 14 
3 12 14 6 
3 15 16 17 
3 15 17 18 
3 6 14 19 
3 6 19 7 
3 63 64 65 
3 63 65 20 
3 63 20 21 
3 66 67 22 
3 68 6 1 
3 69 70 23 
3 69 23 24 
3 24 23 25 
3 24 25 26 
3 27 28 29 
3 27 29 30 
3 71 31 72 
3 71 72 73 
3 68 74 75 
3 68 75 32 
3 68 32 33 
3 68 33 67 
3 68 67 76 
3 68 76 29 
3 68 29 28 
3 68 28 77 
3 78 79 66 
3 78 66 80 
3 78 80 81 
3 78 81 34 
3 82 14 13 
3 82 13 83 
3 35 84 26 
3 35 26 25 
3 29 31 30 
3 85 84 86 
3 85 86 87 
3 28 27 82 
3 88 89 90 
3 88 90 36 
3 91 92 93 
3 91 93 94 
3 91 94 37 
3 91 37 95 
3 91 95 1 
3 91 1 0 
3 91 0 4 
3 91 4 96 
3 91 96 27 
3 91 27 30 
3 37 94 67 
3 37 67 33 
3 37 33 32 
3 96 4 5 
3 96 5 38 
3 88 36 97 
3 88 97 98 
3 39 3 2 
3 39 2 40 
3 41 5 3 
3 41 3 39 
3 42 11 10 
3 42 10 9 
3 42 9 8 
3 42 8 43 
3 99 62 11 
3 99 11 42 
3 44 42 45 
3 44 45 46 
3 47 48 49 
3 47 49 50 
3 42 43 51 
3 42 51 45 
3 100 52 20 
3 100 20 65 
3 100 65 101 
3 102 53 103 
3 104 40 42 
3 105 54 55 
3 105 55 106 
3 54 56 57 
3 54 57 55 
3 10 11 107 
3 10 107 108 
3 10 108 109 
3 10 109 110 
3 10 110 8 
3 10 8 9 
3 104 111 58 
3 104 58 112 
3 104 112 103 
3 104 103 59 
3 104 59 32 
3 104 32 75 
3 104 75 113 
3 114 115 116 
3 114 116 117 
3 114 117 102 
3 114 102 118 
3 119 120 46 
3 119 46 45 
3 60 57 56 
3 60 56 121 
3 122 123 124 
3 122 124 115 
3 125 126 127 
3 125 127 128 
3 129 130 41 
3 129 41 39 
3 129 39 40 
3 129 40 95 
3 129 95 37 
3 129 37 131 
3 129 131 132 
3 37 32 59 
3 37 59 103 
3 37 103 131 
3 130 38 5 
3 130 5 41 
3 133 98 97 
3 133 97 134 
