ply
format ascii 1.0
comment VCGLIB generated
comment TextureFile dummy.png
element vertex 336
property float x
property float y
property float z
property float nx
property float ny
property float nz
property float texture_u
property float texture_v
element face 400
property list uchar int vertex_indices
end_header
-3.992723 -0.008655496 -2.395634 -1 0 0 0.041017 0.9120522
-3.992723 0.1374945 -2.395634 -1 0 0 0.04126698 0.9120522
-3.992723 0.1374945 -3.992723 -0.8944272 0 -0.4472136 0.04126698 0.9121022
-3.992723 -0.008655496 -3.992723 -0.4472136 0 -0.8944272 0.041017 0.9121022
3.46036 -0.008655496 -3.992723 0 0 -1 0.041017 0.9123355
3.46036 0.1374945 -3.992723 0 0 -1 0.04126698 0.9123355
3.992723 0.1374945 -3.992723 0.4082483 0.4082483 -0.8164966 0.04126698 0.9123522
3.992723 -0.008655496 -3.992723 0.8944272 0 -0.4472136 0.041017 0.9123522
3.992723 -0.008655496 2.395634 1 0 0 0.041017 0.9125522
3.992723 0.1374945 2.395634 0.5773503 0.5773503 -0.5773503 0.04126698 0.9125522
3.992723 0.1374945 3.992723 0.6666667 0.6666667 0.3333333 0.04126698 0.9126022
3.992723 -0.008655496 3.992723 0.4472136 0 0.8944272 0.041017 0.9126022
-3.46036 -0.008655496 3.992723 0 0 1 0.041017 0.9128355
-3.46036 0.1374945 3.992723 0 0 1 0.04126698 0.9128356
-3.992723 0.1374945 3.992723 0 0 1 0.04126698 0.9128522
-3.992723 -0.008655496 3.992723 0 0 1 0.041017 0.9128522
-3.46036 0.1374945 -2.395634 0 0.5547002 0.8320503 0.04150029 0.9124022
-3.992723 0.08581602 -2.395634 0 0 1 0.04151696 0.9124022
-3.46036 0.08581602 -2.395634 0 0 1 0.04150029 0.9124022
3.992723 0.1374945 -2.395634 0.5773503 0.5773503 0.5773503 0.04126698 0.9124022
3.992723 -0.008655496 -2.395634 1 0 0 0.041017 0.9124022
-3.992723 0.1374945 2.395634 -1 0 0 0.04126698 0.9119022
-3.992723 -0.008655496 2.395634 -1 0 0 0.041017 0.9119022
3.46036 0.1374945 2.395634 0 0.9743912 -0.2248595 0.04128364 0.9125522
3.992723 0.08581602 2.395634 0 0 -1 0.04126698 0.9125522
3.46036 0.08581602 2.395634 0 0 -1 0.04128364 0.9125522
-3.46036 0.08581602 -0.08872724 0 1 0 0.9056514 0.9211534
-3.992723 0.08581602 -0.088727 0 1 0 0.9066514 0.9211534
-3.992723 0.08581602 0.08872724 -0.7071068 0.7071068 0 0.9066514 0.9221534
-3.46036 0.08581602 0.08872724 0 1 0 0.9056514 0.9221534
-3.992723 -0.008655496 -0.08872718 0 -1 0 0.9062489 0.921163
-3.992723 -0.008655496 0.08872719 0 -1 0 0.9063427 0.9211915
-3.992723 0.08581602 2.395634 -0.7071068 0.7071068 0 0.906022 0.9221363
3.992723 -0.008655496 0.08872724 0 0 0 0.9060538 0.9221437
3.992723 -0.008655496 -0.08872712 0 0 0 0.9059601 0.9221153
3.992723 0.08581602 -2.395634 0.7071068 0.7071068 0 0.9065844 0.9219034
-2.927997 0.08581602 -0.08872724 0 1 0 0.01978087 0.9868839
-2.927997 0.08581602 0.08872724 0 1 0 0.01978087 0.9868895
-1.863271 0.08581602 0.08872724 0 1 0 0.01974756 0.9868895
-1.863271 0.08581602 -0.08872724 0 1 0 0.01974756 0.9868839
1.330908 0.08581602 -0.08872724 0 1 0 0.9056514 0.9211534
0.7985446 0.08581602 -0.08872724 0 1 0 0.9066514 0.9211534
0.7985446 0.08581602 0.08872724 0 1 0 0.9066514 0.9221534
1.330908 0.08581602 0.08872724 0 1 0 0.9056514 0.9221534
-0.7985442 0.08581602 -0.08872724 0 1 0 0.01971418 0.9868838
-0.7985442 0.08581602 0.08872724 0 1 0 0.01971418 0.9868894
-1.330907 0.08581602 -0.08872724 0 1 0 0.9066514 0.9211534
-1.330907 0.08581602 0.08872724 0 1 0 0.9066514 0.9221534
-3.46036 0.08581602 2.395634 0 1 0 0.9061514 0.9221534
-2.927997 0.08581602 2.395634 0 1 0 0.9062808 0.9221363
-1.863271 0.08581602 2.395634 0 1 0 0.9064014 0.9220864
-1.330907 0.08581602 2.395634 0 1 0 0.906505 0.922007
-0.7985442 0.08581602 2.395634 0 1 0 0.9065844 0.9219034
0.7985446 0.08581602 2.395634 0 1 0 0.9066343 0.9217827
1.330908 0.08581602 2.395634 0 1 0 0.9066514 0.9216534
1.863271 0.08581602 2.395634 0 1 0 0.9066343 0.9215239
2.927997 0.08581602 2.395634 0 1 0 0.9065844 0.9214033
3.46036 0.08581602 -2.395634 0 1 0 0.9066343 0.9217827
2.927997 0.08581602 -2.395634 0 1 0 0.9066514 0.9216534
1.863271 0.08581602 -2.395634 0 1 0 0.9066343 0.9215239
1.330908 0.08581602 -2.395634 0 1 0 0.9065844 0.9214033
0.7985446 0.08581602 -2.395634 0 1 0 0.906505 0.9212998
-0.7985442 0.08581602 -2.395634 0 1 0 0.9064014 0.9212204
-1.330907 0.08581602 -2.395634 0 1 0 0.9062808 0.9211704
-1.863271 0.08581602 -2.395634 0 1 0 0.9061514 0.9211534
-2.927997 0.08581602 -2.395634 0 1 0 0.906022 0.9211704
-2.927997 0.1374945 2.395634 0 0 -1 0.04148363 0.9125521
-1.863271 0.1374945 2.395634 0 0 -1 0.0414503 0.9125521
-3.46036 0.1374945 2.395634 0 0 -1 0.04150029 0.9125522
1.863271 0.1374945 2.395634 0 0 -1 0.04133364 0.9125522
2.927997 0.1374945 2.395634 0 0 -1 0.04130031 0.9125522
-1.330907 0.1374945 2.395634 0 0 -1 0.04143363 0.9125521
-0.7985444 0.1374945 2.395634 0 0 -1 0.04141697 0.9125521
0.7985446 0.1374945 2.395634 0 0 -1 0.04136697 0.9125522
1.330908 0.1374945 2.395634 0 0 -1 0.04135031 0.9125522
2.927997 0.1374945 -2.395634 0 0.5547002 0.8320503 0.04130031 0.9124022
1.863271 0.1374945 -2.395634 0 0.5547002 0.8320503 0.04133364 0.9124023
2.927997 0.1374945 -3.992723 0 0 0 0.04130031 0.9123522
1.863271 0.1374945 -3.992723 0 0 0 0.04133364 0.9123522
1.330908 0.1374945 -3.992723 0 0 0 0.04135031 0.9123522
0.7985446 0.1374945 -3.992723 0 0 0 0.04136697 0.9123522
-0.7985444 0.1374945 -3.992723 0 0 0 0.04141697 0.9123522
-1.330907 0.1374945 -3.992723 0 0 0 0.04143363 0.9123522
-1.863271 0.1374945 -3.992723 0 0 0 0.0414503 0.9123522
-2.927997 0.1374945 -3.992723 0 0 0 0.04148363 0.9123522
-3.46036 0.1374945 -3.992723 0 0 0 0.04150029 0.9123522
-2.927997 0.1374945 -2.395634 0 0.5547002 0.8320503 0.04148363 0.9124022
-1.863271 0.1374945 -2.395634 0 0.5547002 0.8320503 0.0414503 0.9124023
-1.330907 0.1374945 -2.395634 0 0.5547002 0.8320503 0.04143363 0.9124022
-0.7985444 0.1374945 -2.395634 0 0.5547002 0.8320503 0.04141697 0.9124022
0.7985446 0.1374945 -2.395634 0 0.5547002 0.8320503 0.04136697 0.9124023
1.330908 0.1374945 -2.395634 0 0.5547002 0.8320503 0.04135031 0.9124023
3.46036 0.1374945 -2.395634 0 0.5547002 0.8320503 0.04128364 0.9124022
-2.927997 0.1374945 3.992723 0 1 0 0.04148363 0.9126022
-1.863271 0.1374945 3.992723 0 1 0 0.0414503 0.9126022
-1.330908 0.1374945 3.992723 0 1 0 0.04143363 0.9126022
-0.7985446 0.1374945 3.992723 0 1 0 0.04141697 0.9126022
0.7985442 0.1374945 3.992723 0 1 0 0.04136697 0.9126021
1.330908 0.1374945 3.992723 0 1 0 0.04135031 0.9126021
1.863271 0.1374945 3.992723 0 1 0 0.04133365 0.9126022
2.927997 0.1374945 3.992723 0 1 0 0.04130031 0.9126022
3.46036 0.1374945 3.992723 0 1 0 0.04128364 0.9126022
1.863271 -0.008655496 3.992723 0 0 1 0.041017 0.9126689
2.927997 -0.008655496 3.992723 0 0 1 0.041017 0.9126356
3.46036 -0.008655496 3.992723 0 0 1 0.041017 0.9126189
-2.927997 -0.008655496 3.992723 0 0 1 0.04101699 0.9128189
-1.863271 -0.008655496 3.992723 0 0 1 0.041017 0.9127855
1.330908 -0.008655496 3.992723 0 0 1 0.041017 0.9126856
0.7985446 -0.008655496 3.992723 0 0 1 0.041017 0.9127023
-0.7985444 -0.008655496 3.992723 0 0 1 0.041017 0.9127522
-1.330907 -0.008655496 3.992723 0 0 1 0.041017 0.9127688
-1.863271 -0.008655496 -3.992723 0 0 -1 0.041017 0.9121689
-2.927997 -0.008655496 -3.992723 0 0 -1 0.041017 0.9121355
-3.46036 -0.008655496 -3.992723 0 0 -1 0.041017 0.9121189
2.927997 -0.008655496 -3.992723 0 0 -1 0.04101699 0.9123188
1.863271 -0.008655496 -3.992723 0 0 -1 0.041017 0.9122854
-1.330908 -0.008655496 -3.992723 0 0 -1 0.041017 0.9121855
-0.7985446 -0.008655496 -3.992723 0 0 -1 0.041017 0.9122022
0.7985444 -0.008655496 -3.992723 0 0 -1 0.041017 0.9122521
1.330908 -0.008655496 -3.992723 0 0 -1 0.041017 0.9122688
2.317181 0.08581602 2.001468 -0.6666667 -0.6666667 -0.3333333 0.01971418 0.9868838
3.91427 0.08581602 2.001468 0.4082483 -0.4082483 -0.8164966 0.01966417 0.9868839
3.91427 0.08581602 2.178923 0.6666667 -0.6666667 0.3333333 0.01966417 0.9868894
2.317181 0.08581602 2.178923 -0.4082483 -0.4082483 0.8164966 0.01971418 0.9868894
2.317181 0.09641179 2.001468 -0.3333333 0.6666667 -0.6666667 0.01971418 0.9868838
2.317181 0.09641179 2.178923 -0.8164966 0.4082483 0.4082483 0.01971418 0.9868894
3.91427 0.09641179 2.178923 0.3333333 0.6666667 0.6666667 0.01966417 0.9868894
3.91427 0.09641179 2.001468 0.8164966 0.4082483 -0.4082483 0.01966417 0.9868839
2.317181 0.08581602 1.680378 -0.6666667 -0.6666667 -0.3333333 0.01971418 0.9868838
3.91427 0.08581602 1.680378 0.4082483 -0.4082483 -0.8164966 0.01966417 0.9868839
3.91427 0.08581602 1.857833 0.6666667 -0.6666667 0.3333333 0.01966417 0.9868894
2.317181 0.08581602 1.857833 -0.4082483 -0.4082483 0.8164966 0.01971418 0.9868894
2.317181 0.09641179 1.680378 -0.3333333 0.6666667 -0.6666667 0.01971418 0.9868838
2.317181 0.09641179 1.857833 -0.8164966 0.4082483 0.4082483 0.01971418 0.9868894
3.91427 0.09641179 1.857833 0.3333333 0.6666667 0.6666667 0.01966417 0.9868894
3.91427 0.09641179 1.680378 0.8164966 0.4082483 -0.4082483 0.01966417 0.9868839
2.317181 0.08581602 1.359288 -0.6666667 -0.6666667 -0.3333333 0.01971418 0.9868838
3.91427 0.08581602 1.359288 0.4082483 -0.4082483 -0.8164966 0.01966417 0.9868839
3.91427 0.08581602 1.536742 0.6666667 -0.6666667 0.3333333 0.01966417 0.9868894
2.317181 0.08581602 1.536742 -0.4082483 -0.4082483 0.8164966 0.01971418 0.9868894
2.317181 0.09641179 1.359288 -0.3333333 0.6666667 -0.6666667 0.01971418 0.9868838
2.317181 0.09641179 1.536742 -0.8164966 0.4082483 0.4082483 0.01971418 0.9868894
3.91427 0.09641179 1.536742 0.3333333 0.6666667 0.6666667 0.01966417 0.9868894
3.91427 0.09641179 1.359288 0.8164966 0.4082483 -0.4082483 0.01966417 0.9868839
2.317181 0.08581602 1.038197 -0.6666667 -0.6666667 -0.3333333 0.01971418 0.9868838
3.91427 0.08581602 1.038197 0.4082483 -0.4082483 -0.8164966 0.01966417 0.9868839
3.91427 0.08581602 1.215652 0.6666667 -0.6666667 0.3333333 0.01966417 0.9868894
2.317181 0.08581602 1.215652 -0.4082483 -0.4082483 0.8164966 0.01971418 0.9868894
2.317181 0.09641179 1.038197 -0.3333333 0.6666667 -0.6666667 0.01971418 0.9868838
2.317181 0.09641179 1.215652 -0.8164966 0.4082483 0.4082483 0.01971418 0.9868894
3.91427 0.09641179 1.215652 0.3333333 0.6666667 0.6666667 0.01966417 0.9868894
3.91427 0.09641179 1.038197 0.8164966 0.4082483 -0.4082483 0.01966417 0.9868839
2.317181 0.08581602 0.7171071 -0.6666667 -0.6666667 -0.3333333 0.01971418 0.9868838
3.91427 0.08581602 0.7171071 0.4082483 -0.4082483 -0.8164966 0.01966417 0.9868839
3.91427 0.08581602 0.8945615 0.6666667 -0.6666667 0.3333333 0.01966417 0.9868894
2.317181 0.08581602 0.8945615 -0.4082483 -0.4082483 0.8164966 0.01971418 0.9868894
2.317181 0.09641179 0.7171071 -0.3333333 0.6666667 -0.6666667 0.01971418 0.9868838
2.317181 0.09641179 0.8945615 -0.8164966 0.4082483 0.4082483 0.01971418 0.9868894
3.91427 0.09641179 0.8945615 0.3333333 0.6666667 0.6666667 0.01966417 0.9868894
3.91427 0.09641179 0.7171071 0.8164966 0.4082483 -0.4082483 0.01966417 0.9868839
2.317181 0.08581602 0.3960167 -0.6666667 -0.6666667 -0.3333333 0.01971418 0.9868838
3.91427 0.08581602 0.3960167 0.4082483 -0.4082483 -0.8164966 0.01966417 0.9868839
3.91427 0.08581602 0.5734712 0.6666667 -0.6666667 0.3333333 0.01966417 0.9868894
2.317181 0.08581602 0.5734712 -0.4082483 -0.4082483 0.8164966 0.01971418 0.9868894
2.317181 0.09641179 0.3960167 -0.3333333 0.6666667 -0.6666667 0.01971418 0.9868838
2.317181 0.09641179 0.5734712 -0.8164966 0.4082483 0.4082483 0.01971418 0.9868894
3.91427 0.09641179 0.5734712 0.3333333 0.6666667 0.6666667 0.01966417 0.9868894
3.91427 0.09641179 0.3960167 0.8164966 0.4082483 -0.4082483 0.01966417 0.9868839
2.317181 0.08581602 0.07492638 -0.6666667 -0.6666667 -0.3333333 0.01971418 0.9868838
3.91427 0.08581602 0.07492638 0.4082483 -0.4082483 -0.8164966 0.01966417 0.9868839
3.91427 0.08581602 0.2523808 0.6666667 -0.6666667 0.3333333 0.01966417 0.9868894
2.317181 0.08581602 0.2523808 -0.4082483 -0.4082483 0.8164966 0.01971418 0.9868894
2.317181 0.09641179 0.07492638 -0.3333333 0.6666667 -0.6666667 0.01971418 0.9868838
2.317181 0.09641179 0.2523808 -0.8164966 0.4082483 0.4082483 0.01971418 0.9868894
3.91427 0.09641179 0.2523808 0.3333333 0.6666667 0.6666667 0.01966417 0.9868894
3.91427 0.09641179 0.07492638 0.8164966 0.4082483 -0.4082483 0.01966417 0.9868839
2.317181 0.08581602 -0.246164 -0.6666667 -0.6666667 -0.3333333 0.01971418 0.9868838
3.91427 0.08581602 -0.246164 0.4082483 -0.4082483 -0.8164966 0.01966417 0.9868839
3.91427 0.08581602 -0.06870949 0.6666667 -0.6666667 0.3333333 0.01966417 0.9868894
2.317181 0.08581602 -0.06870949 -0.4082483 -0.4082483 0.8164966 0.01971418 0.9868894
2.317181 0.09641179 -0.246164 -0.3333333 0.6666667 -0.6666667 0.01971418 0.9868838
2.317181 0.09641179 -0.06870949 -0.8164966 0.4082483 0.4082483 0.01971418 0.9868894
3.91427 0.09641179 -0.06870949 0.3333333 0.6666667 0.6666667 0.01966417 0.9868894
3.91427 0.09641179 -0.246164 0.8164966 0.4082483 -0.4082483 0.01966417 0.9868839
2.317181 0.08581602 -0.5672543 -0.6666667 -0.6666667 -0.3333333 0.01971418 0.9868838
3.91427 0.08581602 -0.5672543 0.4082483 -0.4082483 -0.8164966 0.01966417 0.9868839
3.91427 0.08581602 -0.3897998 0.6666667 -0.6666667 0.3333333 0.01966417 0.9868894
2.317181 0.08581602 -0.3897998 -0.4082483 -0.4082483 0.8164966 0.01971418 0.9868894
2.317181 0.09641179 -0.5672543 -0.3333333 0.6666667 -0.6666667 0.01971418 0.9868838
2.317181 0.09641179 -0.3897998 -0.8164966 0.4082483 0.4082483 0.01971418 0.9868894
3.91427 0.09641179 -0.3897998 0.3333333 0.6666667 0.6666667 0.01966417 0.9868894
3.91427 0.09641179 -0.5672543 0.8164966 0.4082483 -0.4082483 0.01966417 0.9868839
2.317181 0.08581602 -0.8883446 -0.6666667 -0.6666667 -0.3333333 0.01971418 0.9868838
3.91427 0.08581602 -0.8883446 0.4082483 -0.4082483 -0.8164966 0.01966417 0.9868839
3.91427 0.08581602 -0.7108902 0.6666667 -0.6666667 0.3333333 0.01966417 0.9868894
2.317181 0.08581602 -0.7108902 -0.4082483 -0.4082483 0.8164966 0.01971418 0.9868894
2.317181 0.09641179 -0.8883446 -0.3333333 0.6666667 -0.6666667 0.01971418 0.9868838
2.317181 0.09641179 -0.7108902 -0.8164966 0.4082483 0.4082483 0.01971418 0.9868894
3.91427 0.09641179 -0.7108902 0.3333333 0.6666667 0.6666667 0.01966417 0.9868894
3.91427 0.09641179 -0.8883446 0.8164966 0.4082483 -0.4082483 0.01966417 0.9868839
2.317181 0.08581602 -1.209435 -0.6666667 -0.6666667 -0.3333333 0.01971418 0.9868838
3.91427 0.08581602 -1.209435 0.4082483 -0.4082483 -0.8164966 0.01966417 0.9868839
3.91427 0.08581602 -1.031981 0.6666667 -0.6666667 0.3333333 0.01966417 0.9868894
2.317181 0.08581602 -1.031981 -0.4082483 -0.4082483 0.8164966 0.01971418 0.9868894
2.317181 0.09641179 -1.209435 -0.3333333 0.6666667 -0.6666667 0.01971418 0.9868838
2.317181 0.09641179 -1.031981 -0.8164966 0.4082483 0.4082483 0.01971418 0.9868894
3.91427 0.09641179 -1.031981 0.3333333 0.6666667 0.6666667 0.01966417 0.9868894
3.91427 0.09641179 -1.209435 0.8164966 0.4082483 -0.4082483 0.01966417 0.9868839
2.317181 0.08581602 -1.530525 -0.6666667 -0.6666667 -0.3333333 0.01971418 0.9868838
3.91427 0.08581602 -1.530525 0.4082483 -0.4082483 -0.8164966 0.01966417 0.9868839
3.91427 0.08581602 -1.353071 0.6666667 -0.6666667 0.3333333 0.01966417 0.9868894
2.317181 0.08581602 -1.353071 -0.4082483 -0.4082483 0.8164966 0.01971418 0.9868894
2.317181 0.09641179 -1.530525 -0.3333333 0.6666667 -0.6666667 0.01971418 0.9868838
2.317181 0.09641179 -1.353071 -0.8164966 0.4082483 0.4082483 0.01971418 0.9868894
3.91427 0.09641179 -1.353071 0.3333333 0.6666667 0.6666667 0.01966417 0.9868894
3.91427 0.09641179 -1.530525 0.8164966 0.4082483 -0.4082483 0.01966417 0.9868839
2.317181 0.08581602 -1.851616 -0.6666667 -0.6666667 -0.3333333 0.01971418 0.9868838
3.91427 0.08581602 -1.851616 0.4082483 -0.4082483 -0.8164966 0.01966417 0.9868839
3.91427 0.08581602 -1.674161 0.6666667 -0.6666667 0.3333333 0.01966417 0.9868894
2.317181 0.08581602 -1.674161 -0.4082483 -0.4082483 0.8164966 0.01971418 0.9868894
2.317181 0.09641179 -1.851616 -0.3333333 0.6666667 -0.6666667 0.01971418 0.9868838
2.317181 0.09641179 -1.674161 -0.8164966 0.4082483 0.4082483 0.01971418 0.9868894
3.91427 0.09641179 -1.674161 0.3333333 0.6666667 0.6666667 0.01966417 0.9868894
3.91427 0.09641179 -1.851616 0.8164966 0.4082483 -0.4082483 0.01966417 0.9868839
2.317181 0.08581602 -2.172706 -0.6666667 -0.6666667 -0.3333333 0.01971418 0.9868838
3.91427 0.08581602 -2.172706 0.4082483 -0.4082483 -0.8164966 0.01966417 0.9868839
3.91427 0.08581602 -1.995252 0.6666667 -0.6666667 0.3333333 0.01966417 0.9868894
2.317181 0.08581602 -1.995252 -0.4082483 -0.4082483 0.8164966 0.01971418 0.9868894
2.317181 0.09641179 -2.172706 -0.3333333 0.6666667 -0.6666667 0.01971418 0.9868838
2.317181 0.09641179 -1.995252 -0.8164966 0.4082483 0.4082483 0.01971418 0.9868894
3.91427 0.09641179 -1.995252 0.3333333 0.6666667 0.6666667 0.01966417 0.9868894
3.91427 0.09641179 -2.172706 0.8164966 0.4082483 -0.4082483 0.01966417 0.9868839
-3.992723 0.1374945 -2.395634 0 0.8944272 0.4472136 0.04151696 0.9124022
-3.992723 -0.008655496 3.992723 -1 0 0 0.041017 0.9118522
-3.992723 0.1374945 3.992723 -1 0 0 0.04126698 0.9118522
-3.992723 -0.008655496 -2.395634 -0.8944272 -0.4472136 0 0.9061514 0.9211534
-3.992723 -0.008655496 2.395634 -0.4472136 -0.8944272 0 0.9064292 0.9212376
-3.992723 0.08581602 -0.088727 -1 0 0 0.9057184 0.9214033
-3.992723 0.08581602 -2.395634 -0.4472136 0.8944272 0 0.9057978 0.9212998
3.992723 -0.008655496 2.395634 0.07387169 -0.9972678 0 0.9061514 0.9221534
3.992723 -0.008655496 -2.395634 1 0 0 0.9058736 0.9220691
3.992723 0.08581602 2.395634 0.4472136 0.8944272 0 0.9064014 0.9212204
0.7985446 0.08581602 0.08872724 0 1 0 0.01966417 0.9868894
0.7985446 0.08581602 -0.08872724 0 1 0 0.01966417 0.9868839
-0.7985442 0.08581602 -0.08872724 0 1 0 0.9056514 0.9211534
-0.7985442 0.08581602 0.08872724 0 1 0 0.9056514 0.9221534
-1.330907 0.08581602 -0.08872724 0 1 0 0.9056514 0.9211534
-1.863271 0.08581602 -0.08872724 0 1 0 0.9066514 0.9211534
-1.863271 0.08581602 0.08872724 0 1 0 0.9066514 0.9221534
-1.330907 0.08581602 0.08872724 0 1 0 0.9056514 0.9221534
-3.46036 0.08581602 -0.08872724 0 1 0 0.01979756 0.9868839
-3.46036 0.08581602 0.08872724 0 1 0 0.01979756 0.9868895
1.330908 0.08581602 -0.08872724 0 1 0 0.906022 0.9221363
1.330908 0.08581602 0.08872724 0 -1 0 0.9057978 0.9212998
0.7985446 0.08581602 0.08872724 0 -1 0 0.9057184 0.9214033
-0.7985442 0.08581602 0.08872724 0 -1 0 0.9056684 0.9215239
-1.330907 0.08581602 0.08872724 0 -1 0 0.9056514 0.9216534
-1.863271 0.08581602 0.08872724 0 -1 0 0.9056684 0.9217827
-2.927997 0.08581602 0.08872724 0 -1 0 0.9057183 0.9219034
-3.46036 0.08581602 0.08872724 0 -1 0 0.9057978 0.922007
-3.992723 0.08581602 0.08872724 0 0 0 0.9059014 0.9220864
3.46036 0.08581602 2.395634 0 1 0 0.906505 0.9212998
-3.46036 0.08581602 -2.395634 0 1 0 0.9059014 0.9212203
-3.46036 0.08581602 -0.08872724 0 -1 0 0.9056684 0.9215239
-2.927997 0.08581602 -0.08872724 0 0 0 0.9056514 0.9216534
-1.863271 0.08581602 -0.08872724 0 0 0 0.9056684 0.9217827
-1.330907 0.08581602 -0.08872724 0 0 0 0.9057183 0.9219034
-0.7985442 0.08581602 -0.08872724 0 0 0 0.9057978 0.922007
0.7985446 0.08581602 -0.08872724 0 0 0 0.9059014 0.9220864
-1.863271 0.08581602 2.395634 0 0 -1 0.0414503 0.9125521
-2.927997 0.08581602 2.395634 0 0 -1 0.04148363 0.9125521
-3.992723 0.1374945 2.395634 0 0.4472136 -0.8944272 0.04151696 0.9125522
-3.46036 0.08581602 2.395634 0 0 -1 0.04150029 0.9125522
-3.992723 0.08581602 2.395634 0 0 -1 0.04151696 0.9125522
2.927997 0.08581602 2.395634 0 0 -1 0.04130031 0.9125522
1.863271 0.08581602 2.395634 0 0 -1 0.04133364 0.9125522
-1.330907 0.08581602 2.395634 0 0 -1 0.04143363 0.9125521
-0.7985442 0.08581602 2.395634 0 0 -1 0.04141697 0.9125521
0.7985446 0.08581602 2.395634 0 0 -1 0.04136697 0.9125522
1.330908 0.08581602 2.395634 0 0 -1 0.04135031 0.9125522
1.863271 0.08581602 -2.395634 0 0 1 0.04133364 0.9124023
2.927997 0.08581602 -2.395634 0 0 1 0.04130031 0.9124022
3.46036 0.1374945 -3.992723 0 1 0 0.04128364 0.9123522
-3.992723 0.1374945 -3.992723 0 1 0 0.04151696 0.9123522
3.46036 0.08581602 -2.395634 0 0 1 0.04128364 0.9124022
3.992723 0.08581602 -2.395634 0 0 1 0.04126698 0.9124022
-2.927997 0.08581602 -2.395634 0 0 1 0.04148363 0.9124022
-1.863271 0.08581602 -2.395634 0 0 1 0.0414503 0.9124023
1.330908 0.08581602 -2.395634 0 0 1 0.04135031 0.9124023
0.7985446 0.08581602 -2.395634 0 0 1 0.04136697 0.9124023
-0.7985442 0.08581602 -2.395634 0 0 1 0.04141697 0.9124022
-1.330907 0.08581602 -2.395634 0 0 1 0.04143363 0.9124022
-3.992723 0.1374945 3.992723 0 1 0 0.04151696 0.9126022
-3.46036 0.1374945 3.992723 0 1 0 0.04150029 0.9126022
1.863271 0.1374945 3.992723 0 0 1 0.04126698 0.9126689
2.927997 0.1374945 3.992723 0 0 1 0.04126697 0.9126355
3.46036 0.1374945 3.992723 0 0 1 0.04126698 0.9126189
-2.927997 0.1374945 3.992723 0 0 1 0.04126697 0.9128189
-1.863271 0.1374945 3.992723 0 0 1 0.04126697 0.9127856
1.330908 0.1374945 3.992723 0 0 1 0.04126697 0.9126856
0.7985442 0.1374945 3.992723 0 0 1 0.04126697 0.9127022
-0.7985446 0.1374945 3.992723 0 0 1 0.04126698 0.9127523
-1.330908 0.1374945 3.992723 0 0 1 0.04126697 0.9127689
-1.863271 0.1374945 -3.992723 0 0 -1 0.04126698 0.9121689
-2.927997 0.1374945 -3.992723 0 0 -1 0.04126697 0.9121355
-3.46036 0.1374945 -3.992723 0 0 -1 0.04126698 0.9121189
2.927997 0.1374945 -3.992723 0 0 -1 0.04126697 0.9123188
1.863271 0.1374945 -3.992723 0 0 -1 0.04126697 0.9122856
-1.330907 0.1374945 -3.992723 0 0 -1 0.04126697 0.9121855
-0.7985444 0.1374945 -3.992723 0 0 -1 0.04126697 0.9122022
0.7985446 0.1374945 -3.992723 0 0 -1 0.04126698 0.9122522
1.330908 0.1374945 -3.992723 0 0 -1 0.04126697 0.9122689
3.992723 -0.008655496 3.992723 0 -1 0 0.9062489 0.9221437
3.46036 -0.008655496 3.992723 0 -1 0 0.9063427 0.9221153
2.927997 -0.008655496 3.992723 0 -1 0 0.9064292 0.9220691
1.863271 -0.008655496 3.992723 0 -1 0 0.906505 0.922007
1.330908 -0.008655496 3.992723 0 -1 0 0.9065671 0.9219311
0.7985446 -0.008655496 3.992723 0 -1 0 0.9066133 0.9218447
-0.7985444 -0.008655496 3.992723 0 -1 0 0.9066417 0.9217509
-1.330907 -0.008655496 3.992723 0 -1 0 0.9066514 0.9216534
-1.863271 -0.008655496 3.992723 0 -1 0 0.9066417 0.9215558
-2.927997 -0.008655496 3.992723 0 -1 0 0.9066133 0.9214621
-3.46036 -0.008655496 3.992723 0 -1 0 0.9065671 0.9213756
-3.992723 -0.008655496 3.992723 0 -1 0 0.906505 0.9212998
-3.992723 -0.008655496 -3.992723 0 -1 0 0.9060538 0.921163
-3.46036 -0.008655496 -3.992723 0 -1 0 0.9059601 0.9211915
-2.927997 -0.008655496 -3.992723 0 -1 0 0.9058736 0.9212376
-1.863271 -0.008655496 -3.992723 0 -1 0 0.9057978 0.9212998
-1.330908 -0.008655496 -3.992723 0 -1 0 0.9057356 0.9213756
-0.7985446 -0.008655496 -3.992723 0 -1 0 0.9056895 0.9214621
0.7985444 -0.008655496 -3.992723 0 -1 0 0.905661 0.9215558
1.330908 -0.008655496 -3.992723 0 -1 0 0.9056514 0.9216534
1.863271 -0.008655496 -3.992723 0 -1 0 0.905661 0.9217509
2.927997 -0.008655496 -3.992723 0 -1 0 0.9056895 0.9218447
3.46036 -0.008655496 -3.992723 0 -1 0 0.9057356 0.9219311
3.992723 -0.008655496 -3.992723 0 -1 0 0.9057978 0.922007
3 0 1 2 
3 0 2 3 
3 4 5 6 
3 4 6 7 
3 8 9 10 
3 8 10 11 
3 12 13 14 
3 12 14 15 
3 16 232 17 
3 16 17 18 
3 7 6 19 
3 7 19 20 
3 233 234 21 
3 233 21 22 
3 23 9 24 
3 23 24 25 
3 26 27 28 
3 26 28 29 
3 235 30 31 
3 235 31 236 
3 235 236 32 
3 235 32 28 
3 235 28 237 
3 235 237 238 
3 239 33 34 
3 239 34 240 
3 239 240 35 
3 239 35 241 
3 36 37 38 
3 36 38 39 
3 40 41 42 
3 40 42 43 
3 44 45 242 
3 44 242 243 
3 244 46 47 
3 244 47 245 
3 246 247 248 
3 246 248 249 
3 36 250 251 
3 36 251 37 
3 252 253 254 
3 252 254 255 
3 252 255 256 
3 252 256 257 
3 252 257 258 
3 252 258 259 
3 252 259 260 
3 252 260 32 
3 252 32 48 
3 252 48 49 
3 252 49 50 
3 252 50 51 
3 252 51 52 
3 252 52 53 
3 252 53 54 
3 252 54 55 
3 252 55 56 
3 252 56 261 
3 252 261 241 
3 252 241 35 
3 252 35 57 
3 252 57 58 
3 252 58 59 
3 252 59 60 
3 252 60 61 
3 252 61 62 
3 252 62 63 
3 252 63 64 
3 252 64 65 
3 252 65 262 
3 252 262 238 
3 252 238 237 
3 252 237 263 
3 252 263 264 
3 252 264 265 
3 252 265 266 
3 252 266 267 
3 252 267 268 
3 66 67 269 
3 66 269 270 
3 271 68 272 
3 271 272 273 
3 68 66 270 
3 68 270 272 
3 69 70 274 
3 69 274 275 
3 67 71 276 
3 67 276 269 
3 71 72 277 
3 71 277 276 
3 72 73 278 
3 72 278 277 
3 73 74 279 
3 73 279 278 
3 74 69 275 
3 74 275 279 
3 70 23 25 
3 70 25 274 
3 75 76 280 
3 75 280 281 
3 282 77 78 
3 282 78 79 
3 282 79 80 
3 282 80 81 
3 282 81 82 
3 282 82 83 
3 282 83 84 
3 282 84 85 
3 282 85 283 
3 282 283 232 
3 282 232 16 
3 282 16 86 
3 282 86 87 
3 282 87 88 
3 282 88 89 
3 282 89 90 
3 282 90 91 
3 282 91 76 
3 282 76 75 
3 282 75 92 
3 282 92 19 
3 282 19 6 
3 19 92 284 
3 19 284 285 
3 92 75 281 
3 92 281 284 
3 87 86 286 
3 87 286 287 
3 76 91 288 
3 76 288 280 
3 91 90 289 
3 91 289 288 
3 90 89 290 
3 90 290 289 
3 89 88 291 
3 89 291 290 
3 88 87 287 
3 88 287 291 
3 86 16 18 
3 86 18 286 
3 23 70 69 
3 23 69 74 
3 23 74 73 
3 23 73 72 
3 23 72 71 
3 23 71 67 
3 23 67 66 
3 23 66 68 
3 23 68 271 
3 23 271 292 
3 23 292 293 
3 23 293 93 
3 23 93 94 
3 23 94 95 
3 23 95 96 
3 23 96 97 
3 23 97 98 
3 23 98 99 
3 23 99 100 
3 23 100 101 
3 23 101 10 
3 23 10 9 
3 294 102 103 
3 294 103 295 
3 11 10 296 
3 11 296 104 
3 104 296 295 
3 104 295 103 
3 297 105 106 
3 297 106 298 
3 102 294 299 
3 102 299 107 
3 107 299 300 
3 107 300 108 
3 301 109 108 
3 301 108 300 
3 109 301 302 
3 109 302 110 
3 110 302 298 
3 110 298 106 
3 303 111 112 
3 303 112 304 
3 105 297 13 
3 105 13 12 
3 3 2 305 
3 3 305 113 
3 113 305 304 
3 113 304 112 
3 306 114 115 
3 306 115 307 
3 111 303 308 
3 111 308 116 
3 116 308 309 
3 116 309 117 
3 310 118 117 
3 310 117 309 
3 118 310 311 
3 118 311 119 
3 119 311 307 
3 119 307 115 
3 114 306 5 
3 114 5 4 
3 239 312 313 
3 239 313 314 
3 239 314 315 
3 239 315 316 
3 239 316 317 
3 239 317 318 
3 239 318 319 
3 239 319 320 
3 239 320 321 
3 239 321 322 
3 239 322 323 
3 239 323 236 
3 239 236 31 
3 239 31 30 
3 239 30 235 
3 239 235 324 
3 239 324 325 
3 239 325 326 
3 239 326 327 
3 239 327 328 
3 239 328 329 
3 239 329 330 
3 239 330 331 
3 239 331 332 
3 239 332 333 
3 239 333 334 
3 239 334 335 
3 239 335 240 
3 239 240 34 
3 239 34 33 
3 120 121 122 
3 120 122 123 
3 124 125 126 
3 124 126 127 
3 122 121 127 
3 122 127 126 
3 121 120 124 
3 121 124 127 
3 120 123 125 
3 120 125 124 
3 123 122 126 
3 123 126 125 
3 128 129 130 
3 128 130 131 
3 132 133 134 
3 132 134 135 
3 130 129 135 
3 130 135 134 
3 129 128 132 
3 129 132 135 
3 128 131 133 
3 128 133 132 
3 131 130 134 
3 131 134 133 
3 136 137 138 
3 136 138 139 
3 140 141 142 
3 140 142 143 
3 138 137 143 
3 138 143 142 
3 137 136 140 
3 137 140 143 
3 136 139 141 
3 136 141 140 
3 139 138 142 
3 139 142 141 
3 144 145 146 
3 144 146 147 
3 148 149 150 
3 148 150 151 
3 146 145 151 
3 146 151 150 
3 145 144 148 
3 145 148 151 
3 144 147 149 
3 144 149 148 
3 147 146 150 
3 147 150 149 
3 152 153 154 
3 152 154 155 
3 156 157 158 
3 156 158 159 
3 154 153 159 
3 154 159 158 
3 153 152 156 
3 153 156 159 
3 152 155 157 
3 152 157 156 
3 155 154 158 
3 155 158 157 
3 160 161 162 
3 160 162 163 
3 164 165 166 
3 164 166 167 
3 162 161 167 
3 162 167 166 
3 161 160 164 
3 161 164 167 
3 160 163 165 
3 160 165 164 
3 163 162 166 
3 163 166 165 
3 168 169 170 
3 168 170 171 
3 172 173 174 
3 172 174 175 
3 170 169 175 
3 170 175 174 
3 169 168 172 
3 169 172 175 
3 168 171 173 
3 168 173 172 
3 171 170 174 
3 171 174 173 
3 176 177 178 
3 176 178 179 
3 180 181 182 
3 180 182 183 
3 178 177 183 
3 178 183 182 
3 177 176 180 
3 177 180 183 
3 176 179 181 
3 176 181 180 
3 179 178 182 
3 179 182 181 
3 184 185 186 
3 184 186 187 
3 188 189 190 
3 188 190 191 
3 186 185 191 
3 186 191 190 
3 185 184 188 
3 185 188 191 
3 184 187 189 
3 184 189 188 
3 187 186 190 
3 187 190 189 
3 192 193 194 
3 192 194 195 
3 196 197 198 
3 196 198 199 
3 194 193 199 
3 194 199 198 
3 193 192 196 
3 193 196 199 
3 192 195 197 
3 192 197 196 
3 195 194 198 
3 195 198 197 
3 200 201 202 
3 200 202 203 
3 204 205 206 
3 204 206 207 
3 202 201 207 
3 202 207 206 
3 201 200 204 
3 201 204 207 
3 200 203 205 
3 200 205 204 
3 203 202 206 
3 203 206 205 
3 208 209 210 
3 208 210 211 
3 212 213 214 
3 212 214 215 
3 210 209 215 
3 210 215 214 
3 209 208 212 
3 209 212 215 
3 208 211 213 
3 208 213 212 
3 211 210 214 
3 211 214 213 
3 216 217 218 
3 216 218 219 
3 220 221 222 
3 220 222 223 
3 218 217 223 
3 218 223 222 
3 217 216 220 
3 217 220 223 
3 216 219 221 
3 216 221 220 
3 219 218 222 
3 219 222 221 
3 224 225 226 
3 224 226 227 
3 228 229 230 
3 228 230 231 
3 226 225 231 
3 226 231 230 
3 225 224 228 
3 225 228 231 
3 224 227 229 
3 224 229 228 
3 227 226 230 
3 227 230 229 
