ply
format ascii 1.0
comment VCGLIB generated
comment TextureFile dummy.png
element vertex 78
property float x
property float y
property float z
property float nx
property float ny
property float nz
property float texture_u
property float texture_v
element face 60
property list uchar int vertex_indices
end_header
2.40138 0.00414088 2.40138 0 -1 0 0.9424518 0.9208542
-2.40138 0.00414088 2.40138 0 -1 0 0.9423019 0.9208542
-2.40138 0.00414088 -2.40138 0 -1 0 0.9423019 0.9207042
2.40138 0.00414088 -2.40138 0 -1 0 0.9424518 0.9207042
-4.0023 0.00414088 2.40138 -0.7071068 -0.7071068 0 0.9422519 0.9208542
-4.0023 0.00414088 -2.40138 -0.7071068 -0.7071067 0 0.9422519 0.9207042
-4.0023 0.00414088 -4.0023 -0.5773503 -0.5773502 -0.5773504 0.9422519 0.9206542
-2.40138 0.00414088 -4.0023 0 -0.7071068 -0.7071068 0.9423019 0.9206542
-2.40138 0.1045451 -4.0023 0 0.7071071 -0.7071065 0.9429519 0.9206542
-2.40138 0.1045451 -2.40138 0 1 0 0.9429519 0.9207042
2.40138 0.1045451 -2.40138 0 1 0 0.9428018 0.9207042
2.40138 0.1045451 -4.0023 0 0.7071068 -0.7071068 0.9428018 0.9206542
-4.0023 0.1045451 2.40138 -0.7071068 0.7071068 0 0.9427519 0.9202043
-4.0023 0.1045451 -2.40138 -0.7071068 0.7071068 0 0.9427519 0.9203542
-4.0023 0.00414088 4.0023 -0.5773504 -0.5773502 0.5773502 0.1600314 0.9252812
-4.0023 0.1045451 4.0023 -0.5773502 0.5773502 0.5773504 0.1602814 0.9252812
-2.40138 0.1045451 2.40138 0 1 0 0.9429519 0.9208542
2.40138 0.1045451 2.40138 0 1 0 0.9428018 0.9208542
4.0023 0.1045451 2.40138 0.7071068 0.7071068 0 0.9427519 0.9208542
4.0023 0.1045451 -2.40138 0.7071068 0.7071067 0 0.9427519 0.9207042
4.0023 0.1045451 -4.0023 0.5773503 0.5773502 -0.5773504 0.1602814 0.9257812
4.0023 0.00414088 2.40138 0.7071068 -0.7071068 0 0.9425019 0.9208542
4.0023 0.00414088 -2.40138 0.7071068 -0.7071068 0 0.9425019 0.9207042
4.0023 0.00414088 -4.0023 0.5773504 -0.5773502 -0.5773502 0.1600314 0.9257812
2.40138 0.00414088 -4.0023 0 -0.7071071 -0.7071065 0.9424518 0.9206542
-4.0023 0.1045451 -4.0023 -0.5773504 0.5773502 -0.5773502 0.1605313 0.9257812
2.40138 0.1045451 4.0023 0 0.7071071 0.7071065 0.9427519 0.9209542
-2.40138 0.1045451 4.0023 0 0.7071068 0.7071068 0.9427519 0.9211043
-2.40138 0.00414088 4.0023 0 -0.7071071 0.7071065 0.9425019 0.9211043
2.40138 0.00414088 4.0023 0 -0.7071068 0.7071068 0.9425019 0.9209542
4.0023 0.00414088 4.0023 0.5773502 -0.5773502 0.5773504 0.1600314 0.9260312
4.0023 0.1045451 4.0023 0.5773504 0.5773502 0.5773502 0.1602814 0.9260312
-4.0023 0.00414088 -2.40138 -0.7071068 -0.7071067 0 0.9425019 0.9203542
-4.0023 0.00414088 2.40138 -0.7071068 -0.7071068 0 0.9425019 0.9202043
-4.0023 0.1045451 2.40138 -0.7071068 0.7071068 0 0.1602814 0.9253312
-4.0023 0.00414088 2.40138 -0.7071068 -0.7071068 0 0.1600314 0.9253312
2.40138 0.1045451 -4.0023 0 0.7071068 -0.7071068 0.1603313 0.9257812
2.40138 0.1045451 -2.40138 0 1 0 0.1603313 0.9258312
4.0023 0.1045451 -2.40138 0.7071068 0.7071067 0 0.1602814 0.9258312
4.0023 0.00414088 -2.40138 0.7071068 -0.7071068 0 0.1600314 0.9258312
4.0023 0.00414088 -4.0023 0.5773504 -0.5773502 -0.5773502 0.9425019 0.9206542
-4.0023 0.1045451 2.40138 -0.7071068 0.7071068 0 0.9430019 0.9208542
-4.0023 0.1045451 -2.40138 -0.7071068 0.7071068 0 0.9430019 0.9207042
-2.40138 0.1045451 -4.0023 0 0.7071071 -0.7071065 0.1604814 0.9257812
-4.0023 0.1045451 -2.40138 -0.7071068 0.7071068 0 0.1605313 0.9258312
-2.40138 0.1045451 -2.40138 0 1 0 0.1604814 0.9258312
-2.40138 0.1045451 -4.0023 0 0.7071071 -0.7071065 0.9427519 0.9204543
2.40138 0.1045451 -4.0023 0 0.7071068 -0.7071068 0.9427519 0.9206042
2.40138 0.00414088 -4.0023 0 -0.7071071 -0.7071065 0.9425019 0.9206042
-2.40138 0.00414088 -4.0023 0 -0.7071068 -0.7071068 0.9425019 0.9204543
-4.0023 0.00414088 -4.0023 -0.5773503 -0.5773502 -0.5773504 0.1600314 0.9255311
-4.0023 0.1045451 -4.0023 -0.5773504 0.5773502 -0.5773502 0.1602814 0.9255311
-2.40138 0.1045451 -4.0023 0 0.7071071 -0.7071065 0.1602814 0.9255812
-2.40138 0.00414088 -4.0023 0 -0.7071068 -0.7071068 0.1600314 0.9255812
2.40138 0.1045451 4.0023 0 0.7071071 0.7071065 0.1602814 0.9260812
2.40138 0.00414088 4.0023 0 -0.7071068 0.7071068 0.1600314 0.9260812
2.40138 0.00414088 4.0023 0 -0.7071068 0.7071068 0.9424518 0.9209042
-2.40138 0.00414088 4.0023 0 -0.7071071 0.7071065 0.9423019 0.9209042
-4.0023 0.00414088 4.0023 -0.5773504 -0.5773502 0.5773502 0.9422519 0.9209042
-2.40138 0.1045451 4.0023 0 0.7071068 0.7071068 0.9429519 0.9209042
2.40138 0.1045451 4.0023 0 0.7071071 0.7071065 0.9428018 0.9209042
-4.0023 0.00414088 -2.40138 -0.7071068 -0.7071067 0 0.1600314 0.9254812
-4.0023 0.1045451 -2.40138 -0.7071068 0.7071068 0 0.1602814 0.9254812
4.0023 0.1045451 2.40138 0.7071068 0.7071068 0 0.1602814 0.9259812
2.40138 0.1045451 2.40138 0 1 0 0.1603313 0.9259812
2.40138 0.1045451 4.0023 0 0.7071071 0.7071065 0.1603313 0.9260312
2.40138 0.00414088 -4.0023 0 -0.7071071 -0.7071065 0.1600314 0.9257312
2.40138 0.1045451 -4.0023 0 0.7071068 -0.7071068 0.1602814 0.9257312
4.0023 0.00414088 2.40138 0.7071068 -0.7071068 0 0.1600314 0.9259812
-2.40138 0.00414088 4.0023 0 -0.7071071 0.7071065 0.1600314 0.9262312
-2.40138 0.1045451 4.0023 0 0.7071068 0.7071068 0.1602814 0.9262312
-4.0023 0.1045451 4.0023 -0.5773502 0.5773502 0.5773504 0.1602814 0.9262812
-4.0023 0.00414088 4.0023 -0.5773504 -0.5773502 0.5773502 0.1600314 0.9262812
4.0023 0.00414088 4.0023 0.5773502 -0.5773502 0.5773504 0.9425019 0.9209042
-2.40138 0.1045451 2.40138 0 1 0 0.1604814 0.9259812
-4.0023 0.1045451 2.40138 -0.7071068 0.7071068 0 0.1605313 0.9259812
-4.0023 0.1045451 4.0023 -0.5773502 0.5773502 0.5773504 0.1605313 0.9260312
-2.40138 0.1045451 4.0023 0 0.7071068 0.7071068 0.1604814 0.9260312
3 0 1 2 
3 0 2 3 
3 2 1 4 
3 2 4 5 
3 6 7 2 
3 6 2 5 
3 8 9 10 
3 8 10 11 
3 12 13 32 
3 12 32 33 
3 14 15 34 
3 14 34 35 
3 16 17 10 
3 16 10 9 
3 10 17 18 
3 10 18 19 
3 20 36 37 
3 20 37 38 
3 19 18 21 
3 19 21 22 
3 23 20 38 
3 23 38 39 
3 21 0 3 
3 21 3 22 
3 24 40 22 
3 24 22 3 
3 41 16 9 
3 41 9 42 
3 43 25 44 
3 43 44 45 
3 46 47 48 
3 46 48 49 
3 50 51 52 
3 50 52 53 
3 26 27 28 
3 26 28 29 
3 30 31 54 
3 30 54 55 
3 0 56 57 
3 0 57 1 
3 4 1 57 
3 4 57 58 
3 16 59 60 
3 16 60 17 
3 61 62 51 
3 61 51 50 
3 63 64 65 
3 63 65 31 
3 66 67 20 
3 66 20 23 
3 68 63 31 
3 68 31 30 
3 69 70 71 
3 69 71 72 
3 0 21 73 
3 0 73 56 
3 74 75 76 
3 74 76 77 
3 24 3 2 
3 24 2 7 
