ply
format ascii 1.0
comment VCGLIB generated
comment TextureFile dummy.png
element vertex 246
property float x
property float y
property float z
property float nx
property float ny
property float nz
property float texture_u
property float texture_v
element face 248
property list uchar int vertex_indices
end_header
-3.992723 -0.008655496 -2.395634 -1 0 0 0.041017 0.9120522
-3.992723 0.1374945 -2.395634 -1 0 0 0.04126698 0.9120522
-3.992723 0.1374945 -3.992723 -0.8944272 0 -0.4472136 0.04126698 0.9121022
-3.992723 -0.008655496 -3.992723 -0.4472136 0 -0.8944272 0.041017 0.9121022
3.46036 -0.008655496 -3.992723 0 0 -1 0.041017 0.9123355
3.46036 0.1374945 -3.992723 0 0 -1 0.04126698 0.9123355
3.992723 0.1374945 -3.992723 0.4082483 0.4082483 -0.8164966 0.04126698 0.9123522
3.992723 -0.008655496 -3.992723 0.8944272 0 -0.4472136 0.041017 0.9123522
3.992723 -0.008655496 2.395634 1 0 0 0.041017 0.9125522
3.992723 0.1374945 2.395634 0.5773503 0.5773503 -0.5773503 0.04126698 0.9125522
3.992723 0.1374945 3.992723 0.6666667 0.6666667 0.3333333 0.04126698 0.9126022
3.992723 -0.008655496 3.992723 0.4472136 0 0.8944272 0.041017 0.9126022
-3.46036 -0.008655496 3.992723 0 0 1 0.041017 0.9128355
-3.46036 0.1374945 3.992723 0 0 1 0.04126698 0.9128356
-3.992723 0.1374945 3.992723 0 0 1 0.04126698 0.9128522
-3.992723 -0.008655496 3.992723 0 0 1 0.041017 0.9128522
-3.46036 0.1374945 -2.395634 0 0.5547002 0.8320503 0.04150029 0.9124022
-3.992723 0.08581602 -2.395634 0 0 1 0.04151696 0.9124022
-3.46036 0.08581602 -2.395634 0 0 1 0.04150029 0.9124022
3.992723 0.1374945 -2.395634 0.5773503 0.5773503 0.5773503 0.04126698 0.9124022
3.992723 -0.008655496 -2.395634 1 0 0 0.041017 0.9124022
-3.992723 0.1374945 2.395634 -1 0 0 0.04126698 0.9119022
-3.992723 -0.008655496 2.395634 -1 0 0 0.041017 0.9119022
3.46036 0.1374945 2.395634 0 0.9743912 -0.2248595 0.04128364 0.9125522
3.992723 0.08581602 2.395634 0 0 -1 0.04126698 0.9125522
3.46036 0.08581602 2.395634 0 0 -1 0.04128364 0.9125522
-3.46036 0.08581602 -0.08872724 0 1 0 0.9056514 0.9211534
-3.992723 0.08581602 -0.088727 0 1 0 0.9066514 0.9211534
-3.992723 0.08581602 0.08872724 -0.7071068 0.7071068 0 0.9066514 0.9221534
-3.46036 0.08581602 0.08872724 0 1 0 0.9056514 0.9221534
-3.992723 -0.008655496 -0.08872718 0 -1 0 0.9062489 0.921163
-3.992723 -0.008655496 0.08872719 0 -1 0 0.9063427 0.9211915
-3.992723 0.08581602 2.395634 -0.8944272 0.4472136 0 0.906022 0.9221363
3.992723 -0.008655496 0.08872724 0 0 0 0.9060538 0.9221437
3.992723 -0.008655496 -0.08872712 0 0 0 0.9059601 0.9221153
3.992723 0.08581602 -2.395634 0.7071068 0.7071068 0 0.9065844 0.9219034
3.992723 0.08581602 -0.08872724 0.7071068 0.7071068 0 0.9056514 0.9211534
3.992723 0.08581602 0.08872724 0.7071068 0.7071068 0 0.9062808 0.9211704
1.863271 0.08581602 -0.08872724 0 1 0 0.9061514 0.9221534
2.927997 0.08581602 -0.08872724 0 0 0 0.9062808 0.9221363
3.46036 0.08581602 -0.08872724 0 0 0 0.9064014 0.9220864
3.46036 0.08581602 -2.395634 0 1 0 0.9066343 0.9217827
2.927997 0.08581602 -2.395634 0 1 0 0.9066514 0.9216534
1.863271 0.08581602 -2.395634 0 1 0 0.9066343 0.9215239
1.330908 0.08581602 -2.395634 0 1 0 0.9065844 0.9214033
0.7985446 0.08581602 -2.395634 0 1 0 0.906505 0.9212998
-0.7985442 0.08581602 -2.395634 0 1 0 0.9064014 0.9212204
-1.330907 0.08581602 -2.395634 0 1 0 0.9062808 0.9211704
-1.863271 0.08581602 -2.395634 0 1 0 0.9061514 0.9211534
-2.927997 0.08581602 -2.395634 0 1 0 0.906022 0.9211704
-2.927997 0.08581602 -0.08872724 0 0 0 0.9056514 0.9216534
-1.863271 0.08581602 -0.08872724 0 0 0 0.9056684 0.9217827
-1.330907 0.08581602 -0.08872724 0 0 0 0.9057183 0.9219034
-0.7985442 0.08581602 -0.08872724 0 0 0 0.9057978 0.922007
0.7985446 0.08581602 -0.08872724 0 0 0 0.9059014 0.9220864
1.330908 0.08581602 -0.08872724 0 0 0 0.906022 0.9221363
1.863271 0.08581602 0.08872724 0 1 0 0.01963091 0.9868894
2.927997 0.08581602 0.08872724 0 1 0 0.01959759 0.9868894
3.46036 0.08581602 0.08872724 0 1 0 0.9066514 0.9221534
-2.927997 0.08581602 0.08872724 0 1 0 0.01978087 0.9868895
-1.863271 0.08581602 0.08872724 0 1 0 0.01974756 0.9868895
1.330908 0.08581602 0.08872724 0 1 0 0.9066514 0.9221534
0.7985446 0.08581602 0.08872724 0 1 0 0.9066514 0.9221534
-0.7985442 0.08581602 0.08872724 0 1 0 0.01971418 0.9868894
-1.330907 0.08581602 0.08872724 0 1 0 0.9066514 0.9221534
-3.46036 0.08581602 2.395634 0 1 0 0.9061514 0.9221534
-2.927997 0.08581602 2.395634 0 0 0 0.9062808 0.9221363
-1.863271 0.08581602 2.395634 0 0 0 0.9064014 0.9220864
-1.330907 0.08581602 2.395634 0 0 0 0.906505 0.922007
-0.7985442 0.08581602 2.395634 0 0 0 0.9065844 0.9219034
0.7985446 0.08581602 2.395634 0 0 0 0.9066343 0.9217827
1.330908 0.08581602 2.395634 0 0 0 0.9066514 0.9216534
1.863271 0.08581602 2.395634 0 0 0 0.9066343 0.9215239
2.927997 0.08581602 2.395634 0 0 0 0.9065844 0.9214033
-2.927997 0.1374945 2.395634 0 0 -1 0.04148363 0.9125521
-1.863271 0.1374945 2.395634 0 0 -1 0.0414503 0.9125521
-3.46036 0.1374945 2.395634 0 0 -1 0.04150029 0.9125522
1.863271 0.1374945 2.395634 0 0 -1 0.04133364 0.9125522
2.927997 0.1374945 2.395634 0 0 -1 0.04130031 0.9125522
-1.330907 0.1374945 2.395634 0 0 -1 0.04143363 0.9125521
-0.7985444 0.1374945 2.395634 0 0 -1 0.04141697 0.9125521
0.7985446 0.1374945 2.395634 0 0 -1 0.04136697 0.9125522
1.330908 0.1374945 2.395634 0 0 -1 0.04135031 0.9125522
2.927997 0.1374945 -2.395634 0 0.5547002 0.8320503 0.04130031 0.9124022
1.863271 0.1374945 -2.395634 0 0.5547002 0.8320503 0.04133364 0.9124023
2.927997 0.1374945 -3.992723 0 0 0 0.04130031 0.9123522
1.863271 0.1374945 -3.992723 0 0 0 0.04133364 0.9123522
1.330908 0.1374945 -3.992723 0 0 0 0.04135031 0.9123522
0.7985446 0.1374945 -3.992723 0 0 0 0.04136697 0.9123522
-0.7985444 0.1374945 -3.992723 0 0 0 0.04141697 0.9123522
-1.330907 0.1374945 -3.992723 0 0 0 0.04143363 0.9123522
-1.863271 0.1374945 -3.992723 0 0 0 0.0414503 0.9123522
-2.927997 0.1374945 -3.992723 0 0 0 0.04148363 0.9123522
-3.46036 0.1374945 -3.992723 0 0 0 0.04150029 0.9123522
-2.927997 0.1374945 -2.395634 0 0.5547002 0.8320503 0.04148363 0.9124022
-1.863271 0.1374945 -2.395634 0 0.5547002 0.8320503 0.0414503 0.9124023
-1.330907 0.1374945 -2.395634 0 0.5547002 0.8320503 0.04143363 0.9124022
-0.7985444 0.1374945 -2.395634 0 0.5547002 0.8320503 0.04141697 0.9124022
0.7985446 0.1374945 -2.395634 0 0.5547002 0.8320503 0.04136697 0.9124023
1.330908 0.1374945 -2.395634 0 0.5547002 0.8320503 0.04135031 0.9124023
3.46036 0.1374945 -2.395634 0 0.5547002 0.8320503 0.04128364 0.9124022
-2.927997 0.1374945 3.992723 0 1 0 0.04148363 0.9126022
-1.863271 0.1374945 3.992723 0 1 0 0.0414503 0.9126022
-1.330908 0.1374945 3.992723 0 1 0 0.04143363 0.9126022
-0.7985446 0.1374945 3.992723 0 1 0 0.04141697 0.9126022
0.7985442 0.1374945 3.992723 0 1 0 0.04136697 0.9126021
1.330908 0.1374945 3.992723 0 1 0 0.04135031 0.9126021
1.863271 0.1374945 3.992723 0 1 0 0.04133365 0.9126022
2.927997 0.1374945 3.992723 0 1 0 0.04130031 0.9126022
3.46036 0.1374945 3.992723 0 1 0 0.04128364 0.9126022
1.863271 -0.008655496 3.992723 0 0 1 0.041017 0.9126689
2.927997 -0.008655496 3.992723 0 0 1 0.041017 0.9126356
3.46036 -0.008655496 3.992723 0 0 1 0.041017 0.9126189
-2.927997 -0.008655496 3.992723 0 0 1 0.04101699 0.9128189
-1.863271 -0.008655496 3.992723 0 0 1 0.041017 0.9127855
1.330908 -0.008655496 3.992723 0 0 1 0.041017 0.9126856
0.7985446 -0.008655496 3.992723 0 0 1 0.041017 0.9127023
-0.7985444 -0.008655496 3.992723 0 0 1 0.041017 0.9127522
-1.330907 -0.008655496 3.992723 0 0 1 0.041017 0.9127688
-1.863271 -0.008655496 -3.992723 0 0 -1 0.041017 0.9121689
-2.927997 -0.008655496 -3.992723 0 0 -1 0.041017 0.9121355
-3.46036 -0.008655496 -3.992723 0 0 -1 0.041017 0.9121189
2.927997 -0.008655496 -3.992723 0 0 -1 0.04101699 0.9123188
1.863271 -0.008655496 -3.992723 0 0 -1 0.041017 0.9122854
-1.330908 -0.008655496 -3.992723 0 0 -1 0.041017 0.9121855
-0.7985446 -0.008655496 -3.992723 0 0 -1 0.041017 0.9122022
0.7985444 -0.008655496 -3.992723 0 0 -1 0.041017 0.9122521
1.330908 -0.008655496 -3.992723 0 0 -1 0.041017 0.9122688
-3.992723 0.1374945 -2.395634 0 0.8944272 0.4472136 0.04151696 0.9124022
-3.992723 -0.008655496 3.992723 -1 0 0 0.041017 0.9118522
-3.992723 0.1374945 3.992723 -1 0 0 0.04126698 0.9118522
-3.992723 -0.008655496 -2.395634 -0.8944272 -0.4472136 0 0.9061514 0.9211534
-3.992723 -0.008655496 2.395634 -0.4472136 -0.8944272 0 0.9064292 0.9212376
-3.992723 0.08581602 -0.088727 -1 0 0 0.9057184 0.9214033
-3.992723 0.08581602 -2.395634 -0.4472136 0.8944272 0 0.9057978 0.9212998
3.992723 -0.008655496 2.395634 0.1465487 -0.9892035 0 0.9061514 0.9221534
3.992723 -0.008655496 -2.395634 1 0 0 0.9058736 0.9220691
3.992723 0.08581602 2.395634 0.7071068 0.7071068 0 0.9064014 0.9212204
3.992723 0.08581602 -0.08872724 0 1 0 0.906505 0.922007
-3.46036 0.08581602 -2.395634 0 1 0 0.9059014 0.9212203
-3.46036 0.08581602 -0.08872724 0 -1 0 0.9056684 0.9215239
1.863271 0.08581602 -0.08872724 0 1 0 0.01963091 0.9868839
2.927997 0.08581602 -0.08872724 0 1 0 0.01959759 0.9868838
3.46036 0.08581602 -0.08872724 0 1 0 0.9066514 0.9211534
3.992723 0.08581602 0.08872724 0 1 0 0.9056514 0.9221534
3.46036 0.08581602 -0.08872724 0 1 0 0.0195809 0.9868838
3.46036 0.08581602 0.08872724 0 1 0 0.0195809 0.9868894
-2.927997 0.08581602 -0.08872724 0 1 0 0.01978087 0.9868839
-1.863271 0.08581602 -0.08872724 0 1 0 0.01974756 0.9868839
1.863271 0.08581602 -0.08872724 0 1 0 0.9056514 0.9211534
1.330908 0.08581602 -0.08872724 0 1 0 0.9066514 0.9211534
1.863271 0.08581602 0.08872724 0 1 0 0.9056514 0.9221534
1.330908 0.08581602 -0.08872724 0 1 0 0.9056514 0.9211534
0.7985446 0.08581602 -0.08872724 0 1 0 0.9066514 0.9211534
1.330908 0.08581602 0.08872724 0 1 0 0.9056514 0.9221534
-0.7985442 0.08581602 -0.08872724 0 1 0 0.01971418 0.9868838
0.7985446 0.08581602 0.08872724 0 1 0 0.01966417 0.9868894
0.7985446 0.08581602 -0.08872724 0 1 0 0.01966417 0.9868839
-0.7985442 0.08581602 -0.08872724 0 1 0 0.9056514 0.9211534
-1.330907 0.08581602 -0.08872724 0 1 0 0.9066514 0.9211534
-0.7985442 0.08581602 0.08872724 0 1 0 0.9056514 0.9221534
-1.330907 0.08581602 -0.08872724 0 1 0 0.9056514 0.9211534
-1.863271 0.08581602 -0.08872724 0 1 0 0.9066514 0.9211534
-1.863271 0.08581602 0.08872724 0 1 0 0.9066514 0.9221534
-1.330907 0.08581602 0.08872724 0 1 0 0.9056514 0.9221534
-3.46036 0.08581602 -0.08872724 0 1 0 0.01979756 0.9868839
-3.46036 0.08581602 0.08872724 0 1 0 0.01979756 0.9868895
3.46036 0.08581602 2.395634 0 0 0 0.906505 0.9212998
3.46036 0.08581602 0.08872724 0 1 0 0.9061514 0.9211534
2.927997 0.08581602 0.08872724 0 1 0 0.906022 0.9211704
1.863271 0.08581602 0.08872724 0 1 0 0.9059014 0.9212203
1.330908 0.08581602 0.08872724 0 1 0 0.9057978 0.9212998
0.7985446 0.08581602 0.08872724 0 1 0 0.9057184 0.9214033
-0.7985442 0.08581602 0.08872724 0 1 0 0.9056684 0.9215239
-1.330907 0.08581602 0.08872724 0 1 0 0.9056514 0.9216534
-1.863271 0.08581602 0.08872724 0 1 0 0.9056684 0.9217827
-2.927997 0.08581602 0.08872724 0 1 0 0.9057183 0.9219034
-3.46036 0.08581602 0.08872724 0 1 0 0.9057978 0.922007
-3.992723 0.08581602 0.08872724 0 1 0 0.9059014 0.9220864
-1.863271 0.08581602 2.395634 0 0 -1 0.0414503 0.9125521
-2.927997 0.08581602 2.395634 0 0 -1 0.04148363 0.9125521
-3.992723 0.1374945 2.395634 0 0.4472136 -0.8944272 0.04151696 0.9125522
-3.46036 0.08581602 2.395634 0 0 -1 0.04150029 0.9125522
-3.992723 0.08581602 2.395634 0 0 -1 0.04151696 0.9125522
2.927997 0.08581602 2.395634 0 0 -1 0.04130031 0.9125522
1.863271 0.08581602 2.395634 0 0 -1 0.04133364 0.9125522
-1.330907 0.08581602 2.395634 0 0 -1 0.04143363 0.9125521
-0.7985442 0.08581602 2.395634 0 0 -1 0.04141697 0.9125521
0.7985446 0.08581602 2.395634 0 0 -1 0.04136697 0.9125522
1.330908 0.08581602 2.395634 0 0 -1 0.04135031 0.9125522
1.863271 0.08581602 -2.395634 0 0 1 0.04133364 0.9124023
2.927997 0.08581602 -2.395634 0 0 1 0.04130031 0.9124022
3.46036 0.1374945 -3.992723 0 1 0 0.04128364 0.9123522
-3.992723 0.1374945 -3.992723 0 1 0 0.04151696 0.9123522
3.46036 0.08581602 -2.395634 0 0 1 0.04128364 0.9124022
3.992723 0.08581602 -2.395634 0 0 1 0.04126698 0.9124022
-2.927997 0.08581602 -2.395634 0 0 1 0.04148363 0.9124022
-1.863271 0.08581602 -2.395634 0 0 1 0.0414503 0.9124023
1.330908 0.08581602 -2.395634 0 0 1 0.04135031 0.9124023
0.7985446 0.08581602 -2.395634 0 0 1 0.04136697 0.9124023
-0.7985442 0.08581602 -2.395634 0 0 1 0.04141697 0.9124022
-1.330907 0.08581602 -2.395634 0 0 1 0.04143363 0.9124022
-3.992723 0.1374945 3.992723 0 1 0 0.04151696 0.9126022
-3.46036 0.1374945 3.992723 0 1 0 0.04150029 0.9126022
1.863271 0.1374945 3.992723 0 0 1 0.04126698 0.9126689
2.927997 0.1374945 3.992723 0 0 1 0.04126697 0.9126355
3.46036 0.1374945 3.992723 0 0 1 0.04126698 0.9126189
-2.927997 0.1374945 3.992723 0 0 1 0.04126697 0.9128189
-1.863271 0.1374945 3.992723 0 0 1 0.04126697 0.9127856
1.330908 0.1374945 3.992723 0 0 1 0.04126697 0.9126856
0.7985442 0.1374945 3.992723 0 0 1 0.04126697 0.9127022
-0.7985446 0.1374945 3.992723 0 0 1 0.04126698 0.9127523
-1.330908 0.1374945 3.992723 0 0 1 0.04126697 0.9127689
-1.863271 0.1374945 -3.992723 0 0 -1 0.04126698 0.9121689
-2.927997 0.1374945 -3.992723 0 0 -1 0.04126697 0.9121355
-3.46036 0.1374945 -3.992723 0 0 -1 0.04126698 0.9121189
2.927997 0.1374945 -3.992723 0 0 -1 0.04126697 0.9123188
1.863271 0.1374945 -3.992723 0 0 -1 0.04126697 0.9122856
-1.330907 0.1374945 -3.992723 0 0 -1 0.04126697 0.9121855
-0.7985444 0.1374945 -3.992723 0 0 -1 0.04126697 0.9122022
0.7985446 0.1374945 -3.992723 0 0 -1 0.04126698 0.9122522
1.330908 0.1374945 -3.992723 0 0 -1 0.04126697 0.9122689
3.992723 -0.008655496 3.992723 0 -1 0 0.9062489 0.9221437
3.46036 -0.008655496 3.992723 0 -1 0 0.9063427 0.9221153
2.927997 -0.008655496 3.992723 0 -1 0 0.9064292 0.9220691
1.863271 -0.008655496 3.992723 0 -1 0 0.906505 0.922007
1.330908 -0.008655496 3.992723 0 -1 0 0.9065671 0.9219311
0.7985446 -0.008655496 3.992723 0 -1 0 0.9066133 0.9218447
-0.7985444 -0.008655496 3.992723 0 -1 0 0.9066417 0.9217509
-1.330907 -0.008655496 3.992723 0 -1 0 0.9066514 0.9216534
-1.863271 -0.008655496 3.992723 0 -1 0 0.9066417 0.9215558
-2.927997 -0.008655496 3.992723 0 -1 0 0.9066133 0.9214621
-3.46036 -0.008655496 3.992723 0 -1 0 0.9065671 0.9213756
-3.992723 -0.008655496 3.992723 0 -1 0 0.906505 0.9212998
-3.992723 -0.008655496 -3.992723 0 -1 0 0.9060538 0.921163
-3.46036 -0.008655496 -3.992723 0 -1 0 0.9059601 0.9211915
-2.927997 -0.008655496 -3.992723 0 -1 0 0.9058736 0.9212376
-1.863271 -0.008655496 -3.992723 0 -1 0 0.9057978 0.9212998
-1.330908 -0.008655496 -3.992723 0 -1 0 0.9057356 0.9213756
-0.7985446 -0.008655496 -3.992723 0 -1 0 0.9056895 0.9214621
0.7985444 -0.008655496 -3.992723 0 -1 0 0.905661 0.9215558
1.330908 -0.008655496 -3.992723 0 -1 0 0.9056514 0.9216534
1.863271 -0.008655496 -3.992723 0 -1 0 0.905661 0.9217509
2.927997 -0.008655496 -3.992723 0 -1 0 0.9056895 0.9218447
3.46036 -0.008655496 -3.992723 0 -1 0 0.9057356 0.9219311
3.992723 -0.008655496 -3.992723 0 -1 0 0.9057978 0.922007
3 0 1 2 
3 0 2 3 
3 4 5 6 
3 4 6 7 
3 8 9 10 
3 8 10 11 
3 12 13 14 
3 12 14 15 
3 16 128 17 
3 16 17 18 
3 7 6 19 
3 7 19 20 
3 129 130 21 
3 129 21 22 
3 23 9 24 
3 23 24 25 
3 26 27 28 
3 26 28 29 
3 131 30 31 
3 131 31 132 
3 131 132 32 
3 131 32 28 
3 131 28 133 
3 131 133 134 
3 135 33 34 
3 135 34 136 
3 135 136 35 
3 135 35 36 
3 135 36 37 
3 135 37 137 
3 38 39 40 
3 38 40 138 
3 38 138 35 
3 38 35 41 
3 38 41 42 
3 38 42 43 
3 38 43 44 
3 38 44 45 
3 38 45 46 
3 38 46 47 
3 38 47 48 
3 38 48 49 
3 38 49 139 
3 38 139 134 
3 38 134 133 
3 38 133 140 
3 38 140 50 
3 38 50 51 
3 38 51 52 
3 38 52 53 
3 38 53 54 
3 38 54 55 
3 141 56 57 
3 141 57 142 
3 36 143 58 
3 36 58 144 
3 145 142 57 
3 145 57 146 
3 147 59 60 
3 147 60 148 
3 149 150 61 
3 149 61 151 
3 152 153 62 
3 152 62 154 
3 155 63 156 
3 155 156 157 
3 158 159 64 
3 158 64 160 
3 161 162 163 
3 161 163 164 
3 147 165 166 
3 147 166 59 
3 65 66 67 
3 65 67 68 
3 65 68 69 
3 65 69 70 
3 65 70 71 
3 65 71 72 
3 65 72 73 
3 65 73 167 
3 65 167 137 
3 65 137 37 
3 65 37 168 
3 65 168 169 
3 65 169 170 
3 65 170 171 
3 65 171 172 
3 65 172 173 
3 65 173 174 
3 65 174 175 
3 65 175 176 
3 65 176 177 
3 65 177 178 
3 65 178 32 
3 74 75 179 
3 74 179 180 
3 181 76 182 
3 181 182 183 
3 76 74 180 
3 76 180 182 
3 77 78 184 
3 77 184 185 
3 75 79 186 
3 75 186 179 
3 79 80 187 
3 79 187 186 
3 80 81 188 
3 80 188 187 
3 81 82 189 
3 81 189 188 
3 82 77 185 
3 82 185 189 
3 78 23 25 
3 78 25 184 
3 83 84 190 
3 83 190 191 
3 192 85 86 
3 192 86 87 
3 192 87 88 
3 192 88 89 
3 192 89 90 
3 192 90 91 
3 192 91 92 
3 192 92 93 
3 192 93 193 
3 192 193 128 
3 192 128 16 
3 192 16 94 
3 192 94 95 
3 192 95 96 
3 192 96 97 
3 192 97 98 
3 192 98 99 
3 192 99 84 
3 192 84 83 
3 192 83 100 
3 192 100 19 
3 192 19 6 
3 19 100 194 
3 19 194 195 
3 100 83 191 
3 100 191 194 
3 95 94 196 
3 95 196 197 
3 84 99 198 
3 84 198 190 
3 99 98 199 
3 99 199 198 
3 98 97 200 
3 98 200 199 
3 97 96 201 
3 97 201 200 
3 96 95 197 
3 96 197 201 
3 94 16 18 
3 94 18 196 
3 23 78 77 
3 23 77 82 
3 23 82 81 
3 23 81 80 
3 23 80 79 
3 23 79 75 
3 23 75 74 
3 23 74 76 
3 23 76 181 
3 23 181 202 
3 23 202 203 
3 23 203 101 
3 23 101 102 
3 23 102 103 
3 23 103 104 
3 23 104 105 
3 23 105 106 
3 23 106 107 
3 23 107 108 
3 23 108 109 
3 23 109 10 
3 23 10 9 
3 204 110 111 
3 204 111 205 
3 11 10 206 
3 11 206 112 
3 112 206 205 
3 112 205 111 
3 207 113 114 
3 207 114 208 
3 110 204 209 
3 110 209 115 
3 115 209 210 
3 115 210 116 
3 211 117 116 
3 211 116 210 
3 117 211 212 
3 117 212 118 
3 118 212 208 
3 118 208 114 
3 213 119 120 
3 213 120 214 
3 113 207 13 
3 113 13 12 
3 3 2 215 
3 3 215 121 
3 121 215 214 
3 121 214 120 
3 216 122 123 
3 216 123 217 
3 119 213 218 
3 119 218 124 
3 124 218 219 
3 124 219 125 
3 220 126 125 
3 220 125 219 
3 126 220 221 
3 126 221 127 
3 127 221 217 
3 127 217 123 
3 122 216 5 
3 122 5 4 
3 135 222 223 
3 135 223 224 
3 135 224 225 
3 135 225 226 
3 135 226 227 
3 135 227 228 
3 135 228 229 
3 135 229 230 
3 135 230 231 
3 135 231 232 
3 135 232 233 
3 135 233 132 
3 135 132 31 
3 135 31 30 
3 135 30 131 
3 135 131 234 
3 135 234 235 
3 135 235 236 
3 135 236 237 
3 135 237 238 
3 135 238 239 
3 135 239 240 
3 135 240 241 
3 135 241 242 
3 135 242 243 
3 135 243 244 
3 135 244 245 
3 135 245 136 
3 135 136 34 
3 135 34 33 
