ply
format ascii 1.0
comment VCGLIB generated
comment TextureFile dummy.png
element vertex 111
property float x
property float y
property float z
property float nx
property float ny
property float nz
property float texture_u
property float texture_v
element face 120
property list uchar int vertex_indices
end_header
-3.992723 -0.008655496 -2.395634 -1 0 0 0.041017 0.9120522
-3.992723 0.1374945 -2.395634 -1 0 0 0.04126698 0.9120522
-3.992723 0.1374945 -3.992723 -0.7071068 0 -0.7071068 0.04126698 0.9121022
-3.992723 -0.008655496 -3.992723 -0.7071068 0 -0.7071068 0.041017 0.9121022
3.992723 -0.008655496 2.395634 1 0 0 0.041017 0.9125522
3.992723 0.1374945 2.395634 1 0 0 0.04126698 0.9125522
3.992723 0.1374945 3.992723 0.8944272 0 0.4472136 0.04126698 0.9126022
3.992723 -0.008655496 3.992723 0.4472136 0 0.8944272 0.041017 0.9126022
-3.46036 0.1374945 -2.395634 0 0.5547002 0.8320503 0.04525268 0.9137179
-3.992723 0.08581602 -2.395634 0 0 1 0.04525268 0.9137179
-3.46036 0.08581602 -2.395634 0 0 1 0.04525268 0.9137179
3.992723 -0.008655496 -3.992723 0.7071068 0 -0.7071068 0.041017 0.9123522
3.992723 0.1374945 -3.992723 0.7071068 0 -0.7071068 0.04126698 0.9123522
3.992723 0.1374945 -2.395634 1 0 0 0.04126698 0.9124022
3.992723 -0.008655496 -2.395634 1 0 0 0.041017 0.9124022
-3.992723 -0.008655496 3.992723 -1 0 0 0.041017 0.9118522
-3.992723 0.1374945 3.992723 -1 0 0 0.04126698 0.9118522
-3.992723 0.1374945 2.395634 -1 0 0 0.04126698 0.9119022
-3.992723 -0.008655496 2.395634 -1 0 0 0.041017 0.9119022
3.46036 0.1374945 2.395634 0 0.7071068 -0.7071068 0.04525244 0.9137181
3.992723 0.08581602 2.395634 0 0 -1 0.04525244 0.9137181
3.46036 0.08581602 2.395634 0 0 -1 0.04525244 0.9137181
-3.992723 -0.008655496 -0.08872718 0 -1 0 0.9062489 0.921163
-3.992723 -0.008655496 0.08872719 0 -1 0 0.9063427 0.9211915
-3.992723 0.08581602 2.395634 -0.8944272 0.4472136 0 0.906022 0.9221363
3.992723 -0.008655496 0.08872724 0 0 0 0.9060538 0.9221437
3.992723 -0.008655496 -0.08872712 0 0 0 0.9059601 0.9221153
3.992723 0.08581602 -2.395634 0.7071068 0.7071068 0 0.9065844 0.9219034
-3.46036 0.1374945 2.395634 0 0.5547002 -0.8320503 0.04525268 0.9137181
-3.46036 0.08581602 2.395634 0 0 -1 0.04525268 0.9137181
-2.927997 0.1374945 2.395634 0 0.5547002 -0.8320503 0.04525265 0.9137181
-2.927997 0.08581602 2.395634 0 0 -1 0.04525265 0.9137181
2.397208 0.08581602 3.992725 0.007427558 0.5546041 0.8320813 0.9065571 0.9214691
-2.388038 0.08581602 3.992782 -0.008448241 0.4471037 0.8944423 0.9063088 0.9220688
-2.392538 -0.008655496 3.992723 -0.005238665 -0.5547869 0.8319761 0.9064537 0.921469
2.397232 -0.008655496 3.992723 0.009462949 -0.7071444 0.7070059 0.9063001 0.9219751
2.927997 0.1374945 2.395634 0 0 -1 0.04525247 0.9137181
2.927997 0.08581602 2.395634 0 0 -1 0.04525247 0.9137181
2.927997 0.1374945 -2.395634 0 0.5547002 0.8320503 0.04525247 0.9137179
1.863271 0.1374945 -2.395634 0 0.5547002 0.8320503 0.0452525 0.9137179
1.863271 0.08581602 -2.395634 0 0 1 0.0452525 0.9137179
2.927997 0.08581602 -2.395634 0 0 1 0.04525247 0.9137179
-2.927997 0.1374945 -2.395634 0 0.5547002 0.8320503 0.04525265 0.9137179
-1.863271 0.1374945 -2.395634 0 0.5547002 0.8320503 0.04525262 0.9137179
-1.330907 0.1374945 -2.395634 0 0.5547002 0.8320503 0.04525259 0.9137179
-0.7985444 0.1374945 -2.395634 0 0.5547002 0.8320503 0.04525259 0.9137179
0.7985446 0.1374945 -2.395634 0 0.5547002 0.8320503 0.04525253 0.9137179
1.330908 0.1374945 -2.395634 0 0.5547002 0.8320503 0.04525253 0.9137179
3.46036 0.1374945 -2.395634 0 0.5547002 0.8320503 0.04525244 0.9137179
3.46036 0.08581602 -2.395634 0 0 1 0.04525244 0.9137179
-2.927997 0.08581602 -2.395634 0 0 1 0.04525265 0.9137179
-1.863271 0.08581602 -2.395634 0 0 1 0.04525262 0.9137179
1.330908 0.08581602 -2.395634 0 0 1 0.04525253 0.9137179
0.7985446 0.08581602 -2.395634 0 0 1 0.04525253 0.9137179
-0.7985442 0.08581602 -2.395634 0 0 1 0.04525259 0.9137179
-1.330907 0.08581602 -2.395634 0 0 1 0.04525259 0.9137179
2.397306 0.1374945 2.395634 -0.8287002 0.3734703 -0.4168645 0.0452525 0.9137181
2.397305 0.1374945 3.992723 0 1 0 0.0452525 0.9137182
-2.390415 0.1374945 3.992723 -0.009450819 0.0001372918 0.9999554 0.04126698 0.912802
-2.390417 0.1374945 2.395634 0.5680961 0.5948519 -0.5686986 0.04525265 0.9137181
2.402654 0.08581602 2.395634 -0.4442332 -0.04597164 -0.894731 0.0452525 0.9137181
-2.388038 0.08581602 2.395634 0 0 -1 0.04525265 0.9137181
-3.992723 0.1374945 -2.395634 0 0.8944272 0.4472136 0.04525268 0.9137179
3.992723 0.1374945 2.395634 0 0.7071068 -0.7071068 0.04525244 0.9137181
-3.992723 -0.008655496 -2.395634 -0.7071068 -0.7071068 0 0.9061514 0.9211534
-3.992723 -0.008655496 2.395634 -0.4472136 -0.8944272 0 0.9064292 0.9212376
-3.992723 0.08581602 -2.395634 -0.4472136 0.8944272 0 0.9057978 0.9212998
3.992723 -0.008655496 2.395634 0.2169305 -0.9761871 0 0.9061514 0.9221534
3.992723 -0.008655496 -2.395634 1 0 0 0.9058736 0.9220691
3.992723 0.08581602 2.395634 0.7071068 0.7071068 0 0.9064014 0.9212204
-3.992723 0.1374945 2.395634 0 0 0 0.04151696 0.9125522
-3.992723 0.08581602 2.395634 0 0 0 0.04151696 0.9125522
-3.992723 0.1374945 2.395634 0 0.7071068 -0.7071068 0.04525268 0.9137181
-3.992723 0.08581602 2.395634 0 0 -1 0.04525268 0.9137181
3.992723 0.1374945 -3.992723 0 1 0 0.04525244 0.9137179
-3.992723 0.1374945 -3.992723 0 1 0 0.04525268 0.9137179
3.992723 0.1374945 -2.395634 0 0.4472136 0.8944272 0.04525244 0.9137179
3.992723 0.08581602 -2.395634 0 0 1 0.04525244 0.9137179
3.992723 0.1374945 3.992723 0 1 0 0.04525244 0.9137182
-3.992723 0.1374945 3.992723 0 0 1 0.04126698 0.9128522
-3.992723 -0.008655496 3.992723 0 0 1 0.041017 0.9128522
-2.392538 -0.008655496 3.992723 0 0 1 0.041017 0.9128022
3.992723 -0.008655496 3.992723 0 -1 0 0.9062489 0.9221437
-3.992723 -0.008655496 3.992723 0 -1 0 0.906505 0.9212998
-3.992723 -0.008655496 -3.992723 0 -1 0 0.9060538 0.921163
3.992723 -0.008655496 -3.992723 0 -1 0 0.9057978 0.922007
-2.390415 0.1374945 3.992723 0 1 0 0.04525265 0.9137182
-3.992723 0.1374945 3.992723 0 1 0 0.04525268 0.9137182
2.397305 0.1374945 3.992723 0.008922138 -4.45381e-06 0.9999602 0.04126698 0.9126521
2.397232 -0.008655496 3.992723 0 0 1 0.041017 0.9126521
-2.390415 0.1374945 3.992723 0.9989429 0.04596869 -6.710636e-07 0.04525244 0.9137183
-2.388038 0.08581602 3.992782 0.9989439 0.045948 0 0.04611748 0.9137276
-2.388038 0.08581602 2.395634 0.9989429 0.04596869 -6.710636e-07 0.04611748 0.9137276
2.397208 0.08581602 3.992725 -0.9987177 -0.05059847 -0.001698536 0.04611772 0.913727
2.397305 0.1374945 3.992723 -0.9999983 0.00187769 -5.971318e-07 0.04525244 0.9137182
-2.388038 0.08581602 2.395634 0 1 0 0.9063088 0.9220688
2.402654 0.08581602 2.395634 0 1 0 0.9065571 0.9214691
2.927997 0.08581602 2.395634 0 0 0 0.9065844 0.9214033
3.46036 0.08581602 2.395634 0 0 0 0.906505 0.9212998
3.46036 0.08581602 -2.395634 0 1 0 0.9066343 0.9217827
2.927997 0.08581602 -2.395634 0 1 0 0.9066514 0.9216534
1.863271 0.08581602 -2.395634 0 1 0 0.9066343 0.9215239
1.330908 0.08581602 -2.395634 0 1 0 0.9065844 0.9214033
0.7985446 0.08581602 -2.395634 0 1 0 0.906505 0.9212998
-0.7985442 0.08581602 -2.395634 0 1 0 0.9064014 0.9212204
-1.330907 0.08581602 -2.395634 0 1 0 0.9062808 0.9211704
-1.863271 0.08581602 -2.395634 0 1 0 0.9061514 0.9211534
-2.927997 0.08581602 -2.395634 0 1 0 0.906022 0.9211704
-3.46036 0.08581602 -2.395634 0 1 0 0.9059014 0.9212203
-3.46036 0.08581602 2.395634 0 0 0 0.9061514 0.9221534
-2.927997 0.08581602 2.395634 0 0 0 0.9062808 0.9221363
3 0 1 2 
3 0 2 3 
3 4 5 6 
3 4 6 7 
3 8 62 9 
3 8 9 10 
3 11 12 13 
3 11 13 14 
3 15 16 17 
3 15 17 18 
3 19 63 20 
3 19 20 21 
3 64 22 23 
3 64 23 65 
3 64 65 24 
3 64 24 66 
3 67 25 26 
3 67 26 68 
3 67 68 27 
3 67 27 69 
3 66 1 64 
3 27 68 13 
3 70 71 65 
3 67 69 5 
3 72 28 29 
3 72 29 73 
3 28 30 31 
3 28 31 29 
3 32 33 34 
3 32 34 35 
3 36 19 21 
3 36 21 37 
3 38 39 40 
3 38 40 41 
3 74 75 62 
3 74 62 8 
3 74 8 42 
3 74 42 43 
3 74 43 44 
3 74 44 45 
3 74 45 46 
3 74 46 47 
3 74 47 39 
3 74 39 38 
3 74 38 48 
3 74 48 76 
3 76 48 49 
3 76 49 77 
3 48 38 41 
3 48 41 49 
3 43 42 50 
3 43 50 51 
3 39 47 52 
3 39 52 40 
3 47 46 53 
3 47 53 52 
3 46 45 54 
3 46 54 53 
3 45 44 55 
3 45 55 54 
3 44 43 51 
3 44 51 55 
3 42 8 10 
3 42 10 50 
3 19 36 56 
3 19 56 57 
3 19 57 78 
3 19 78 63 
3 79 80 81 
3 79 81 58 
3 2 12 11 
3 2 11 3 
3 67 82 35 
3 67 35 34 
3 67 34 83 
3 67 83 65 
3 67 65 23 
3 67 23 22 
3 67 22 64 
3 67 64 84 
3 67 84 85 
3 67 85 68 
3 67 68 26 
3 67 26 25 
3 86 59 30 
3 86 30 28 
3 86 28 72 
3 86 72 87 
3 88 89 7 
3 88 7 6 
3 60 56 36 
3 60 36 37 
3 61 31 30 
3 61 30 59 
3 34 33 58 
3 90 91 92 
3 90 92 59 
3 35 88 32 
3 56 60 93 
3 56 93 94 
3 95 33 32 
3 95 32 96 
3 95 96 97 
3 95 97 98 
3 95 98 69 
3 95 69 27 
3 95 27 99 
3 95 99 100 
3 95 100 101 
3 95 101 102 
3 95 102 103 
3 95 103 104 
3 95 104 105 
3 95 105 106 
3 95 106 107 
3 95 107 108 
3 95 108 66 
3 95 66 24 
3 95 24 109 
3 95 109 110 
