ply
format ascii 1.0
comment VCGLIB generated
comment TextureFile MainTexture.png
element vertex 401
property float x
property float y
property float z
property float nx
property float ny
property float nz
property float texture_u
property float texture_v
element face 568
property list uchar int vertex_indices
end_header
-5.33e-08 0.237809 -0.01695048 2.558018e-07 0.3011819 -0.9535667 0.3041275 0.9062899
-5.33e-08 0.7067086 -0.01695048 1.650804e-07 0.6700308 -0.7423333 0.3041275 0.9066225
0.005797409 0.7067086 -0.01592822 0.2538932 0.6700312 -0.6975647 0.304072 0.9066225
0.005797409 0.237809 -0.01592822 0.3261396 0.3011817 -0.8960595 0.304072 0.9062899
0.01089562 0.7067086 -0.01298477 0.4771623 0.670031 -0.5686604 0.3040164 0.9066225
0.01089562 0.237809 -0.01298477 0.6129405 0.3011818 -0.7304748 0.3040164 0.9062899
0.01467964 0.7067086 -0.008475147 0.6428791 0.670031 -0.3711669 0.3039609 0.9066225
0.01467964 0.237809 -0.008475147 0.8258127 0.3011818 -0.476784 0.3039609 0.9062899
0.01669308 0.7067086 -0.002943276 0.7310558 0.6700307 -0.1289041 0.3039053 0.9066225
0.01669308 0.237809 -0.002943276 0.9390801 0.301182 -0.1655842 0.3039053 0.9062899
0.01669307 0.7067086 0.002943621 0.7310551 0.6700312 0.1289058 0.3038498 0.9066225
0.01669307 0.237809 0.002943621 0.9390798 0.3011817 0.1655865 0.3038498 0.9062899
0.01467963 0.7067086 0.008475496 0.6428795 0.6700312 0.3711658 0.3037942 0.9066225
0.01467963 0.237809 0.008475496 0.8258135 0.3011816 0.4767826 0.3037942 0.9062899
0.01089562 0.7067086 0.01298513 0.4771631 0.6700307 0.56866 0.3037387 0.9066225
0.01089562 0.237809 0.01298513 0.6129414 0.3011819 0.730474 0.3037387 0.9062899
0.005797409 0.7067086 0.01592857 0.2538921 0.6700309 0.6975654 0.3036831 0.9066225
0.005797409 0.237809 0.01592857 0.3261379 0.3011818 0.89606 0.3036831 0.9062899
-5.074053e-08 0.7067086 0.01695081 1.430136e-08 0.6700314 0.7423328 0.3036276 0.9066225
-5.074053e-08 0.237809 0.01695081 4.080648e-08 0.3011815 0.9535668 0.3036276 0.9062899
-0.005797513 0.7067086 0.01592857 -0.2538923 0.6700308 0.6975654 0.303572 0.9066225
-0.005797513 0.237809 0.01592857 -0.3261381 0.3011817 0.89606 0.303572 0.9062899
-0.01089571 0.7067086 0.01298513 -0.4771623 0.670031 0.5686604 0.3035164 0.9066225
-0.01089571 0.237809 0.01298513 -0.6129406 0.3011817 0.7304748 0.3035164 0.9062899
-0.01467974 0.7067086 0.008475503 -0.6428794 0.6700309 0.3711667 0.3034609 0.9066225
-0.01467974 0.237809 0.008475503 -0.8258129 0.3011818 0.4767836 0.3034609 0.9062899
-0.01669318 0.7067086 0.002943629 -0.7310555 0.670031 0.1289047 0.3034053 0.9066225
-0.01669318 0.237809 0.002943629 -0.93908 0.3011817 0.165585 0.3034053 0.9062899
-0.01669318 0.7067086 -0.002943268 -0.7310554 0.6700312 -0.1289038 0.3033498 0.9066225
-0.01669318 0.237809 -0.002943268 -0.9390802 0.3011816 -0.1655839 0.3033498 0.9062899
-0.01467976 0.7067086 -0.00847514 -0.64288 0.6700307 -0.3711659 0.3032942 0.9066225
-0.01467976 0.237809 -0.00847514 -0.8258137 0.3011819 -0.4767823 0.3032942 0.9062899
-0.01089573 0.7067086 -0.01298477 -0.4771626 0.670031 -0.5686601 0.3032387 0.9066225
-0.01089573 0.237809 -0.01298477 -0.612941 0.3011818 -0.7304744 0.3032387 0.9062899
-0.004265369 0.7067086 0.01171903 -0.2268586 0.7483615 0.6232899 0.3033172 0.9057066
-5.087609e-08 0.7067086 0.01247112 -3.269407e-07 0.7483608 0.6632919 0.3033775 0.905696
-5.997291e-08 1.579459 0.01247112 0.02059205 -0.00811076 0.9997551 0.3033775 0.905696
-0.004265378 1.579459 0.01171903 -0.3221818 -0.0757371 0.9436434 0.3033172 0.9057066
-0.005797529 0.7067086 -0.01592822 -0.2538933 0.670031 -0.6975648 0.3031831 0.9066225
-0.005797529 0.237809 -0.01592822 -0.3261397 0.3011818 -0.8960595 0.3031831 0.9062899
-5.411339e-08 0.7067086 -0.01247078 4.069691e-07 0.7483616 -0.663291 0.3033775 0.9060491
0.004265261 0.7067086 -0.01171868 0.2268596 0.7483611 -0.62329 0.3034379 0.9060385
-0.00426538 0.7067086 -0.01171868 -0.22686 0.74836 -0.6232912 0.3033172 0.9060385
-0.008016234 0.7067086 -0.009553122 -0.4263566 0.74836 -0.5081117 0.3032641 0.9060078
-0.01080022 0.7067086 -0.006235296 -0.5744286 0.7483604 -0.3316453 0.3032246 0.9059608
-0.01228154 0.7067086 -0.002165383 -0.6532164 0.7483597 -0.1151786 0.3032037 0.9059032
-0.01228154 0.7067086 0.002165738 -0.6532158 0.74836 0.1151797 0.3032037 0.9058418
-0.01080021 0.7067086 0.006235652 -0.5744281 0.7483601 0.3316467 0.3032247 0.9057842
-0.00801622 0.7067086 0.009553477 -0.4263561 0.7483599 0.5081121 0.3032641 0.9057372
0.004265267 0.7067086 0.01171903 0.2268589 0.7483603 0.6232913 0.3034379 0.9057066
0.008016119 0.7067086 0.009553479 0.4263568 0.7483603 0.5081109 0.3034911 0.9057372
0.01080009 0.7067086 0.006235651 0.5744292 0.7483597 0.3316458 0.3035305 0.9057842
0.01228143 0.7067086 0.002165724 0.6532161 0.7483597 0.1151804 0.3035514 0.9058418
0.01228144 0.7067086 -0.00216539 0.6532156 0.7483605 -0.1151788 0.3035514 0.9059032
0.01080011 0.7067086 -0.006235297 0.5744281 0.7483601 -0.3316468 0.3035305 0.9059608
0.008016125 0.7067086 -0.00955312 0.426356 0.74836 -0.5081121 0.3034911 0.9060078
-0.1301933 1.635318 -0.01257967 0.01250879 0.6427674 -0.7659593 0.3032387 0.9061225
-0.1301933 1.638984 -0.008210665 0.01262911 0.8659734 -0.4999306 0.3032942 0.9061225
-0.09757443 1.638259 -0.007815574 0.04747158 0.865549 -0.4985695 0.3033414 0.9060901
-0.09767114 1.634771 -0.01197435 0.04128289 0.6434451 -0.7643784 0.3032891 0.9060996
-0.008016243 1.579459 -0.009553122 -0.6237319 -0.1393694 -0.769113 0.3032641 0.9060078
-0.004265388 1.579459 -0.01171868 -0.3220333 -0.07819165 -0.9434938 0.3033172 0.9060385
0.004265259 1.579459 0.01171903 0.3588246 0.05605055 0.9317206 0.3034379 0.9057066
-0.01080023 1.579459 -0.006235296 -0.8457705 -0.1842811 -0.5007123 0.3032246 0.9059608
0.00801611 1.579459 0.009553479 0.649957 0.1083719 0.7522044 0.3034911 0.9057372
-0.01228155 1.579459 -0.002165383 -0.9627917 -0.2073618 -0.1733009 0.3032037 0.9059032
0.01080009 1.579459 0.006235651 0.8614314 0.1443025 0.4869423 0.3035305 0.9057842
-0.01228155 1.579459 0.002165738 -0.9628635 -0.2064342 0.1740081 0.3032037 0.9058418
0.01228142 1.579459 0.002165724 0.9722684 0.1623322 0.1683522 0.3035514 0.9058418
-0.01080022 1.579459 0.006235652 -0.8459305 -0.1819439 0.5012965 0.3032247 0.9057842
-6.321021e-08 1.579459 -0.01247078 0.0207565 -0.009872013 -0.9997358 0.3033775 0.9060491
0.004265253 1.579459 -0.01171868 0.3589934 0.05495598 -0.9317208 0.3034379 0.9060385
0.01228143 1.579459 -0.00216539 0.972294 0.1622446 -0.1682885 0.3035514 0.9059032
-0.008016229 1.579459 0.009553477 -0.6238931 -0.1365716 0.769484 0.3032641 0.9057372
0.008016116 1.579459 -0.00955312 0.6500889 0.1077614 -0.7521782 0.3034911 0.9060078
0.0108001 1.579459 -0.006235297 0.8615099 0.1440057 -0.4868913 0.3035305 0.9059608
-0.1301933 1.61054 0.0082114 0.01198039 -0.8659555 0.4999775 0.3037942 0.9061225
-0.1301933 1.614206 0.01258041 0.01204649 -0.6427219 0.7660049 0.3037387 0.9061225
-0.5888082 1.614206 0.01258041 -0.6700314 -0.4771625 0.5686597 0.3037387 0.9061225
-0.5888082 1.61054 0.0082114 -0.6700304 -0.6428805 0.3711658 0.3037942 0.9061225
-0.5888082 1.624762 -0.01642171 -0.6700309 2.574248e-07 -0.7423332 0.3038776 0.9061125
-0.5888082 1.619146 -0.01543134 -0.6700308 -0.2538938 -0.6975648 0.3039596 0.9060981
-0.5888082 1.614206 -0.01257968 -0.6700315 -0.4771624 -0.5686598 0.3040318 0.9060563
-0.5888082 1.61054 -0.008210677 -0.6700304 -0.6428804 -0.3711658 0.3040854 0.9059925
-0.5888082 1.60859 -0.002851302 -0.6700316 -0.7310553 -0.1289028 0.3041139 0.9059142
-0.5888082 1.60859 0.002852027 -0.6700315 -0.7310553 0.1289029 0.3041139 0.9058308
-0.5888082 1.619146 0.01543207 -0.6700308 -0.2538938 0.6975648 0.3039596 0.905647
-0.5888082 1.624762 0.01642244 -0.670031 3.575343e-08 0.7423332 0.3038776 0.9056325
-0.5888082 1.630379 0.01543207 -0.670032 0.2538897 0.6975653 0.3037955 0.905647
-0.5888082 1.635318 0.01258041 -0.6700304 0.4771598 0.5686631 0.3037233 0.9056886
-0.5888082 1.638984 0.008211407 -0.6700284 0.6428856 0.3711604 0.3036697 0.9057525
-0.5888082 1.640935 0.002852036 -0.6700355 0.7310516 0.1289027 0.3036412 0.9058308
-0.5888082 1.640935 -0.00285129 -0.6700295 0.7310585 -0.1288956 0.3036412 0.9059142
-0.5888082 1.638984 -0.008210665 -0.6700304 0.6428806 -0.3711656 0.3036697 0.9059925
-0.5888082 1.635318 -0.01257967 -0.6700304 0.4771602 -0.5686628 0.3037233 0.9060563
-0.5888082 1.630379 -0.01543134 -0.670032 0.2538902 -0.6975651 0.3037955 0.9060981
-0.1301933 1.640935 0.002852036 0.01270226 0.98473 0.1736247 0.3034053 0.9061225
-0.1301933 1.640935 -0.00285129 0.01269804 0.9847326 -0.1736105 0.3033498 0.9061225
-0.1301933 1.624762 -0.01642171 0.01221171 4.512179e-05 -0.9999254 0.3041275 0.9061225
-0.1301933 1.619146 -0.01543134 0.0120849 -0.3419631 -0.9396357 0.304072 0.9061225
-0.1301933 1.619146 0.01543207 0.01214101 -0.3419637 0.9396347 0.3036831 0.9061225
-0.1301933 1.614206 -0.01257968 0.01199359 -0.6427244 -0.7660036 0.3040164 0.9061225
-0.1301933 1.624762 0.01642244 0.01226244 4.169849e-05 0.9999248 0.3036276 0.9061225
-0.1301933 1.61054 -0.008210677 0.0119429 -0.8659597 -0.4999712 0.3039609 0.9061225
-0.1301933 1.630379 0.01543207 0.0123999 0.3420314 0.9396067 0.303572 0.9061225
-0.1301933 1.630379 -0.01543134 0.01236076 0.3420372 -0.9396051 0.3031831 0.9061225
-0.1301933 1.60859 -0.002851302 0.01192609 -0.9847381 -0.1736337 0.3039053 0.9061225
-0.1301933 1.635318 0.01258041 0.01253646 0.6427643 0.7659614 0.3035164 0.9061225
-0.1301933 1.60859 0.002852027 0.01193949 -0.9847363 0.1736427 0.3038498 0.9061225
-0.1301933 1.638984 0.008211407 0.01264582 0.8659755 0.4999267 0.3034609 0.9061225
-0.09780148 1.630071 -0.01468879 0.03300379 0.3437535 -0.9384798 0.3032341 0.9061058
-0.5900886 1.596917 0.04221025 0.3415866 -0.3415838 0.8755793 0.6850257 0.9360401
-0.5900886 1.641688 0.04221025 0.3415866 0.3415838 0.8755794 0.6852308 0.9360401
-0.7232851 1.641688 0.04221025 -0.3415866 0.3415838 0.8755793 0.6852308 0.936273
-0.7232851 1.596917 0.04221025 -0.3415866 -0.3415838 0.8755794 0.6850257 0.936273
-0.5851908 1.596917 -0.03731182 0.8755797 -0.3415836 -0.341586 0.6850257 0.935796
-0.5851908 1.641688 -0.03731182 0.8755797 0.3415835 -0.341586 0.6852308 0.935796
-0.5851908 1.641688 0.03731247 0.8755797 0.3415836 0.341586 0.6852308 0.936017
-0.5851908 1.596917 0.03731247 0.8755797 -0.3415835 0.341586 0.6850257 0.936017
-0.5900886 1.646585 -0.03731182 0.3415882 0.8755772 -0.3415878 0.6852618 0.935796
-0.7232851 1.646585 -0.03731182 -0.3415881 0.8755772 -0.3415878 0.6854947 0.935796
-0.7232851 1.646585 0.03731247 -0.3415882 0.8755772 0.3415878 0.6854947 0.936017
-0.5900886 1.646585 0.03731247 0.3415881 0.8755772 0.3415878 0.6852618 0.936017
-0.7281829 1.596917 0.03731247 -0.8755797 -0.3415836 0.341586 0.6850257 0.935296
-0.7281829 1.641688 0.03731247 -0.8755797 0.3415835 0.341586 0.6852308 0.935296
-0.7281829 1.641688 -0.03731182 -0.8755797 0.3415836 -0.341586 0.6852308 0.935517
-0.7281829 1.596917 -0.03731182 -0.8755797 -0.3415835 -0.341586 0.6850257 0.935517
-0.7232851 1.596917 -0.0422096 -0.3415866 -0.3415838 -0.8755793 0.6850257 0.9355401
-0.7232851 1.641688 -0.0422096 -0.3415866 0.3415838 -0.8755794 0.6852308 0.9355401
-0.5900886 1.641688 -0.0422096 0.3415866 0.3415838 -0.8755793 0.6852308 0.935773
-0.5900886 1.596917 -0.0422096 0.3415866 -0.3415838 -0.8755794 0.6850257 0.935773
-0.7232851 1.592019 0.03731247 -0.3415881 -0.8755772 0.3415878 0.6847618 0.936017
-0.7232851 1.592019 -0.03731182 -0.3415883 -0.8755772 -0.3415878 0.6847618 0.935796
-0.5900886 1.592019 0.03731247 0.3415883 -0.8755772 0.3415878 0.6849946 0.936017
-0.5900886 1.592019 -0.03731182 0.3415881 -0.8755772 -0.3415878 0.6849946 0.935796
-0.5922328 1.592019 -0.03516759 -0.131475 -0.9846227 0.1150332 0.6849909 0.9358024
-0.5922328 1.592019 0.03516825 -0.131475 -0.9846227 -0.1150332 0.6849909 0.9360107
-0.611016 1.609209 0.02491965 -0.2040137 -0.9084808 -0.364748 0.6849909 0.9360107
-0.611016 1.609209 -0.02491899 -0.2040137 -0.9084808 0.364748 0.6849909 0.9358024
-0.7211409 1.592019 -0.03516759 0.131475 -0.9846227 0.1150332 0.6847655 0.9358024
-0.7211409 1.592019 0.03516825 0.131475 -0.9846227 -0.1150332 0.6847656 0.9360107
-0.7023577 1.609209 0.02491965 0.2040137 -0.9084808 -0.364748 0.01048797 0.9953696
-0.6844639 1.602437 0.01515627 -0.1243674 -0.9600874 0.2505293 0.01048797 0.9953696
-0.6289098 1.602437 0.01515627 0.1243675 -0.9600874 0.2505293 0.01071334 0.9953696
-0.7023577 1.609209 -0.02491899 0.2040137 -0.9084808 0.364748 0.6847655 0.9358024
-0.6844639 1.602437 -0.01515562 -0.1243674 -0.9600874 -0.2505293 0.01048791 0.9951614
-0.6289098 1.602437 -0.01515562 0.1243674 -0.9600874 -0.2505293 0.01071334 0.9951614
-0.01372458 0.03771945 -0.03770756 -0.2268598 0.7483605 -0.6232907 0.3031831 0.906148
-0.01372458 0.2033531 -0.03770756 -0.3280252 0.2831373 -0.9012396 0.3031831 0.9062655
-5.325834e-08 0.2033531 -0.04012758 1.581096e-07 0.2831373 -0.9590794 0.3031276 0.9062655
-5.325834e-08 0.03771945 -0.04012758 1.405647e-07 0.7483608 -0.6632919 0.3031276 0.906148
-0.02579369 0.03771945 -0.03073945 -0.4263563 0.7483604 -0.5081113 0.3032387 0.906148
-0.02579369 0.2033531 -0.03073945 -0.6164846 0.2831373 -0.7346972 0.3032387 0.9062655
-0.03475173 0.03771945 -0.02006368 -0.574428 0.7483609 -0.3316451 0.3032942 0.906148
-0.03475173 0.2033531 -0.02006368 -0.8305878 0.2831373 -0.4795386 0.3032942 0.9062655
-0.03951815 0.03771945 -0.006967922 -0.6532159 0.7483602 -0.1151787 0.3033498 0.906148
-0.03951815 0.2033531 -0.006967922 -0.9445091 0.2831373 -0.1665411 0.3033498 0.9062655
-0.03951815 0.03771945 0.006968296 -0.6532154 0.7483605 0.1151793 0.3034053 0.906148
-0.03951815 0.2033531 0.006968296 -0.9445089 0.2831372 0.1665422 0.3034053 0.9062655
-0.03475169 0.03771945 0.02006406 -0.5744278 0.7483607 0.3316461 0.3034609 0.906148
-0.03475169 0.2033531 0.02006406 -0.8305871 0.2831373 0.4795398 0.3034609 0.9062655
-0.02579366 0.03771945 0.03073981 -0.4263558 0.7483605 0.5081115 0.3035164 0.906148
-0.02579366 0.2033531 0.03073981 -0.616484 0.2831373 0.7346978 0.3035164 0.9062655
-0.01372454 0.03771945 0.03770791 -0.2268586 0.7483606 0.6232908 0.303572 0.906148
-0.01372454 0.2033531 0.03770791 -0.3280236 0.2831372 0.9012402 0.303572 0.9062655
-4.719923e-08 0.03771945 0.04012789 -1.916792e-08 0.7483601 0.6632928 0.3036276 0.906148
-4.719923e-08 0.2033531 0.04012789 3.887937e-08 0.2831372 0.9590794 0.3036276 0.9062655
0.01372444 0.03771945 0.03770791 0.2268585 0.7483606 0.623291 0.3036831 0.906148
0.01372444 0.2033531 0.03770791 0.3280234 0.2831372 0.9012403 0.3036831 0.9062655
0.02579357 0.03771945 0.03073981 0.4263561 0.7483609 0.5081108 0.3037387 0.906148
0.02579357 0.2033531 0.03073981 0.6164849 0.2831372 0.7346971 0.3037387 0.9062655
0.03475157 0.03771945 0.02006404 0.5744285 0.7483602 0.3316458 0.3037942 0.906148
0.03475157 0.2033531 0.02006404 0.8305875 0.2831372 0.479539 0.3037942 0.9062655
0.03951805 0.03771945 0.006968277 0.6532154 0.7483603 0.1151806 0.3038498 0.906148
0.03951805 0.2033531 0.006968277 0.9445086 0.2831373 0.1665439 0.3038498 0.9062655
0.03951808 0.03771945 -0.006967941 0.6532149 0.7483609 -0.1151787 0.3039053 0.906148
0.03951808 0.2033531 -0.006967941 0.944509 0.2831374 -0.1665415 0.3039053 0.9062655
0.03475161 0.03771945 -0.02006369 0.5744276 0.7483606 -0.3316466 0.3039609 0.906148
0.03475161 0.2033531 -0.02006369 0.8305867 0.2831374 -0.4795404 0.3039609 0.9062655
0.02579357 0.03771945 -0.03073945 0.426356 0.7483603 -0.5081116 0.3040164 0.906148
0.02579357 0.2033531 -0.03073945 0.6164841 0.2831373 -0.7346977 0.3040164 0.9062655
0.01372444 0.03771945 -0.03770756 0.2268598 0.7483605 -0.6232908 0.304072 0.906148
0.01372444 0.2033531 -0.03770756 0.3280251 0.2831373 -0.9012396 0.304072 0.9062655
-0.04952679 0.03771945 0.05902387 -0.4771623 0.670031 0.5686603 0.5554876 0.892143
-0.02635268 0.03771945 0.07240345 -0.2538924 0.6700308 0.6975654 0.5555431 0.892143
-5.393615e-08 0.03771945 -0.0770498 1.269247e-07 0.6700308 -0.7423334 0.5550987 0.892143
-0.02635275 0.03771945 -0.07240309 -0.2538934 0.670031 -0.6975648 0.5551543 0.892143
0.0667272 0.03771945 -0.0385248 0.6428791 0.670031 -0.3711671 0.555932 0.892143
0.04952672 0.03771945 -0.05902349 0.4771623 0.6700311 -0.5686604 0.5559876 0.892143
-4.230193e-08 0.03771945 0.07705008 7.15068e-09 0.6700312 0.7423329 0.5555987 0.892143
-0.04952686 0.03771945 -0.05902349 -0.4771626 0.6700311 -0.56866 0.5552098 0.892143
0.02635259 0.03771945 -0.07240309 0.2538933 0.6700311 -0.6975647 0.5560431 0.892143
0.02635259 0.03771945 0.07240345 0.2538922 0.6700309 0.6975653 0.5556543 0.892143
-0.06672733 0.03771945 -0.03852477 -0.64288 0.6700307 -0.3711658 0.5552654 0.892143
0.04952672 0.03771945 0.05902387 0.4771631 0.6700307 0.5686601 0.5557098 0.892143
-0.07587942 0.03771945 -0.01337939 -0.7310554 0.6700313 -0.1289038 0.5553209 0.892143
0.06672713 0.03771945 0.03852513 0.6428795 0.6700312 0.371166 0.5557654 0.892143
-0.07587942 0.03771945 0.01337978 -0.7310554 0.6700311 0.1289047 0.5553765 0.892143
0.07587932 0.03771945 0.01337974 0.7310551 0.6700312 0.1289059 0.5558209 0.892143
-0.06672726 0.03771945 0.03852517 -0.6428794 0.6700309 0.3711667 0.555432 0.892143
0.07587939 0.03771945 -0.01337942 0.7310559 0.6700307 -0.1289042 0.5558765 0.892143
-5.393615e-08 0.001712143 -0.0770498 1.287123e-07 -0.6700311 -0.7423331 0.5558487 0.8921075
0.02635259 0.001712143 -0.07240309 0.2538933 -0.6700311 -0.6975648 0.5559308 0.8920931
0.04952672 0.001712143 -0.05902349 0.4771623 -0.670031 -0.5686604 0.556003 0.8920513
0.0667272 0.001712143 -0.0385248 0.6428791 -0.670031 -0.3711671 0.5560566 0.8919876
0.07587939 0.001712143 -0.01337942 0.7310559 -0.6700307 -0.1289042 0.5560851 0.8919092
0.07587932 0.001712143 0.01337974 0.7310551 -0.6700312 0.1289059 0.5560851 0.8918258
0.06672713 0.001712143 0.03852513 0.6428795 -0.6700312 0.371166 0.5560566 0.8917475
0.04952672 0.001712143 0.05902387 0.4771631 -0.6700307 0.56866 0.556003 0.8916837
0.02635259 0.001712143 0.07240345 0.2538922 -0.6700308 0.6975654 0.5559308 0.891642
-4.230193e-08 0.001712143 0.07705008 1.072602e-08 -0.6700313 0.7423329 0.5558487 0.8916276
-0.02635268 0.001712143 0.07240345 -0.2538924 -0.6700308 0.6975654 0.5557666 0.891642
-0.04952679 0.001712143 0.05902387 -0.4771623 -0.670031 0.5686603 0.5556945 0.8916837
-0.06672726 0.001712143 0.03852517 -0.6428794 -0.6700309 0.3711667 0.5556409 0.8917475
-0.07587942 0.001712143 0.01337978 -0.7310555 -0.670031 0.1289047 0.5556123 0.8918258
-0.07587942 0.001712143 -0.01337939 -0.7310554 -0.6700312 -0.1289037 0.5556123 0.8919092
-0.06672733 0.001712143 -0.03852477 -0.6428801 -0.6700307 -0.3711659 0.5556409 0.8919876
-0.04952686 0.001712143 -0.05902349 -0.4771627 -0.6700311 -0.56866 0.5556945 0.8920513
-0.02635275 0.001712143 -0.07240309 -0.2538934 -0.670031 -0.6975648 0.5557666 0.8920931
-0.09752296 1.640115 -0.002714091 0.05077667 0.9835978 -0.1730816 0.3033901 0.9060786
-0.09752294 1.640115 0.002714794 0.05077356 0.9835957 0.1730944 0.3034346 0.9060663
-0.0975744 1.638259 0.007816275 0.04746748 0.8655333 0.4985971 0.3034748 0.9060549
-0.09767111 1.634771 0.01197504 0.04129776 0.6434357 0.7643855 0.3035114 0.9060454
-0.09780145 1.630071 0.01468948 0.0330568 0.3437244 0.9384886 0.3035452 0.9060394
-0.09794965 1.624727 0.01563219 0.02378519 0.002238543 0.9997146 0.3035775 0.9060372
-0.09809785 1.619382 0.01468948 0.01462301 -0.3399176 0.9403416 0.3036099 0.9060394
-0.0982282 1.614682 0.01197503 0.006650931 -0.6413507 0.7672191 0.3036438 0.9060454
-0.09832491 1.611194 0.007816263 0.0007782739 -0.8653985 0.5010837 0.3036803 0.9060549
-0.0983764 1.609338 0.002714781 -0.002347903 -0.9847229 0.1741129 0.3037206 0.9060663
-0.0983764 1.609338 -0.002714107 -0.002391506 -0.984733 -0.1740551 0.303765 0.9060786
-0.09832493 1.611194 -0.00781559 0.0006674719 -0.8654097 -0.5010645 0.3038136 0.9060901
-0.09822822 1.614682 -0.01197436 0.006507468 -0.6413579 -0.7672142 0.303866 0.9060996
-0.09809788 1.619382 -0.0146888 0.01448638 -0.3399015 -0.9403495 0.303921 0.9061056
-0.0979497 1.624727 -0.01563151 0.02368697 0.00227073 -0.9997169 0.3039775 0.9061078
-0.06332377 1.622843 -0.01484133 0.02450079 0.00496801 -0.9996875 0.3038275 0.9060931
-0.063968 1.617808 -0.01394627 -0.01814986 -0.3353518 -0.9419181 0.3037701 0.9060888
-0.03180032 1.616447 -0.01405116 0.03217567 0.007417976 -0.9994547 0.3036775 0.9060785
-0.03352594 1.611962 -0.01320376 -0.08891503 -0.315112 -0.9448802 0.3036191 0.9060721
-0.008864149 1.602874 -0.01326098 0.04907665 -0.0002951637 -0.998795 0.3035275 0.9060638
-0.0123356 1.599955 -0.01246123 -0.2113261 -0.2263583 -0.9508435 0.3034681 0.9060553
-0.06453455 1.61338 -0.01136906 -0.055181 -0.6361853 -0.7695605 0.3037155 0.9060767
-0.03504342 1.608017 -0.01076376 -0.1934322 -0.6031595 -0.7738104 0.303565 0.9060537
-0.01538833 1.597388 -0.01015845 -0.444019 -0.4331485 -0.7843658 0.3034145 0.9060308
-0.06495501 1.610094 -0.007420525 -0.08226623 -0.8603337 -0.5030489 0.3036664 0.9060578
-0.03616968 1.60509 -0.007025465 -0.2688074 -0.8194313 -0.5062361 0.3035191 0.9060255
-0.0176541 1.595483 -0.006630392 -0.618882 -0.5919754 -0.5162851 0.3033719 0.9059932
-0.06517874 1.608345 -0.002576935 -0.09643184 -0.9798768 -0.1747638 0.3036247 0.9060347
-0.03676897 1.603532 -0.002439767 -0.3073761 -0.9352482 -0.1755868 0.3034844 0.9059909
-0.0188597 1.594469 -0.002302586 -0.7126461 -0.6781659 -0.1795178 0.303344 0.9059471
-0.06517874 1.608345 0.002577511 -0.09624687 -0.9798603 0.1749585 0.3035913 0.9060102
-0.03676896 1.603532 0.002440237 -0.3063799 -0.9353831 0.1766063 0.3034621 0.9059541
-0.0188597 1.594469 0.002302977 -0.7127893 -0.6775764 0.181168 0.3033329 0.905898
-0.06495498 1.610094 0.007421102 -0.08179506 -0.8603247 0.503141 0.3035664 0.9059871
-0.03616966 1.60509 0.007025936 -0.2664779 -0.8199343 0.5066531 0.3034525 0.9059196
-0.01765408 1.595482 0.006630783 -0.6193863 -0.590716 0.517122 0.3033386 0.9058519
-0.06453452 1.61338 0.01136964 -0.05462704 -0.6362236 0.7695684 0.3035488 0.9059684
-0.03504339 1.608017 0.01076423 -0.191091 -0.6040553 0.7736933 0.3034539 0.9058914
-0.01538831 1.597388 0.01015884 -0.4447469 -0.4322489 0.7844496 0.303359 0.9058143
-0.06396797 1.617808 0.01394686 -0.0177172 -0.3354819 0.94188 0.3035367 0.9059561
-0.0335259 1.611962 0.01320423 -0.08748981 -0.3161242 0.9446751 0.3034635 0.9058729
-0.01233557 1.599955 0.01246162 -0.2118839 -0.2264128 0.9507063 0.3033904 0.9057898
-0.06332372 1.622843 0.01484192 0.02471621 0.004815048 0.9996829 0.3035275 0.9059519
-0.03180028 1.616447 0.01405163 0.03256113 0.006680982 0.9994474 0.3034775 0.9058666
-0.008864126 1.602874 0.01326136 0.04901801 -0.001164982 0.9987972 0.3034275 0.9057813
-0.06267946 1.627878 0.01394686 0.06758739 0.3431931 0.93683 0.3035184 0.9059561
-0.03007466 1.620932 0.01320424 0.1540879 0.3243482 0.9333034 0.3034916 0.9058729
-0.005392679 1.605793 0.01246162 0.3053917 0.2164199 0.927307 0.3034648 0.9057898
-0.06211292 1.632306 0.01136965 0.1056046 0.6391258 0.7618175 0.3035063 0.9059684
-0.02855716 1.624877 0.01076424 0.2615268 0.5994816 0.756456 0.3035012 0.9058914
-0.002339929 1.60836 0.01015885 0.5269782 0.4026808 0.7484265 0.3034961 0.9058143
-0.06169247 1.635592 0.007421116 0.1339954 0.8577459 0.4963035 0.3034887 0.9059871
-0.02743091 1.627804 0.007025947 0.3413404 0.8011637 0.4915521 0.3035026 0.9059196
-7.417199e-05 1.610265 0.006630784 0.6890805 0.5384185 0.4850501 0.3035165 0.9058519
-0.06146874 1.637341 0.002577524 0.1491754 0.973704 0.1721836 0.3034638 0.9060102
-0.02683164 1.629362 0.002440244 0.383822 0.9075733 0.1702686 0.303493 0.9059541
0.001131425 1.611279 0.002302968 0.7744428 0.6099825 0.1678088 0.3035222 0.905898
-0.06146874 1.637341 -0.002576917 0.1492204 0.9736954 -0.1721935 0.3034304 0.9060347
-0.02683163 1.629362 -0.002439755 0.3839667 0.9074855 -0.1704104 0.3034708 0.9059909
0.001131446 1.611279 -0.002302589 0.7742437 0.6102071 -0.1679109 0.3035111 0.9059471
-0.06169248 1.635592 -0.007420507 0.1341048 0.8577319 -0.4962982 0.3033887 0.9060578
-0.02743093 1.627805 -0.007025451 0.3417269 0.8009604 -0.491615 0.303436 0.9060255
-7.417079e-05 1.610265 -0.00663039 0.6885583 0.5390857 -0.4850506 0.3034832 0.9059932
-0.06211295 1.632306 -0.01136904 0.1057042 0.6391501 -0.7617834 0.3033396 0.9060767
-0.02855719 1.624877 -0.01076375 0.2620102 0.5993943 -0.7563578 0.3033901 0.9060537
-0.002339942 1.60836 -0.01015845 0.5263524 0.4037249 -0.7483043 0.3034406 0.9060308
-0.06267951 1.627878 -0.01394627 0.06757493 0.3433054 -0.9367898 0.303285 0.9060889
-0.0300747 1.620932 -0.01320375 0.154363 0.3246247 -0.9331617 0.303336 0.9060721
-0.005392701 1.605793 -0.01246123 0.3049735 0.2175989 -0.9271687 0.303387 0.9060553
-5.33e-08 0.7067086 -0.01695048 1.650804e-07 0.6700308 -0.7423333 0.3031276 0.9066225
-5.33e-08 0.237809 -0.01695048 2.558018e-07 0.3011819 -0.9535667 0.3031276 0.9062899
0.005797409 0.7067086 -0.01592822 0.2538932 0.6700312 -0.6975647 0.3034596 0.9060981
-5.33e-08 0.7067086 -0.01695048 1.650804e-07 0.6700308 -0.7423333 0.3033775 0.9061125
-0.005797529 0.7067086 -0.01592822 -0.2538933 0.670031 -0.6975648 0.3032955 0.9060981
-0.01089573 0.7067086 -0.01298477 -0.4771626 0.670031 -0.5686601 0.3032233 0.9060563
-0.01467976 0.7067086 -0.00847514 -0.64288 0.6700307 -0.3711659 0.3031697 0.9059925
-0.01669318 0.7067086 -0.002943268 -0.7310554 0.6700312 -0.1289038 0.3031412 0.9059142
-0.01669318 0.7067086 0.002943629 -0.7310555 0.670031 0.1289047 0.3031412 0.9058308
-0.01467974 0.7067086 0.008475503 -0.6428794 0.6700309 0.3711667 0.3031697 0.9057525
-0.01089571 0.7067086 0.01298513 -0.4771623 0.670031 0.5686604 0.3032233 0.9056886
-0.005797513 0.7067086 0.01592857 -0.2538923 0.6700308 0.6975654 0.3032955 0.905647
-5.074053e-08 0.7067086 0.01695081 1.430136e-08 0.6700314 0.7423328 0.3033775 0.9056325
0.005797409 0.7067086 0.01592857 0.2538921 0.6700309 0.6975654 0.3034596 0.905647
0.01089562 0.7067086 0.01298513 0.4771631 0.6700307 0.56866 0.3035318 0.9056886
0.01467963 0.7067086 0.008475496 0.6428795 0.6700312 0.3711658 0.3035854 0.9057525
0.01669307 0.7067086 0.002943621 0.7310551 0.6700312 0.1289058 0.3036139 0.9058308
0.01669308 0.7067086 -0.002943276 0.7310558 0.6700307 -0.1289041 0.3036139 0.9059142
0.01467964 0.7067086 -0.008475147 0.6428791 0.670031 -0.3711669 0.3035854 0.9059925
0.01089562 0.7067086 -0.01298477 0.4771623 0.670031 -0.5686604 0.3035318 0.9060563
-0.5888082 1.61054 0.0082114 -0.6700304 -0.6428805 0.3711658 0.3040854 0.9057525
-0.5888082 1.614206 0.01258041 -0.6700314 -0.4771625 0.5686597 0.3040318 0.9056886
-0.5888082 1.640935 -0.00285129 -0.6700295 0.7310585 -0.1288956 0.3033498 0.9061225
-0.5888082 1.640935 0.002852036 -0.6700355 0.7310516 0.1289027 0.3034053 0.9061225
-0.5888082 1.619146 -0.01543134 -0.6700308 -0.2538938 -0.6975648 0.304072 0.9061225
-0.5888082 1.624762 -0.01642171 -0.6700309 2.574248e-07 -0.7423332 0.3041275 0.9061225
-0.5888082 1.619146 0.01543207 -0.6700308 -0.2538938 0.6975648 0.3036831 0.9061225
-0.5888082 1.638984 -0.008210665 -0.6700304 0.6428806 -0.3711656 0.3032942 0.9061225
-0.5888082 1.614206 -0.01257968 -0.6700315 -0.4771624 -0.5686598 0.3040164 0.9061225
-0.5888082 1.624762 0.01642244 -0.670031 3.575343e-08 0.7423332 0.3036276 0.9061225
-0.5888082 1.635318 -0.01257967 -0.6700304 0.4771602 -0.5686628 0.3032387 0.9061225
-0.5888082 1.61054 -0.008210677 -0.6700304 -0.6428804 -0.3711658 0.3039609 0.9061225
-0.5888082 1.630379 0.01543207 -0.670032 0.2538897 0.6975653 0.303572 0.9061225
-0.5888082 1.630379 -0.01543134 -0.670032 0.2538902 -0.6975651 0.3031831 0.9061225
-0.5888082 1.60859 -0.002851302 -0.6700316 -0.7310553 -0.1289028 0.3039053 0.9061225
-0.5888082 1.635318 0.01258041 -0.6700304 0.4771598 0.5686631 0.3035164 0.9061225
-0.1301933 1.624762 -0.01642171 0.01221171 4.512179e-05 -0.9999254 0.3031276 0.9061225
-0.5888082 1.624762 -0.01642171 -0.6700309 2.574248e-07 -0.7423332 0.3031276 0.9061225
-0.5888082 1.60859 0.002852027 -0.6700315 -0.7310553 0.1289029 0.3038498 0.9061225
-0.5888082 1.638984 0.008211407 -0.6700284 0.6428856 0.3711604 0.3034609 0.9061225
-0.7232851 1.596917 0.04221025 -0.3415866 -0.3415838 0.8755794 0.6847618 0.9360315
-0.7281829 1.596917 0.03731247 -0.8755797 -0.3415836 0.341586 0.6847532 0.936017
-0.7232851 1.646585 0.03731247 -0.3415882 0.8755772 0.3415878 0.6852533 0.936273
-0.7281829 1.641688 0.03731247 -0.8755797 0.3415835 0.341586 0.6852308 0.9362816
-0.7281829 1.596917 -0.03731182 -0.8755797 -0.3415835 -0.341586 0.6847532 0.935796
-0.7232851 1.596917 -0.0422096 -0.3415866 -0.3415838 -0.8755793 0.6847618 0.9357815
-0.7232851 1.646585 -0.03731182 -0.3415881 0.8755772 -0.3415878 0.6852533 0.9355401
-0.7232851 1.641688 -0.0422096 -0.3415866 0.3415838 -0.8755794 0.6852308 0.9355316
-0.7281829 1.641688 -0.03731182 -0.8755797 0.3415836 -0.341586 0.6852308 0.9355316
-0.5851908 1.596917 0.03731247 0.8755797 -0.3415835 0.341586 0.6850032 0.936017
-0.5900886 1.596917 0.04221025 0.3415866 -0.3415838 0.8755793 0.6849946 0.9360315
-0.5900886 1.646585 0.03731247 0.3415881 0.8755772 0.3415878 0.6852533 0.9360401
-0.5900886 1.641688 0.04221025 0.3415866 0.3415838 0.8755794 0.6852308 0.9360315
-0.5851908 1.641688 0.03731247 0.8755797 0.3415836 0.341586 0.6852308 0.9360315
-0.5900886 1.596917 -0.0422096 0.3415866 -0.3415838 -0.8755794 0.6849946 0.9357815
-0.5851908 1.596917 -0.03731182 0.8755797 -0.3415836 -0.341586 0.6850032 0.935796
-0.5900886 1.646585 -0.03731182 0.3415882 0.8755772 -0.3415878 0.6852533 0.935796
-0.5851908 1.641688 -0.03731182 0.8755797 0.3415835 -0.341586 0.6852308 0.9357815
-0.5900886 1.641688 -0.0422096 0.3415866 0.3415838 -0.8755793 0.6852308 0.9357815
-0.7232851 1.596917 0.04221025 -0.3415866 -0.3415838 0.8755794 0.6850257 0.9352816
-0.7232851 1.641688 0.04221025 -0.3415866 0.3415838 0.8755793 0.6852308 0.9352816
-0.7232851 1.646585 0.03731247 -0.3415882 0.8755772 0.3415878 0.6852533 0.935296
-0.7232851 1.646585 -0.03731182 -0.3415881 0.8755772 -0.3415878 0.6852533 0.935517
-0.5900886 1.646585 -0.03731182 0.3415882 0.8755772 -0.3415878 0.6852533 0.935773
-0.611016 1.609209 0.02491965 -0.2040137 -0.9084808 -0.364748 0.01071334 0.9953696
-0.7023577 1.609209 0.02491965 0.2040137 -0.9084808 -0.364748 0.6847656 0.9360107
-0.7023577 1.609209 -0.02491899 0.2040137 -0.9084808 0.364748 0.01048791 0.9951614
-0.611016 1.609209 -0.02491899 -0.2040137 -0.9084808 0.364748 0.01071334 0.9951614
-5.325834e-08 0.03771945 -0.04012758 1.405647e-07 0.7483608 -0.6632919 0.3041275 0.906148
-5.325834e-08 0.2033531 -0.04012758 1.581096e-07 0.2831373 -0.9590794 0.3041275 0.9062655
-0.01372454 0.03771945 0.03770791 -0.2268586 0.7483606 0.6232908 0.5555431 0.892143
-0.02579366 0.03771945 0.03073981 -0.4263558 0.7483605 0.5081115 0.5554876 0.892143
-0.01372458 0.03771945 -0.03770756 -0.2268598 0.7483605 -0.6232907 0.5551543 0.892143
-5.325834e-08 0.03771945 -0.04012758 1.405647e-07 0.7483608 -0.6632919 0.5550987 0.892143
0.02579357 0.03771945 -0.03073945 0.426356 0.7483603 -0.5081116 0.5559876 0.892143
0.03475161 0.03771945 -0.02006369 0.5744276 0.7483606 -0.3316466 0.555932 0.892143
-4.719923e-08 0.03771945 0.04012789 -1.916792e-08 0.7483601 0.6632928 0.5555987 0.892143
-0.02579369 0.03771945 -0.03073945 -0.4263563 0.7483604 -0.5081113 0.5552098 0.892143
0.01372444 0.03771945 -0.03770756 0.2268598 0.7483605 -0.6232908 0.5560431 0.892143
0.01372444 0.03771945 0.03770791 0.2268585 0.7483606 0.623291 0.5556543 0.892143
-0.03475173 0.03771945 -0.02006368 -0.574428 0.7483609 -0.3316451 0.5552654 0.892143
-5.325834e-08 0.03771945 -0.04012758 1.405647e-07 0.7483608 -0.6632919 0.5560987 0.892143
-5.393615e-08 0.03771945 -0.0770498 1.269247e-07 0.6700308 -0.7423334 0.5560987 0.892143
0.02579357 0.03771945 0.03073981 0.4263561 0.7483609 0.5081108 0.5557098 0.892143
-0.03951815 0.03771945 -0.006967922 -0.6532159 0.7483602 -0.1151787 0.5553209 0.892143
0.03475157 0.03771945 0.02006404 0.5744285 0.7483602 0.3316458 0.5557654 0.892143
-0.03951815 0.03771945 0.006968296 -0.6532154 0.7483605 0.1151793 0.5553765 0.892143
0.03951805 0.03771945 0.006968277 0.6532154 0.7483603 0.1151806 0.5558209 0.892143
-0.03475169 0.03771945 0.02006406 -0.5744278 0.7483607 0.3316461 0.555432 0.892143
0.03951808 0.03771945 -0.006967941 0.6532149 0.7483609 -0.1151787 0.5558765 0.892143
-5.393615e-08 0.001712143 -0.0770498 1.287123e-07 -0.6700311 -0.7423331 0.5560987 0.8921175
0.02635259 0.001712143 -0.07240309 0.2538933 -0.6700311 -0.6975648 0.5560431 0.8921175
0.04952672 0.001712143 -0.05902349 0.4771623 -0.670031 -0.5686604 0.5559876 0.8921175
0.0667272 0.001712143 -0.0385248 0.6428791 -0.670031 -0.3711671 0.555932 0.8921175
0.07587939 0.001712143 -0.01337942 0.7310559 -0.6700307 -0.1289042 0.5558765 0.8921175
0.07587932 0.001712143 0.01337974 0.7310551 -0.6700312 0.1289059 0.5558209 0.8921175
0.06672713 0.001712143 0.03852513 0.6428795 -0.6700312 0.371166 0.5557654 0.8921175
0.04952672 0.001712143 0.05902387 0.4771631 -0.6700307 0.56866 0.5557098 0.8921175
0.02635259 0.001712143 0.07240345 0.2538922 -0.6700308 0.6975654 0.5556543 0.8921175
-4.230193e-08 0.001712143 0.07705008 1.072602e-08 -0.6700313 0.7423329 0.5555987 0.8921175
-0.02635268 0.001712143 0.07240345 -0.2538924 -0.6700308 0.6975654 0.5555431 0.8921175
-0.04952679 0.001712143 0.05902387 -0.4771623 -0.670031 0.5686603 0.5554876 0.8921175
-0.06672726 0.001712143 0.03852517 -0.6428794 -0.6700309 0.3711667 0.555432 0.8921175
-0.07587942 0.001712143 0.01337978 -0.7310555 -0.670031 0.1289047 0.5553765 0.8921175
-0.07587942 0.001712143 -0.01337939 -0.7310554 -0.6700312 -0.1289037 0.5553209 0.8921175
-0.06672733 0.001712143 -0.03852477 -0.6428801 -0.6700307 -0.3711659 0.5552654 0.8921175
-0.04952686 0.001712143 -0.05902349 -0.4771627 -0.6700311 -0.56866 0.5552098 0.8921175
-0.02635275 0.001712143 -0.07240309 -0.2538934 -0.670031 -0.6975648 0.5551543 0.8921175
-5.393615e-08 0.001712143 -0.0770498 1.287123e-07 -0.6700311 -0.7423331 0.5550987 0.8921175
-0.0979497 1.624727 -0.01563151 0.02368697 0.00227073 -0.9997169 0.3031775 0.9061078
-0.06332377 1.622843 -0.01484133 0.02450079 0.00496801 -0.9996875 0.3032275 0.9060931
-0.03180032 1.616447 -0.01405116 0.03217567 0.007417976 -0.9994547 0.3032776 0.9060785
-0.008864149 1.602874 -0.01326098 0.04907665 -0.0002951637 -0.998795 0.3033276 0.9060638
3 0 1 2 
3 0 2 3 
3 3 2 4 
3 3 4 5 
3 5 4 6 
3 5 6 7 
3 7 6 8 
3 7 8 9 
3 9 8 10 
3 9 10 11 
3 11 10 12 
3 11 12 13 
3 13 12 14 
3 13 14 15 
3 15 14 16 
3 15 16 17 
3 17 16 18 
3 17 18 19 
3 19 18 20 
3 19 20 21 
3 21 20 22 
3 21 22 23 
3 23 22 24 
3 23 24 25 
3 25 24 26 
3 25 26 27 
3 27 26 28 
3 27 28 29 
3 29 28 30 
3 29 30 31 
3 31 30 32 
3 31 32 33 
3 34 35 36 
3 34 36 37 
3 33 32 38 
3 33 38 39 
3 39 38 288 
3 39 288 289 
3 290 291 40 
3 290 40 41 
3 291 292 42 
3 291 42 40 
3 292 293 43 
3 292 43 42 
3 293 294 44 
3 293 44 43 
3 294 295 45 
3 294 45 44 
3 295 296 46 
3 295 46 45 
3 296 297 47 
3 296 47 46 
3 297 298 48 
3 297 48 47 
3 298 299 34 
3 298 34 48 
3 299 300 35 
3 299 35 34 
3 300 301 49 
3 300 49 35 
3 301 302 50 
3 301 50 49 
3 302 303 51 
3 302 51 50 
3 303 304 52 
3 303 52 51 
3 304 305 53 
3 304 53 52 
3 305 306 54 
3 305 54 53 
3 306 307 55 
3 306 55 54 
3 307 290 41 
3 307 41 55 
3 56 57 58 
3 56 58 59 
3 42 43 60 
3 42 60 61 
3 35 49 62 
3 35 62 36 
3 43 44 63 
3 43 63 60 
3 49 50 64 
3 49 64 62 
3 44 45 65 
3 44 65 63 
3 50 51 66 
3 50 66 64 
3 45 46 67 
3 45 67 65 
3 51 52 68 
3 51 68 66 
3 46 47 69 
3 46 69 67 
3 41 40 70 
3 41 70 71 
3 52 53 72 
3 52 72 68 
3 47 48 73 
3 47 73 69 
3 55 41 71 
3 55 71 74 
3 53 54 75 
3 53 75 72 
3 48 34 37 
3 48 37 73 
3 40 42 61 
3 40 61 70 
3 54 55 74 
3 54 74 75 
3 76 77 78 
3 76 78 79 
3 80 81 82 
3 80 82 83 
3 80 83 84 
3 80 84 85 
3 80 85 308 
3 80 308 309 
3 80 309 86 
3 80 86 87 
3 80 87 88 
3 80 88 89 
3 80 89 90 
3 80 90 91 
3 80 91 92 
3 80 92 93 
3 80 93 94 
3 80 94 95 
3 96 97 310 
3 96 310 311 
3 98 99 312 
3 98 312 313 
3 77 100 314 
3 77 314 78 
3 97 57 315 
3 97 315 310 
3 99 101 316 
3 99 316 312 
3 100 102 317 
3 100 317 314 
3 57 56 318 
3 57 318 315 
3 101 103 319 
3 101 319 316 
3 102 104 320 
3 102 320 317 
3 56 105 321 
3 56 321 318 
3 103 106 322 
3 103 322 319 
3 104 107 323 
3 104 323 320 
3 105 324 325 
3 105 325 321 
3 106 108 326 
3 106 326 322 
3 107 109 327 
3 107 327 323 
3 108 76 79 
3 108 79 326 
3 109 96 311 
3 109 311 327 
3 105 56 59 
3 105 59 110 
3 111 112 113 
3 111 113 114 
3 115 116 117 
3 115 117 118 
3 119 120 121 
3 119 121 122 
3 123 124 125 
3 123 125 126 
3 127 128 129 
3 127 129 130 
3 131 328 329 
3 113 330 331 
3 132 332 333 
3 334 335 336 
3 133 337 338 
3 339 340 341 
3 134 342 343 
3 344 345 346 
3 132 131 329 
3 132 329 332 
3 347 348 124 
3 347 124 123 
3 349 350 125 
3 349 125 124 
3 128 127 126 
3 128 126 125 
3 134 132 333 
3 134 333 342 
3 334 351 129 
3 334 129 128 
3 116 115 130 
3 116 130 129 
3 133 134 115 
3 133 115 118 
3 119 122 117 
3 119 117 116 
3 112 111 118 
3 112 118 117 
3 131 133 338 
3 131 338 328 
3 339 330 113 
3 339 113 112 
3 135 136 137 
3 135 137 138 
3 132 134 135 
3 132 135 139 
3 134 133 136 
3 134 136 135 
3 133 131 140 
3 133 140 136 
3 131 132 139 
3 131 139 140 
3 352 141 142 
3 352 142 143 
3 139 135 138 
3 139 138 144 
3 136 140 353 
3 136 353 137 
3 140 139 144 
3 140 144 353 
3 145 146 143 
3 145 143 142 
3 141 354 145 
3 141 145 142 
3 355 352 143 
3 355 143 146 
3 354 355 146 
3 354 146 145 
3 147 148 149 
3 147 149 150 
3 151 152 148 
3 151 148 147 
3 153 154 152 
3 153 152 151 
3 155 156 154 
3 155 154 153 
3 157 158 156 
3 157 156 155 
3 159 160 158 
3 159 158 157 
3 161 162 160 
3 161 160 159 
3 163 164 162 
3 163 162 161 
3 165 166 164 
3 165 164 163 
3 167 168 166 
3 167 166 165 
3 169 170 168 
3 169 168 167 
3 171 172 170 
3 171 170 169 
3 173 174 172 
3 173 172 171 
3 175 176 174 
3 175 174 173 
3 177 178 176 
3 177 176 175 
3 179 180 178 
3 179 178 177 
3 181 182 180 
3 181 180 179 
3 356 357 182 
3 356 182 181 
3 148 39 289 
3 148 289 149 
3 152 33 39 
3 152 39 148 
3 154 31 33 
3 154 33 152 
3 156 29 31 
3 156 31 154 
3 158 27 29 
3 158 29 156 
3 160 25 27 
3 160 27 158 
3 162 23 25 
3 162 25 160 
3 164 21 23 
3 164 23 162 
3 166 19 21 
3 166 21 164 
3 168 17 19 
3 168 19 166 
3 170 15 17 
3 170 17 168 
3 172 13 15 
3 172 15 170 
3 174 11 13 
3 174 13 172 
3 176 9 11 
3 176 11 174 
3 178 7 9 
3 178 9 176 
3 180 5 7 
3 180 7 178 
3 182 3 5 
3 182 5 180 
3 357 0 3 
3 357 3 182 
3 358 359 183 
3 358 183 184 
3 360 361 185 
3 360 185 186 
3 362 363 187 
3 362 187 188 
3 364 358 184 
3 364 184 189 
3 365 360 186 
3 365 186 190 
3 366 362 188 
3 366 188 191 
3 367 364 189 
3 367 189 192 
3 368 365 190 
3 368 190 193 
3 369 366 191 
3 369 191 370 
3 371 367 192 
3 371 192 194 
3 372 368 193 
3 372 193 195 
3 373 371 194 
3 373 194 196 
3 374 372 195 
3 374 195 197 
3 375 373 196 
3 375 196 198 
3 376 374 197 
3 376 197 199 
3 377 375 198 
3 377 198 200 
3 359 376 199 
3 359 199 183 
3 363 377 200 
3 363 200 187 
3 201 202 203 
3 201 203 204 
3 201 204 205 
3 201 205 206 
3 201 206 207 
3 201 207 208 
3 201 208 209 
3 201 209 210 
3 201 210 211 
3 201 211 212 
3 201 212 213 
3 201 213 214 
3 201 214 215 
3 201 215 216 
3 201 216 217 
3 201 217 218 
3 378 370 191 
3 378 191 379 
3 379 191 188 
3 379 188 380 
3 380 188 187 
3 380 187 381 
3 381 187 200 
3 381 200 382 
3 382 200 198 
3 382 198 383 
3 383 198 196 
3 383 196 384 
3 384 196 194 
3 384 194 385 
3 385 194 192 
3 385 192 386 
3 386 192 189 
3 386 189 387 
3 387 189 184 
3 387 184 388 
3 388 184 183 
3 388 183 389 
3 389 183 199 
3 389 199 390 
3 390 199 197 
3 390 197 391 
3 391 197 195 
3 391 195 392 
3 392 195 193 
3 392 193 393 
3 393 193 190 
3 393 190 394 
3 394 190 186 
3 394 186 395 
3 395 186 185 
3 395 185 396 
3 57 97 219 
3 57 219 58 
3 97 96 220 
3 97 220 219 
3 96 109 221 
3 96 221 220 
3 109 107 222 
3 109 222 221 
3 107 104 223 
3 107 223 222 
3 104 102 224 
3 104 224 223 
3 102 100 225 
3 102 225 224 
3 100 77 226 
3 100 226 225 
3 77 76 227 
3 77 227 226 
3 76 108 228 
3 76 228 227 
3 108 106 229 
3 108 229 228 
3 106 103 230 
3 106 230 229 
3 103 101 231 
3 103 231 230 
3 101 99 232 
3 101 232 231 
3 99 98 233 
3 99 233 232 
3 324 105 110 
3 324 110 397 
3 232 233 234 
3 232 234 235 
3 235 234 236 
3 235 236 237 
3 237 236 238 
3 237 238 239 
3 239 238 70 
3 239 70 61 
3 231 232 235 
3 231 235 240 
3 240 235 237 
3 240 237 241 
3 241 237 239 
3 241 239 242 
3 242 239 61 
3 242 61 60 
3 230 231 240 
3 230 240 243 
3 243 240 241 
3 243 241 244 
3 244 241 242 
3 244 242 245 
3 245 242 60 
3 245 60 63 
3 229 230 243 
3 229 243 246 
3 246 243 244 
3 246 244 247 
3 247 244 245 
3 247 245 248 
3 248 245 63 
3 248 63 65 
3 228 229 246 
3 228 246 249 
3 249 246 247 
3 249 247 250 
3 250 247 248 
3 250 248 251 
3 251 248 65 
3 251 65 67 
3 227 228 249 
3 227 249 252 
3 252 249 250 
3 252 250 253 
3 253 250 251 
3 253 251 254 
3 254 251 67 
3 254 67 69 
3 226 227 252 
3 226 252 255 
3 255 252 253 
3 255 253 256 
3 256 253 254 
3 256 254 257 
3 257 254 69 
3 257 69 73 
3 225 226 255 
3 225 255 258 
3 258 255 256 
3 258 256 259 
3 259 256 257 
3 259 257 260 
3 260 257 73 
3 260 73 37 
3 224 225 258 
3 224 258 261 
3 261 258 259 
3 261 259 262 
3 262 259 260 
3 262 260 263 
3 263 260 37 
3 263 37 36 
3 223 224 261 
3 223 261 264 
3 264 261 262 
3 264 262 265 
3 265 262 263 
3 265 263 266 
3 266 263 36 
3 266 36 62 
3 222 223 264 
3 222 264 267 
3 267 264 265 
3 267 265 268 
3 268 265 266 
3 268 266 269 
3 269 266 62 
3 269 62 64 
3 221 222 267 
3 221 267 270 
3 270 267 268 
3 270 268 271 
3 271 268 269 
3 271 269 272 
3 272 269 64 
3 272 64 66 
3 220 221 270 
3 220 270 273 
3 273 270 271 
3 273 271 274 
3 274 271 272 
3 274 272 275 
3 275 272 66 
3 275 66 68 
3 219 220 273 
3 219 273 276 
3 276 273 274 
3 276 274 277 
3 277 274 275 
3 277 275 278 
3 278 275 68 
3 278 68 72 
3 58 219 276 
3 58 276 279 
3 279 276 277 
3 279 277 280 
3 280 277 278 
3 280 278 281 
3 281 278 72 
3 281 72 75 
3 59 58 279 
3 59 279 282 
3 282 279 280 
3 282 280 283 
3 283 280 281 
3 283 281 284 
3 284 281 75 
3 284 75 74 
3 110 59 282 
3 110 282 285 
3 285 282 283 
3 285 283 286 
3 286 283 284 
3 286 284 287 
3 287 284 74 
3 287 74 71 
3 397 110 285 
3 397 285 398 
3 398 285 286 
3 398 286 399 
3 399 286 287 
3 399 287 400 
3 400 287 71 
3 400 71 70 
