ply
format ascii 1.0
comment VCGLIB generated
element vertex 14
property float x
property float y
property float z
property float nx
property float ny
property float nz
element face 12
property list uchar int vertex_indices
end_header
-1 -0.02010722 1 -1 0 0 
-1 0.02010722 1 -1 0 0 
-1 0.02010722 -1 -0.7071072 0 -0.7071065 
-1 -0.02010722 -1 -0.7071065 0 -0.7071072 
1 0.02010722 -1 0.5773501 0.5773501 -0.5773507 
1 -0.02010722 -1 0.5773507 -0.5773501 -0.5773501 
1 0.02010722 1 0.5773507 0.5773501 0.5773501 
1 -0.02010722 1 0.5773501 -0.5773501 0.5773507 
-1 0.02010722 1 0 0 1 
-1 -0.02010722 1 0 0 1 
-1 -0.02010722 -1 0 -1 0 
-1 -0.02010722 1 0 -1 0 
-1 0.02010722 -1 0 1 0 
-1 0.02010722 1 0 1 0 
3 0 1 2 
3 0 2 3 
3 3 2 4 
3 3 4 5 
3 5 4 6 
3 5 6 7 
3 7 6 8 
3 7 8 9 
3 10 5 7 
3 10 7 11 
3 4 12 13 
3 4 13 6 
